<svg width="26" height="26" viewBox="0 0 26 26" fill="none" xmlns="http://www.w3.org/2000/svg">
<rect width="26" height="26" rx="13" fill="white"/>
<g clip-path="url(#clip0_5958_63280)">
<path d="M13 23C18.5228 23 23 18.5228 23 13C23 7.47715 18.5228 3 13 3C7.47715 3 3 7.47715 3 13C3 18.5228 7.47715 23 13 23Z" fill="#1F1FF5"/>
<path d="M8.5665 12.5146C8.5665 12.7546 8.57984 12.9813 8.6065 13.208H7.49984V14.0613H8.79317C9.39317 15.9946 11.1265 17.248 13.2198 17.248C15.2198 17.248 16.8198 16.248 17.4998 14.4613H16.0598C15.5532 15.528 14.5798 16.1546 13.2198 16.1546C11.7798 16.1546 10.6065 15.3813 10.0865 14.0613H13.2198V13.208H9.87317C9.83317 12.9813 9.81984 12.7546 9.81984 12.5146C9.81984 12.288 9.83317 12.0746 9.85984 11.8613H13.2198V11.0213H10.0732C10.5532 9.6613 11.7398 8.8613 13.2198 8.8613C14.5798 8.8613 15.5532 9.48797 16.0598 10.568H17.4998C16.8198 8.76797 15.2198 7.75463 13.2198 7.75463C11.0998 7.75463 9.3665 9.04797 8.77984 11.0213H7.49984V11.8613H8.6065C8.57984 12.0746 8.5665 12.288 8.5665 12.5146Z" fill="white"/>
</g>
<circle cx="18.9165" cy="19.25" r="3.75" fill="black"/>
<path d="M20.6216 19.8681L20.6216 18.5664L19.3337 19.8681L20.6216 19.8681Z" fill="white"/>
<path d="M20.6216 19.8698L20.6216 21.1992L19.3337 19.8698L20.6216 19.8698Z" fill="white"/>
<path d="M19.4568 16.8672L16.4728 19.8246L17.6735 20.9446L20.6045 17.9697L19.4568 16.8672Z" fill="white"/>
<defs>
<clipPath id="clip0_5958_63280">
<rect width="20" height="20" fill="white" transform="translate(3 3)"/>
</clipPath>
</defs>
</svg>
