<svg  width="100%"
      height="100%" viewBox="0 0 26 24" fill="none" xmlns="http://www.w3.org/2000/svg">
<g clip-path="url(#clip0_5911_43522)">
<path d="M12 24C18.6274 24 24 18.6274 24 12C24 5.37258 18.6274 0 12 0C5.37258 0 0 5.37258 0 12C0 18.6274 5.37258 24 12 24Z" fill="#1F1FF5"/>
<path d="M12.264 15.784C13.064 15.784 13.752 15.608 14.328 15.256C14.9147 14.904 15.3627 14.4027 15.672 13.752H17.4C16.9947 14.8187 16.3387 15.6453 15.432 16.232C14.5253 16.808 13.4693 17.096 12.264 17.096C11.0053 17.096 9.896 16.7493 8.936 16.056C7.976 15.3627 7.31467 14.4347 6.952 13.272H5.4V12.248H6.728C6.696 11.9707 6.68 11.6933 6.68 11.416C6.68 11.1493 6.696 10.888 6.728 10.632H5.4V9.624H6.936C7.17067 8.84533 7.544 8.16267 8.056 7.576C8.57867 6.97867 9.19733 6.52 9.912 6.2C10.6373 5.86933 11.4213 5.704 12.264 5.704C13.4693 5.704 14.5253 5.99733 15.432 6.584C16.3387 7.17067 16.9947 8.00267 17.4 9.08H15.672C15.3627 8.41867 14.92 7.912 14.344 7.56C13.768 7.208 13.0747 7.032 12.264 7.032C11.368 7.032 10.584 7.26133 9.912 7.72C9.25067 8.17867 8.776 8.81333 8.488 9.624H12.264V10.632H8.232C8.2 10.888 8.184 11.1493 8.184 11.416C8.184 11.7253 8.20533 12.0027 8.248 12.248H12.264V13.272H8.504C8.81333 14.0613 9.29867 14.68 9.96 15.128C10.632 15.5653 11.4 15.784 12.264 15.784Z" fill="white"/>
</g>
<circle cx="21.5" cy="19.5" r="4.5" fill="black"/>
<path d="M23.5454 20.2378L23.5454 18.6758L22 20.2378L23.5454 20.2378Z" fill="white"/>
<path d="M23.5454 20.2368L23.5454 21.832L22 20.2368L23.5454 20.2368Z" fill="white"/>
<path d="M22.1482 16.6367L18.5674 20.1857L20.0082 21.5296L23.5254 17.9597L22.1482 16.6367Z" fill="white"/>
<defs>
<clipPath id="clip0_5911_43522">
<rect width="24" height="24" fill="white"/>
</clipPath>
</defs>
</svg>
