<svg   width="100%"
       height="100%" viewBox="0 0 64 64" fill="none" xmlns="http://www.w3.org/2000/svg">
<path d="M32 64C49.6731 64 64 49.6731 64 32C64 14.3269 49.6731 0 32 0C14.3269 0 0 14.3269 0 32C0 49.6731 14.3269 64 32 64Z" fill="#16449A"/>
<path d="M26.4006 10.7525L26.3677 10.752C15.5987 10.752 6.9119 20.3438 6.9119 32.128C6.9119 43.9122 15.5987 53.504 26.3677 53.504L26.4048 53.5033L26.4873 53.497L26.5813 53.4815L26.6864 53.4532L26.8002 53.4082L26.9183 53.3434L27.0336 53.258L27.1383 53.1544L27.2259 53.0387L27.2931 52.9186L27.34 52.8015L27.3694 52.6927L27.3853 52.5949L27.3913 52.5089L27.3907 52.4342L27.3858 52.3697L27.3389 52.1864L27.3227 52.1263L27.3094 52.0816L27.3015 52.0584L27.2901 52.0301L27.2822 52.0139L27.2688 51.9903L27.2094 51.8979L27.1829 51.8593L27.127 51.7921L26.9908 51.6498L26.8622 51.5168L26.6709 51.3166L26.4905 51.1252C26.4601 51.0927 26.4294 51.0599 26.3986 51.0268L26.2114 50.8242L26.0194 50.6137L25.8224 50.3949C25.7891 50.3577 25.7557 50.3202 25.722 50.2823L25.5172 50.0503C24.3113 48.6756 23.1137 47.1574 21.9959 45.5232L21.9016 45.3847L21.7153 45.1079C21.6229 44.9696 21.5316 44.8312 21.4416 44.6929L21.2631 44.4164C18.5796 40.2237 16.992 36.0816 16.9582 32.2542L16.9577 32.1264C16.9586 28.1399 18.6568 23.8076 21.5322 19.4284L21.7154 19.1518L21.9017 18.875C21.933 18.8289 21.9644 18.7828 21.996 18.7366C23.114 17.102 24.3115 15.5834 25.5186 14.2067L25.6216 14.0896L25.8235 13.8623C25.8567 13.8251 25.8897 13.7883 25.9225 13.7519L26.1168 13.5373L26.3064 13.3306C26.3376 13.2968 26.3687 13.2633 26.3995 13.2301L26.5825 13.0345L26.7273 12.8815L26.9351 12.6647L27.0824 12.5121L27.1109 12.4818L27.1471 12.4408L27.1903 12.3871L27.2034 12.3687L27.228 12.3297L27.2731 12.2547L27.3006 12.2055L27.3092 12.1876L27.3168 12.169L27.3239 12.1483L27.3308 12.1243L27.3413 12.0796L27.353 12.0206L27.3914 11.8041L27.3918 11.771L27.3888 11.6981L27.3792 11.6159L27.3604 11.5244L27.3296 11.4248L27.2844 11.3195L27.2228 11.2125L27.1449 11.1093L27.0532 11.0153L26.9521 10.9351L26.847 10.8711L26.7432 10.8234L26.6449 10.7902L26.5544 10.7692L26.473 10.7574L26.4006 10.7525ZM23.8258 13.005L23.8527 13.0009L23.9787 12.8565C22.7206 14.2914 21.4732 15.8732 20.3055 17.5805C16.972 22.4544 14.9515 27.3398 14.9103 31.9852L14.9097 32.1279C14.9092 36.6301 16.7782 41.3606 19.9078 46.0885L20.105 46.384C20.1713 46.4825 20.2382 46.581 20.3055 46.6794L20.4652 46.9114C21.5331 48.4527 22.6644 49.8896 23.8063 51.2045L23.855 51.2604L23.7978 51.2516C15.4337 49.8855 8.9599 41.8613 8.9599 32.128C8.9599 22.3947 15.4337 14.3705 23.8258 13.005Z" fill="white"/>
<path d="M37.8554 10.7525L37.8883 10.752C48.6573 10.752 57.3441 20.3438 57.3441 32.128C57.3441 43.9122 48.6573 53.504 37.8883 53.504L37.8511 53.5033L37.7686 53.497L37.6746 53.4815L37.5696 53.4532L37.4557 53.4082L37.3377 53.3434L37.2224 53.258L37.1177 53.1544L37.03 53.0387L36.9629 52.9186L36.916 52.8015L36.8865 52.6927L36.8707 52.5949L36.8646 52.5089L36.8652 52.4342L36.8701 52.3697L36.917 52.1864L36.9333 52.1263L36.9466 52.0816L36.9544 52.0584L36.9659 52.0301L36.9738 52.0139L36.9872 51.9903L37.0465 51.8979L37.0731 51.8593L37.129 51.7921L37.2651 51.6498L37.3937 51.5168L37.585 51.3166L37.7654 51.1252C37.7959 51.0927 37.8265 51.0599 37.8573 51.0268L38.0446 50.8242L38.2366 50.6137L38.4335 50.3949C38.4668 50.3577 38.5003 50.3202 38.534 50.2823L38.7388 50.0503C39.9447 48.6756 41.1422 47.1574 42.26 45.5232L42.3544 45.3847L42.5407 45.1079C42.6331 44.9696 42.7243 44.8312 42.8144 44.6929L42.9929 44.4164C45.6764 40.2237 47.2639 36.0816 47.2977 32.2542L47.2983 32.1264C47.2973 28.1399 45.5992 23.8076 42.7237 19.4284L42.5406 19.1518L42.3543 18.875C42.323 18.8289 42.2916 18.7828 42.26 18.7366C41.142 17.102 39.9444 15.5834 38.7373 14.2067L38.6344 14.0896L38.4325 13.8623C38.3993 13.8251 38.3663 13.7883 38.3335 13.7519L38.1391 13.5373L37.9495 13.3306C37.9183 13.2968 37.8873 13.2633 37.8564 13.2301L37.6734 13.0345L37.5287 12.8815L37.3208 12.6647L37.1735 12.5121L37.1451 12.4818L37.1089 12.4408L37.0657 12.3871L37.0525 12.3687L37.028 12.3297L36.9828 12.2547L36.9554 12.2055L36.9468 12.1876L36.9391 12.169L36.932 12.1483L36.9252 12.1243L36.9147 12.0796L36.9029 12.0206L36.8646 11.8041L36.8642 11.771L36.8671 11.6981L36.8768 11.6159L36.8956 11.5244L36.9263 11.4248L36.9716 11.3195L37.0332 11.2125L37.111 11.1093L37.2027 11.0153L37.3039 10.9351L37.409 10.8711L37.5127 10.8234L37.6111 10.7902L37.7015 10.7692L37.783 10.7574L37.8554 10.7525ZM40.4301 13.005L40.4033 13.0009L40.2773 12.8565C41.5353 14.2914 42.7828 15.8732 43.9504 17.5805C47.2839 22.4544 49.3045 27.3398 49.3456 31.9852L49.3463 32.1279C49.3468 36.6301 47.4777 41.3606 44.3481 46.0885L44.1509 46.384C44.0846 46.4825 44.0178 46.581 43.9504 46.6794L43.7907 46.9114C42.7228 48.4527 41.5915 49.8896 40.4497 51.2045L40.401 51.2604L40.4581 51.2516C48.8223 49.8855 55.2961 41.8613 55.2961 32.128C55.2961 22.3947 48.8223 14.3705 40.4301 13.005Z" fill="white"/>
<path d="M27.9407 21.3043H24.0662C23.7863 21.3043 23.5594 21.5313 23.5594 21.8112C23.5594 21.895 23.5801 21.9776 23.6199 22.0514L27.7041 29.6415C27.7322 29.6938 27.7126 29.759 27.6603 29.7871C27.6447 29.7956 27.6272 29.8 27.6094 29.8H24.5625C24.2826 29.8 24.0557 30.0269 24.0557 30.3069V32.9744C24.0557 33.2544 24.2826 33.4813 24.5625 33.4813H29.2754C29.3348 33.4813 29.3829 33.5295 29.3829 33.5888V35.2041C29.3829 35.2634 29.3348 35.3116 29.2754 35.3116H24.5625C24.2826 35.3116 24.0557 35.5385 24.0557 35.8185V38.2447C24.0557 38.5247 24.2826 38.7516 24.5625 38.7516H29.2754C29.3348 38.7516 29.3829 38.7998 29.3829 38.8591V42.4448C29.3829 42.7247 29.6099 42.9517 29.8898 42.9517H34.137C34.4169 42.9517 34.6438 42.7247 34.6438 42.4448V38.8591C34.6438 38.7998 34.692 38.7516 34.7514 38.7516H39.5691C39.8491 38.7516 40.076 38.5247 40.076 38.2447V35.8185C40.076 35.5385 39.8491 35.3116 39.5691 35.3116H34.7514C34.692 35.3116 34.6438 35.2634 34.6438 35.2041V33.5888C34.6438 33.5295 34.692 33.4813 34.7514 33.4813H39.5691C39.8491 33.4813 40.076 33.2544 40.076 32.9744V30.3069C40.076 30.0269 39.8491 29.8 39.5691 29.8H36.5459C36.4865 29.8 36.4384 29.7518 36.4384 29.6925C36.4384 29.6743 36.443 29.6565 36.4517 29.6406L40.6282 22.0557C40.7633 21.8105 40.6739 21.5022 40.4287 21.3672C40.3538 21.3259 40.2697 21.3043 40.1842 21.3043H36.2092C36.023 21.3043 35.8519 21.4063 35.7633 21.5701L32.1749 28.2046C32.1467 28.2569 32.0814 28.2763 32.0292 28.248C32.0109 28.2381 31.9958 28.2231 31.9858 28.2047L28.3862 21.5695C28.2976 21.4061 28.1266 21.3043 27.9407 21.3043Z" fill="white"/>
</svg>
