<?xml version="1.0" standalone="no"?>
<!DOCTYPE svg PUBLIC "-//W3C//DTD SVG 20010904//EN"
 "http://www.w3.org/TR/2001/REC-SVG-20010904/DTD/svg10.dtd">
<svg version="1.0" xmlns="http://www.w3.org/2000/svg"
     width="100%"
     height="100%"
     viewBox="0 0 219.000000 220.000000"
 preserveAspectRatio="xMidYMid meet">
<g transform="translate(0.000000,220.000000) scale(0.100000,-0.100000)"
fill="#000000" stroke="none">
<path d="M979 2178 c-81 -5 -133 -16 -215 -42 -396 -129 -676 -457 -748 -876
-27 -156 -16 -301 35 -475 124 -418 496 -726 924 -765 443 -42 840 152 1057
515 105 176 144 311 154 530 5 110 3 146 -16 235 -90 440 -405 764 -835 861
-77 17 -239 25 -356 17z m340 -192 c103 -54 191 -221 191 -362 l0 -35 -57 3
-58 3 -6 47 c-13 91 -38 153 -76 195 -90 97 -212 65 -279 -75 -36 -74 -45
-214 -19 -311 14 -57 71 -210 81 -220 2 -2 52 46 111 106 154 157 260 210 365
183 55 -15 120 -77 148 -141 47 -109 53 -389 11 -519 -23 -75 -78 -145 -128
-166 -123 -52 -302 47 -476 264 l-26 33 -19 -38 c-11 -21 -33 -76 -48 -123
-26 -76 -29 -99 -29 -210 0 -145 16 -194 88 -267 37 -39 46 -43 89 -43 67 0
112 21 147 71 35 47 49 88 58 172 l6 57 60 0 60 0 -7 -64 c-11 -111 -60 -227
-118 -283 -59 -57 -120 -78 -223 -76 -174 2 -327 72 -466 213 -85 87 -153 195
-195 312 -39 109 -56 434 -34 616 25 195 139 405 285 524 82 67 204 126 295
143 94 18 225 13 269 -9z"/>
<path d="M860 1786 c-111 -81 -216 -242 -254 -391 -62 -236 -37 -545 59 -748
43 -89 221 -284 242 -264 3 4 0 33 -8 64 -9 36 -14 107 -13 188 1 122 3 136
36 230 19 55 50 132 68 172 l33 72 -45 98 c-73 156 -98 257 -98 387 0 63 17
160 35 209 10 25 -4 21 -55 -17z"/>
<path d="M1442 1381 c-28 -16 -67 -42 -85 -56 -48 -41 -146 -155 -164 -192
-16 -31 -15 -34 9 -71 46 -68 185 -207 235 -234 96 -51 130 -42 173 49 32 66
40 292 16 397 -32 135 -81 163 -184 107z m71 -82 c28 -15 37 -28 37 -56 0 -53
-76 -74 -106 -28 -20 31 -12 68 18 83 30 14 26 14 51 1z m-136 -161 c13 -12
23 -32 23 -44 0 -41 -69 -71 -98 -42 -17 17 -15 68 5 90 21 24 42 23 70 -4z
m151 -144 c31 -21 30 -69 -2 -89 -61 -40 -127 34 -76 85 24 24 48 25 78 4z"/>
</g>
</svg>
