<svg xmlns="http://www.w3.org/2000/svg" width="250" height="250" version="1.1"><path fill-opacity=".114" d="M 100.776 1.980 C 75.317 7.348, 54.282 18.621, 36.451 36.451 C 12.379 60.524, 0 90.595, 0 125 C -0 159.405, 12.379 189.476, 36.451 213.549 C 60.524 237.621, 90.595 250, 125 250 C 139.928 250, 150.191 248.481, 163.426 244.314 C 206.337 230.802, 240.413 192.179, 248.125 148.315 C 248.784 144.567, 249.700 141.072, 250.161 140.550 C 251.237 139.332, 251.268 107.716, 250.193 108.381 C 249.749 108.655, 248.861 105.817, 248.220 102.075 C 240.691 58.170, 206.434 19.229, 163.426 5.686 C 149.784 1.391, 140.014 -0.006, 124.140 0.070 C 113.993 0.119, 106.822 0.705, 100.776 1.980 M 76.469 63.658 C 56.131 87.219, 53.743 90.393, 49.378 99.681 C 44.467 110.130, 42.681 118.658, 42.713 131.500 C 42.761 151.055, 49.212 167.545, 62.321 181.618 C 77.734 198.165, 96.342 206.213, 119 206.132 C 147.273 206.032, 172.069 191.506, 185.800 167 C 189.159 161.004, 208.046 109.379, 207.192 108.525 C 206.063 107.396, 196.740 108.082, 193.218 109.553 C 185.327 112.849, 184.523 114.261, 174.022 143.282 C 168.979 157.217, 164.494 164.518, 156.377 172 C 129.560 196.721, 85.852 188.949, 68.802 156.428 C 61.879 143.222, 60.607 128.841, 65.094 114.517 C 67.946 105.415, 71.649 99.820, 84.959 84.500 C 91.650 76.800, 97.842 69.150, 98.721 67.500 C 101.386 62.494, 100.937 54.274, 97.695 48.742 C 96.166 46.134, 94.583 44, 94.176 44 C 93.770 44, 85.801 52.846, 76.469 63.658 M 170.973 79.277 C 162.942 82.015, 155.242 87.541, 150.549 93.933 C 148.597 96.592, 147 99.013, 147 99.312 C 147 100.739, 158.616 102.215, 166.775 101.825 C 174.714 101.446, 176.737 100.940, 183.305 97.694 C 188.647 95.054, 192.394 92.262, 196.395 87.940 C 199.478 84.610, 202 81.290, 202 80.562 C 202 76.653, 181.195 75.792, 170.973 79.277 M 0.407 125 C 0.407 134.075, 0.559 137.787, 0.744 133.250 C 0.929 128.713, 0.929 121.287, 0.744 116.750 C 0.559 112.213, 0.407 115.925, 0.407 125 M 133.500 110.207 C 125.130 113.132, 120.472 119.801, 119.086 130.845 C 118.097 138.716, 116.488 142.234, 111.832 146.707 C 104.028 154.204, 94.135 154.758, 79.657 148.510 C 76.399 147.104, 81.545 155.675, 87.586 161.716 C 112.440 186.571, 155.672 172.901, 161.964 138.198 C 163.418 130.179, 162.512 124.199, 159.005 118.669 C 154.041 110.842, 142.570 107.036, 133.500 110.207 M 87.952 117.253 C 78.630 123.536, 78.256 136.637, 87.209 143.310 C 91.115 146.221, 99.498 146.671, 104 144.210 C 114.472 138.486, 114.899 123.177, 104.759 116.995 C 100.149 114.184, 92.328 114.304, 87.952 117.253" stroke="none" fill="black" fill-rule="evenodd"/><path fill-opacity=".349" d="M 104.437 1.559 C 78.445 5.928, 56.176 17.567, 36.871 36.871 C 12.526 61.216, 0.008 91.144, 0.008 125 C 0.008 158.856, 12.526 188.784, 36.871 213.129 C 61.216 237.474, 91.144 249.992, 125 249.992 C 158.856 249.992, 188.784 237.474, 213.129 213.129 C 232.248 194.010, 244.486 170.744, 248.070 146.705 C 248.661 142.742, 249.562 138.719, 250.072 137.764 C 251.207 135.640, 251.323 110.682, 250.195 111.380 C 249.752 111.653, 248.883 108.417, 248.263 104.189 C 244.663 79.606, 232.435 56.177, 213.129 36.871 C 193.492 17.235, 171.434 5.836, 144.672 1.496 C 133.547 -0.309, 115.377 -0.280, 104.437 1.559 M 75.332 64.540 C 65.579 75.838, 55.892 87.650, 53.806 90.790 C 42.958 107.123, 39.243 130.914, 44.484 150.500 C 54.227 186.916, 91.588 211.531, 128.850 206.082 C 156.153 202.090, 179.767 184.242, 189.454 160.276 C 195.039 146.457, 208.104 108.771, 207.514 108.181 C 207.158 107.825, 204.309 107.539, 201.183 107.546 C 194.281 107.561, 188.189 110.640, 184.603 115.926 C 183.270 117.892, 179.613 126.700, 176.477 135.500 C 169.135 156.103, 165.950 162.050, 158 170 C 134.024 193.976, 94 190.841, 73.449 163.379 C 67.078 154.866, 63.870 145.618, 63.258 133.999 C 62.294 115.733, 66.154 107.115, 85.410 84.535 C 99.051 68.539, 100.982 65.278, 100.994 58.218 C 101.003 52.952, 96.523 44, 93.878 44 C 93.431 44, 85.085 53.243, 75.332 64.540 M 175.459 77.329 C 172.686 78.039, 168.186 79.689, 165.459 80.996 C 160.032 83.596, 147 95.854, 147 98.358 C 147 102.723, 169.220 103.944, 179.119 100.123 C 186.830 97.147, 195.084 91.016, 199.525 84.966 C 201.568 82.183, 203.073 79.769, 202.870 79.601 C 199.520 76.842, 182.784 75.454, 175.459 77.329 M 137 108.989 C 132.332 109.860, 128.071 112.204, 124.872 115.661 C 120.974 119.873, 119.868 122.559, 118.918 130.124 C 117.838 138.727, 115.068 144.214, 109.922 147.941 C 101.321 154.172, 91.487 153.939, 77.618 147.176 C 77.133 146.939, 77.992 149.052, 79.527 151.871 C 82.825 157.932, 91.890 166.883, 97.764 169.880 C 120.438 181.447, 147.866 172.231, 158.708 149.400 C 162.709 140.975, 164.126 129.943, 162.026 123.579 C 158.733 113.602, 147.470 107.036, 137 108.989 M 0.392 125 C 0.392 132.425, 0.549 135.463, 0.742 131.750 C 0.934 128.037, 0.934 121.963, 0.742 118.250 C 0.549 114.537, 0.392 117.575, 0.392 125 M 91.914 114.956 C 87.326 116.346, 84.145 119.068, 82.049 123.399 C 79.457 128.753, 79.462 132.258, 82.071 137.647 C 86.842 147.503, 99.610 149.513, 107.776 141.694 C 114.255 135.490, 114.484 126.755, 108.345 119.960 C 103.711 114.831, 98.032 113.101, 91.914 114.956" stroke="none" fill="black" fill-rule="evenodd"/><path fill-opacity=".612" d="M 106.500 1.575 C 52.242 9.903, 9.531 52.864, 1.561 107.128 C -0.410 120.548, -0.410 129.452, 1.561 142.872 C 8.445 189.741, 40.914 228.377, 86.041 243.397 C 97.597 247.243, 113.863 250, 125 250 C 150.693 250, 179.029 240.360, 200.333 224.372 C 225.355 205.592, 244.012 174.539, 248.019 145 C 248.653 140.325, 249.583 135.719, 250.086 134.764 C 251.201 132.645, 251.318 113.686, 250.211 114.369 C 249.778 114.637, 248.861 110.735, 248.175 105.697 C 245.665 87.269, 236.629 66, 224.372 49.667 C 197.361 13.679, 150.969 -5.250, 106.500 1.575 M 76.469 62.658 C 56.072 86.287, 53.883 89.210, 48.882 99.500 C 43.427 110.724, 41.722 119.716, 42.247 134.500 C 42.743 148.483, 45.437 157.934, 52.222 169.500 C 57.159 177.916, 70.238 191.174, 78.221 195.855 C 92.624 204.300, 105.226 207.421, 122 206.698 C 150.259 205.481, 174.364 190.360, 186.880 166 C 190.399 159.150, 208 111.781, 208 109.159 C 208 106.001, 195.938 106.639, 190.349 110.093 C 184.886 113.470, 182.567 117.557, 176.503 134.500 C 168.939 155.636, 166.598 160.255, 159.707 167.639 C 149.163 178.937, 137.017 184.751, 122 185.684 C 79.409 188.333, 50.253 144.732, 69.064 106.521 C 70.883 102.826, 77.018 94.704, 84.598 85.957 C 91.489 78.006, 98.045 69.737, 99.169 67.582 C 102.096 61.969, 101.433 52.764, 97.696 47.117 C 96.198 44.852, 94.626 43, 94.204 43 C 93.782 43, 85.801 51.846, 76.469 62.658 M 171.772 78.345 C 161.140 81.968, 151.495 89.541, 147.177 97.657 C 146.144 99.598, 146.354 99.932, 149.264 100.983 C 154.227 102.775, 166.955 103.390, 172.860 102.123 C 183.620 99.816, 193.939 93.208, 200.132 84.659 C 201.709 82.482, 203 80.335, 203 79.889 C 203 78.316, 192.552 76, 185.568 76.026 C 180.880 76.043, 176.235 76.824, 171.772 78.345 M 133.885 109.320 C 124.397 112.867, 120.519 118.199, 118.542 130.413 C 117.095 139.349, 115.321 142.869, 110.013 147.335 C 103.433 152.872, 91.585 153.524, 82.174 148.867 C 79.329 147.458, 77 146.581, 77 146.918 C 77 147.254, 77.951 149.323, 79.114 151.515 C 86.776 165.963, 101.886 175, 118.379 175 C 136.389 175, 151.547 165.390, 159.390 149 C 162.235 143.055, 162.500 141.640, 162.500 132.418 C 162.500 122.899, 162.336 122.100, 159.570 118.105 C 154.007 110.070, 142.450 106.118, 133.885 109.320 M 89.500 115.573 C 84.973 117.927, 82.184 120.913, 80.912 124.766 C 79.420 129.288, 80.278 136.538, 82.699 139.864 C 85.126 143.199, 92.492 147.007, 96.462 146.978 C 101.063 146.945, 107.412 143.634, 110.099 139.867 C 113.475 135.133, 113.508 125.913, 110.166 121.227 C 105.584 114.804, 96.013 112.185, 89.500 115.573 M 0.370 125 C 0.370 130.775, 0.535 133.137, 0.737 130.250 C 0.939 127.362, 0.939 122.638, 0.737 119.750 C 0.535 116.862, 0.370 119.225, 0.370 125" stroke="none" fill="black" fill-rule="evenodd"/><path fill-opacity=".474" d="M 109.585 1.556 C 67.295 7.313, 31.809 32.744, 13.454 70.448 C 6.758 84.203, 3.386 95.817, 1.320 112.241 C -0.154 123.955, -0.154 126.045, 1.320 137.759 C 3.386 154.183, 6.758 165.797, 13.454 179.552 C 25.767 204.843, 45.157 224.233, 70.448 236.546 C 84.203 243.242, 95.817 246.614, 112.241 248.680 C 123.955 250.154, 126.045 250.154, 137.759 248.680 C 154.183 246.614, 165.797 243.242, 179.552 236.546 C 216.882 218.373, 243.287 181.813, 248.081 141.659 C 248.683 136.622, 249.586 131.719, 250.087 130.764 C 251.203 128.641, 251.312 117.689, 250.211 118.370 C 249.777 118.638, 248.898 114.502, 248.258 109.179 C 243.336 68.255, 217.135 31.750, 179.552 13.454 C 166.193 6.951, 154.572 3.497, 139.334 1.499 C 125.949 -0.255, 122.847 -0.250, 109.585 1.556 M 77.747 60.750 C 51.276 91.314, 48.314 95.762, 43.821 111.709 C 40.747 122.621, 40.747 139.379, 43.821 150.291 C 51.514 177.593, 72.278 198.023, 99.500 205.073 C 109.963 207.783, 126.615 207.981, 136.500 205.513 C 158.831 199.936, 177.998 184.886, 187.981 165.089 C 191.292 158.523, 209.024 108.848, 208.411 107.856 C 208.120 107.385, 205.191 107, 201.901 107 C 195.177 107, 190.076 109.118, 185.864 113.658 C 182.326 117.472, 181.277 119.800, 174.492 138.885 C 166.522 161.305, 160.796 169.491, 147.500 177.479 C 125.494 190.700, 97.500 187.389, 79.556 169.444 C 61.564 151.453, 58.298 123.102, 71.839 102.458 C 73.989 99.181, 80.756 90.738, 86.876 83.697 C 92.996 76.655, 98.639 69.664, 99.416 68.162 C 101.683 63.778, 102.250 58.645, 100.989 53.909 C 99.809 49.476, 95.666 43, 94.009 43 C 93.520 43, 86.202 50.987, 77.747 60.750 M 179.276 76.129 C 171.884 77.013, 162.226 81.391, 156.118 86.626 C 151.760 90.361, 146 97.505, 146 99.175 C 146 101.808, 160.900 104.109, 170 102.881 C 182.218 101.232, 196.500 92.054, 202.284 82.135 L 204.068 79.076 198.784 77.624 C 191.537 75.633, 186.591 75.254, 179.276 76.129 M 132.422 109.365 C 127.817 111.450, 122.444 116.545, 120.475 120.695 C 119.513 122.720, 118.384 127.499, 117.966 131.313 C 116.976 140.324, 113.594 145.415, 105.994 149.330 C 101.249 151.775, 99.663 152.098, 94.361 151.704 C 90.710 151.433, 85.899 150.185, 82.490 148.624 C 79.338 147.181, 76.561 146, 76.321 146 C 74.720 146, 83.198 158.843, 87.458 162.872 C 114.231 188.193, 157.634 173.351, 163.116 137 C 164.883 125.283, 161.927 117.706, 153.192 111.567 C 149.643 109.073, 147.771 108.510, 142.207 108.266 C 138.012 108.082, 134.347 108.494, 132.422 109.365 M 88.097 116.082 C 80.950 120.439, 77.906 127.347, 79.997 134.460 C 84.232 148.865, 102.301 151.580, 110.726 139.078 C 113.863 134.424, 113.863 126.576, 110.726 121.922 C 105.467 114.117, 95.527 111.552, 88.097 116.082 M 0.320 125 C 0.320 128.575, 0.502 130.037, 0.723 128.250 C 0.945 126.463, 0.945 123.537, 0.723 121.750 C 0.502 119.963, 0.320 121.425, 0.320 125" stroke="none" fill="black" fill-rule="evenodd"/></svg>