<?xml version="1.0" encoding="utf-8"?>
<!-- Generator: Adobe Illustrator 25.2.1, SVG Export Plug-In . SVG Version: 6.00 Build 0)  -->
<svg version="1.1" id="Ebene_1" xmlns="http://www.w3.org/2000/svg" xmlns:xlink="http://www.w3.org/1999/xlink" x="0px" y="0px"
	width="100%" height="100%" viewBox="0 0 128 128" style="enable-background:new 0 0 128 128;" xml:space="preserve">
<g id="Symbol_1_">
	<g id="Fractured">
		<path id="t5" d="M113.39675,99.22761c0.3877,0.06924,0.77541,0.13849,1.2507,0.22337
			c-0.12458,0.22066-0.21731,0.3849-0.34424,0.60974c-0.35997-0.25823-0.67152-0.48172-0.98308-0.70521
			C113.34567,99.3129,113.3712,99.27025,113.39675,99.22761z"/>
		<path id="t4" d="M85.80502,69.60509c0.70407,0.09929,1.4093,0.19125,2.11184,0.30035
			c0.50667,0.07867,0.5051,0.08884,0.4659,0.77328c-0.8822-0.31071-1.74101-0.61318-2.59985-0.91565
			C85.79027,69.7104,85.79764,69.65774,85.80502,69.60509z"/>
		<path id="t3" d="M85.64758,53.2107c-0.6371,0.22617-1.14373,0.40602-1.73352,0.61539
			C84.57131,53.00498,84.99293,52.83998,85.64758,53.2107z"/>
		<path id="t2" d="M83.78938,47.20002c0.10914,0.72571-0.74628,1.52959-1.74954,1.64579
			C82.66571,48.25705,83.20499,47.74976,83.78938,47.20002z"/>
		<path id="t1" d="M76.34638,37.6264c-0.2257,0.41784-0.36024,0.66686-0.49474,0.9159
			c-0.05347-0.00476-0.10691-0.00951-0.16038-0.01427c0.01609-0.30054,0.02034-0.60303,0.06896-0.89822
			C75.76445,37.60407,76.06055,37.6264,76.34638,37.6264z"/>
		<path id="m5" d="M65.41955,40.98834c0-1.20539,0-2.41078,0-3.61617c0.07166,0.00185,0.1433,0.00371,0.21497,0.00555
			c0,1.20574,0,2.41149,0,3.61723C65.56286,40.99275,65.49122,40.99054,65.41955,40.98834z"/>
		<path id="m4" d="M78.46434,94.86031c-1.23207-0.4776-1.23207-0.4776-2.05283-2.67741
			C77.23137,92.13538,77.64281,92.66448,78.46434,94.86031z"/>
		<path id="m3" d="M110.66395,74.74077c-1.59603,0.75074-3.10847,1.6713-4.91284,0.44363
			C107.3766,74.80001,108.87188,73.82941,110.66395,74.74077z"/>
		<path id="m2" d="M102.50912,37.4324c0.32043,0.56029,0.61243,1.07084,0.93562,1.63594
			c-0.72762,0.44632-1.41499,0.86795-2.173,1.33292c-0.30659-0.48001-0.61076-0.95625-0.92316-1.44537
			C100.8412,38.60852,101.64772,38.0398,102.50912,37.4324z"/>
		<path id="m1_1_" d="M85.54744,22.94169c0.47565,0.52577,0.86875,0.96029,1.32092,1.46013
			c-0.7862,0.1633-1.47659,0.3067-2.30728,0.47923C84.91185,24.19138,85.19849,23.62781,85.54744,22.94169z"/>
		<path id="j7" d="M73.39709,93.97461c-0.13386-0.54445-0.2521-1.02531-0.36959-1.50322
			c0.34633-0.12993,0.67064-0.25159,1.07307-0.40256c0.56664,1.29037,1.1303,2.57396,1.7165,3.90882
			c0.71658-0.38197,1.0153,0.00876,1.27155,0.61049c0.28018,0.65796,0.64606,1.27943,1.00726,1.98013
			c-0.30812,0.16109-0.59283,0.30997-0.9336,0.48816c0.32307,0.76875,0.64104,1.52523,0.99165,2.35948
			c-1.09299-0.28914-1.92906-0.70131-2.02941-1.93799c-0.30125,0.10461-0.51534,0.17894-0.77487,0.26907
			c0.08235,0.27285,0.15489,0.51318,0.28254,0.93616c-0.60261-0.28359-1.06784-0.50253-1.71753-0.80828
			c0.45083-0.26121,0.70283-0.4072,0.99846-0.57849c-0.2494-0.88824-0.49976-1.77987-0.75862-2.70177
			c-0.27068,0.05458-0.49773,0.10038-0.81488,0.16431c-0.20925-0.99409-0.41319-1.96298-0.63358-3.00998
			C72.97968,93.83833,73.15217,93.89465,73.39709,93.97461z"/>
		<path id="j6_1_" d="M84.48615,101.59155c-0.69582-0.35886-1.39155-0.71789-2.08761-1.07629
			c-0.08498-0.04375-0.16756-0.10369-0.2583-0.12305c-1.70129-0.36324-2.03035-1.81499-2.55814-3.19273
			c0.66504-0.27596,1.30058-0.53969,2.01203-0.83491c1.02592,1.68663,2.03601,3.34723,3.04608,5.00782
			C84.58887,101.44546,84.53751,101.5185,84.48615,101.59155z"/>
		<path id="j5" d="M113.68976,101.5335c-2.17542-0.86869-4.40365-1.62866-6.50507-2.64963
			c-1.13589-0.55186-2.0598-1.54376-3.07067-2.34805c-0.65311-0.51966-1.29052-1.05903-1.99563-1.63951
			c0.63361-0.34074,1.18432-0.6766,1.77117-0.92815c0.17509-0.07506,0.50546,0.01723,0.6733,0.14912
			c2.87973,2.26331,5.74528,4.54466,8.61328,6.82285c0.20125,0.15986,0.39763,0.32587,0.59626,0.48901
			C113.74486,101.46392,113.71731,101.4987,113.68976,101.5335z"/>
		<path id="j4" d="M88.17245,45.82853c-1.19064,0.84277-2.38097,1.68597-3.57242,2.52758
			c-0.11524,0.08139-0.23741,0.15297-0.48009,0.13655c0.09522-0.14161,0.16395-0.31506,0.28986-0.41974
			c0.95733-0.79593,1.91301-1.59518,2.90168-2.35093c0.19773-0.15114,0.5345-0.12036,0.80716-0.17346
			C88.13657,45.64186,88.15451,45.7352,88.17245,45.82853z"/>
		<path id="j3" d="M77.48894,46.50696c0.57669-1.08665,1.16101-2.16934,1.72686-3.26161
			c0.28069-0.54181,0.62026-1.04665,0.50075-1.74411c-0.04945-0.2886,0.26185-0.639,0.49549-1.15039
			c0.07436,0.55399,0.12249,0.9126,0.19257,1.43472c0.24183-0.38889,0.38314-0.68764,0.59206-0.92753
			c0.14509-0.16661,0.38316-0.25225,0.5797-0.37408c0.04754,0.06897,0.09509,0.13794,0.14263,0.20691
			c-0.21218,0.32961-0.42434,0.65924-0.64793,1.00661c0.77959,0.28465,0.73654-1.25512,1.64522-0.6481
			c-0.1297,0.18485-0.24929,0.35532-0.44679,0.6368c0.55591-0.14763,1.00877-0.26791,1.46166-0.38818
			c0.03886,0.08258,0.07771,0.16515,0.11657,0.24773c-2.08342,1.67341-4.16682,3.34684-6.25024,5.02027
			C77.56131,46.54631,77.52512,46.52663,77.48894,46.50696z"/>
		<path id="j2_1_" d="M84.11842,32.62836c-0.81758,1.16835-1.63516,2.33672-2.49577,3.56652
			c0.3131,0.02451,0.54279,0.04248,0.77335,0.06054c-0.34837,0.99571-3.3631,4.36802-3.92066,4.34173
			c0.22411-0.37034,0.43869-0.72491,0.65327-1.07949c-0.06936-0.05912-0.13869-0.11824-0.20802-0.17736
			c-0.4034,0.50547-0.80682,1.01095-1.21024,1.51643c-0.07852-0.05482-0.15707-0.10963-0.2356-0.16446
			c0.23369-0.47482,0.46737-0.94966,0.70106-1.42448c-0.04884-0.00874-0.09768-0.01747-0.14652-0.0262
			c0.01838-0.31302-0.0217-0.6442,0.0686-0.93487c0.1411-0.4543,0.38704-0.87486,0.55719-1.32167
			c0.13863-0.36403,0.30563-0.61641,0.75907-0.61857c0.15499-0.00073,0.36004-0.20277,0.45386-0.36419
			c0.30052-0.51716,0.59644-1.04293,0.82778-1.59329c0.63477-1.51008,1.97521-1.72143,3.30907-1.96264
			C84.04271,32.50702,84.08056,32.56769,84.11842,32.62836z"/>
		<path id="j1_1_" d="M69.89859,31.60694c-0.10405,0.58037-0.19117,1.06622-0.28664,1.5986
			c0.18523,0.04239,0.35669,0.08162,0.58269,0.13335c-0.12218,0.45837-0.2602,0.88717-0.34345,1.32637
			c-0.04128,0.21781,0.01816,0.4547,0.03206,0.68296c0.15192-0.14993,0.30383-0.29987,0.45575-0.44981
			c0.05257-0.00042,0.10513-0.00087,0.15773-0.0013c-0.17209,0.99614-0.21808,2.03679-0.54985,2.97655
			c-0.36986,1.04766-0.99956,2.00358-1.62027,3.20017c-0.23496-0.32079-0.5341-0.54006-0.54235-0.76974
			c-0.08059-2.24853-0.06669-4.50115-0.18166-6.74737c-0.04469-0.87271,0.21231-1.32944,1.05396-1.51258
			C69.0451,31.95958,69.41332,31.78142,69.89859,31.60694z"/>
		<path id="f9_1_" d="M98.12081,111.4441c-1.32273-1.64497-2.66539-3.27393-3.99734-4.91151
			c-1.08249-1.33088-2.16177-2.66442-3.36607-4.14919c0.58783,0.16676,0.98186,0.27855,1.54696,0.43886
			c-1.03693-1.28587-1.96071-2.43144-2.94792-3.65569c0.67431-0.07757,1.2266-0.14111,1.9097-0.21971
			c-1.34436-1.43949-2.59226-2.77567-3.84587-4.11795c-0.22915,0.25645-0.39624,0.44341-0.59147,0.66191
			c-0.67751-0.82739-1.32625-1.59469-1.94411-2.38609c-0.26063-0.33385-0.49572-0.54749-0.95683-0.35231
			c-0.14086,0.05962-0.43282-0.02337-0.5414-0.14389c-0.27753-0.308-0.49075-0.6739-0.81344-1.13672
			c0.45072,0.094,0.73966,0.15426,1.15743,0.24138c-0.65823-0.825-1.23598-1.54916-1.87344-2.34811
			c0.49892-0.12141,0.91356-0.22228,1.32814-0.32316c0.03481-0.07182,0.06963-0.14364,0.10439-0.21547
			c-0.30679-0.18738-0.61359-0.37476-0.92751-0.56647c0.24152-0.21722,0.35654-0.32064,0.49834-0.44817
			c-0.16824-0.13957-0.32229-0.22553-0.41905-0.3545c-0.58369-0.77762-1.67913-0.95984-2.0706-2.07192
			c-0.19598-0.5568-1.18798-0.83884-1.42505-1.62001c-0.00967-0.03188-0.08133-0.04478-0.12395-0.06685
			c-0.86931-0.45014-1.73862-0.90034-2.79486-1.44732c0.13506,0.27594,0.17493,0.36064,0.21751,0.44393
			c0.95782,1.87262,1.92003,3.74303,2.86748,5.62088c0.09251,0.18336,0.12827,0.41179,0.13235,0.62043
			c0.01529,0.78155-0.02608,1.58088,1.0284,1.75176c0.05577,0.00903,0.11353,0.08939,0.14542,0.14973
			c0.38415,0.72711,0.76358,1.45671,1.20452,2.30109c-0.43221-0.17971-0.70283-0.29219-1.10634-0.45997
			c0.20046,0.43443,0.3345,0.72488,0.46738,1.01283c0.30964-0.07307,0.53764-0.12688,0.82536-0.19481
			c0.40298,0.77889,0.78796,1.5457,1.1983,2.29869c0.09037,0.16583,0.24684,0.3405,0.41467,0.40962
			c0.32117,0.1323,1.50494,1.79403,1.4458,2.1241c-0.01611,0.08971-0.06562,0.19171-0.13253,0.25124
			c-0.69424,0.6174-0.45925,1.23149-0.04581,1.88882c0.29937,0.47601,0.43292,1.10015,1.17572,1.07351
			c1.0429-0.03741,1.685,0.49907,2.0677,1.42223c0.05451,0.13142,0.18816,0.23971,0.21237,0.37203
			c0.05588,0.30527,0.13419,0.63113,0.07978,0.92582c-0.07211,0.3905-0.2621,0.7592-0.4444,1.25389
			c-0.4594-0.75528-0.95803-1.38859-1.25546-2.10537c-0.51847-1.24955-1.54455-1.31046-2.72124-1.36242
			c0.6228,1.21726,1.21302,2.37087,1.85407,3.62374c-1.02818-0.05054-1.75159-0.19557-2.1381-1.16945
			c-0.43418-1.09408-0.86667-2.31917-2.65238-1.98116c0.33885-0.49027,0.59927-0.77719,0.74427-1.11382
			c0.07533-0.1748,0.02177-0.56462-0.10292-0.63824c-0.51779-0.30575-1.08489-0.52807-1.82182-0.86761
			c0.87971,2.0578,1.73265,3.87838,2.43202,5.75615c0.40205,1.07947,0.98394,1.68941,2.1597,1.80384
			c0.8102,0.07883,1.0414,0.59795,0.76587,1.39515c-0.28706,0.83051-0.5858,1.65701-0.90072,2.54527
			c0.53439,0.11308,1.02213,0.21399,1.5088,0.31972c1.08331,0.23541,1.08311,0.2364,1.18036,0.67809
			c-0.73067,0.05468-1.45943,0.10923-2.26434,0.16946c0.21309,0.57443,0.38949,1.04998,0.58004,1.56357
			c0.57416-0.34955,1.04508-0.69078,1.56345-0.92847c0.25324-0.11612,0.63661-0.13845,0.88882-0.03202
			c0.86063,0.36319,1.68862,0.80354,2.53005,1.21239c0.82701,0.40182,1.48314,1.52487,1.4344,2.4374
			c-0.05039,0.94392-0.08843,1.8885-0.13396,2.87811c1.45771-0.31227,0.40553-1.44354,0.8241-2.06683
			c0.10794,0.13435,0.21265,0.2647,0.40564,0.50484c0.05404-0.87897,0.09971-1.62225,0.15657-2.54729
			c0.95315,0.57905,1.76286,1.07095,2.50999,1.52485c0.48728-0.3185,0.86787,0.46632,1.25227,0.36655
			c0.60261-1.5864,1.76225-2.22418,3.35665-2.29836C99.57912,113.81191,99.00873,112.54832,98.12081,111.4441z M87.95747,105.849
			c0.3876-0.30457,0.74966-0.58908,1.16468-0.91519c0.37444,0.61403,0.71819,1.17774,1.06193,1.74146
			C89.42908,106.45679,88.51709,106.72836,87.95747,105.849z"/>
		<path id="f8" d="M88.67665,120.54345c0.14571-0.77274-0.18769-1.39557-0.53587-2.03139
			c-0.35697-0.65184-0.65459-1.33765-1.03544-1.97433c-0.172-0.28756-0.44486-0.56132-0.73756-0.72137
			c-0.85221-0.46606-1.73753-0.87154-2.75882-1.37405c0.40415-0.02898,0.6269-0.04492,0.91039-0.06526
			c-0.66172-1.51579-1.29597-2.96861-2.0014-4.58449c-0.30029,0.81973-0.52917,1.44448-0.8227,2.24579
			c-0.48601-1.10423-1.00342-2.01185-1.2825-2.98759c-0.29258-1.02274-0.90224-1.42265-1.87952-1.51862
			c-0.27858-0.02734-0.6941-0.16007-0.78278-0.36103c-0.37877-0.85825-0.65872-1.7601-0.99741-2.7097
			c0.36185,0.05207,0.61329,0.08826,1.0191,0.14664c-0.38046-0.7324-0.70049-1.34853-1.05476-2.03049
			c-0.33851,0.44604-0.61664,0.81252-1.04562,1.37775c-0.27883-2.08937-1.52294-3.07816-3.24535-3.5757
			c-0.52181-0.15073-0.7653-0.48023-0.87832-1.00224c-0.14384-0.66414-0.3665-1.31118-0.55518-1.96562
			c-0.04575,0.00928-0.09153,0.01856-0.13727,0.02785c0,0.31956,0,0.63909,0,1.10683
			c-0.16224-0.36877-0.26221-0.59602-0.362-0.82281c-0.27388,0.05191-0.4992,0.0946-0.76011,0.14406
			c-0.19057-0.92684-0.37222-1.81031-0.56284-2.73721c0.25946,0.04079,0.4441,0.06981,0.69045,0.10854
			c-0.14652-0.51662-0.2691-0.94894-0.38882-1.37112c-0.22304-0.01193-0.4055-0.02168-0.58797-0.03144
			c0.00334-0.07891,0.00665-0.15781,0.00999-0.23672c0.48004,0.0509,0.95937,0.12577,1.44046,0.1396
			c0.16674,0.0048,0.47782-0.13503,0.4819-0.22039c0.01529-0.31831-0.00306-0.67088-0.12986-0.95692
			c-0.31034-0.70027-0.68794-1.37071-1.03883-2.05299c-0.26273-0.5109-0.65785-0.99619-0.76196-1.5375
			c-0.22823-1.18668-1.08236-1.96205-1.65195-2.93618c-0.08092,0.24074-0.08305,0.4508-0.08064,0.6608
			c0.0647,5.52931,0.13939,11.05855,0.1908,16.58799c0.02429,2.61618-0.08857,5.23741,0.04205,7.84728
			c0.06912,1.38096-0.58521,2.30191-1.31292,3.28374c-0.17806,0.24021-0.34072,0.56263-0.34484,0.84964
			c-0.02928,2.03991-0.01557,4.08039-0.01557,6.12071c0,1.02924,0,2.05848,0,3.12661
			c-0.58322,0.11135-1.1158,0.21301-1.6496,0.31494c0,0.53096,0,1.00005,0,1.41805c1.01562,0,1.97919,0,2.96558,0
			c0-0.40894,0-0.71082,0-1.0309c0.51927-0.07114,1.00423-0.13755,1.50549-0.20621c0.05499,0.62924,0.10246,1.17217,0.15731,1.79981
			c1.02012-0.10777,1.98233-0.20945,2.97703-0.31453c-0.08375-0.70283-0.15661-1.31403-0.23566-1.97703
			c0.65915-0.10591,1.27811-0.20536,1.94176-0.31202c-0.05555,0.48255-0.09919,0.86121-0.14279,1.23988
			c0.03794,0.00761,0.07584,0.01524,0.11375,0.02286c0.34614-0.89124,0.69227-1.78248,1.03841-2.67371
			c0.06702-0.02097,0.134-0.04192,0.20099-0.06287c0.28928,0.85363,0.5786,1.70724,0.88823,2.6209
			c4.67112-0.66697,9.17243-2.04965,13.38471-4.19287C88.782,120.91695,88.64449,120.71421,88.67665,120.54345z M70.83773,103.03351
			L70.83773,103.03351L70.83773,103.03351c-0.10808-0.51269-0.21616-1.02537-0.32426-1.53806
			c0.10198-0.02313,0.20393-0.04626,0.30591-0.06938l0,0l0,0c0.05633,0.25532,0.11266,0.51064,0.16902,0.76597
			c0.05637,0.25531,0.1127,0.51064,0.16903,0.76597c-0.05328,0.01257-0.10654,0.02517-0.15985,0.03776
			C70.94427,103.00833,70.89105,103.02093,70.83773,103.03351z M73.91597,120.90051
			c-0.03403,0.00824-0.06803,0.01648-0.10204,0.02471c-0.03404,0.00824-0.06806,0.01647-0.10209,0.02471l0,0l0,0
			c-0.19223-0.56247-0.38446-1.12493-0.62891-1.84025l0,0l0,0c0.10588,0.02434,0.20281,0.04663,0.29449,0.06771
			c0.22908,0.05267,0.42496,0.09772,0.6441,0.14809c0.04385,0.01009,0.08862,0.02037,0.13474,0.03098
			C74.06773,119.92537,73.99185,120.41295,73.91597,120.90051z M77.70336,117.46358
			c-0.04983-0.20433-0.09906-0.40619-0.14825-0.60806c-0.04775-0.01476-0.09547-0.02951-0.14319-0.04427
			c-0.24767,0.69843-0.41074,1.4428-0.76028,2.08592c-0.77997,1.43529-0.71017,2.68212,0.56458,3.78275
			c0.04891,0.04223,0.06681,0.12036,0.13917,0.25776c-0.64329,0.10452-1.24706,0.22034-1.85596,0.29411
			c-0.30782,0.03731-0.93848-0.73162-0.91798-1.11835c0.04406-0.83046,0.11631-1.65942,0.18088-2.54144
			c0.26463,0.06268,0.64715,0.15327,1.16656,0.27628c-0.21288-0.76476-0.40166-1.44082-0.58911-2.11726
			c-0.07673-0.27689-0.14304-0.55685-0.22724-0.83142c-0.16747-0.54629-0.19199-1.27767-0.56274-1.57789
			c-0.32479-0.26299-1.04453-0.06467-1.5864-0.02469c-0.43239,0.03192-0.67388-0.06821-0.70922-0.55261
			c-0.02757-0.37759-0.14476-0.74863-0.23168-1.16868c0.45866,0,0.88113,0,1.3607,0
			c-0.01885-0.63424-0.10725-1.08661-0.77621-1.37305c-1.35902-0.58191-1.50159-1.43619-0.73917-2.68763
			c0.4782-0.78489,1.24464-1.02454,1.95061-1.41009c0.00771-0.01403,0.01512-0.02822,0.02286-0.04221l0.01896,0.01405
			c-0.00665-0.00496-0.01874-0.014-0.01814-0.01385c0.00553-0.00365,0.01038-0.00751,0.01586-0.01118
			c-0.1901-0.73333-0.02149-1.3497,0.3609-1.8952c0.00149-0.00209,0.00314-0.00413,0.00461-0.00622
			c0.03045-0.04324,0.06203-0.08611,0.0951-0.12848c0.00718-0.00919,0.01507-0.01814,0.02233-0.0273
			c0.02798-0.03513,0.05612-0.07017,0.0858-0.10472c0.01796-0.02095,0.0372-0.04147,0.05577-0.06223
			c0.02014-0.02251,0.0397-0.04523,0.06055-0.06754c0.04012-0.04295,0.0815-0.08546,0.12402-0.12762v0.00001v-0.00001
			c0.00562,0.00662,0.00977,0.01363,0.01524,0.02028c0.03133,0.03827,0.06136,0.07693,0.08744,0.11662
			c0.01385,0.0211,0.0243,0.04301,0.03667,0.06448c0.01495,0.02593,0.03147,0.0515,0.04427,0.07793
			c0.01315,0.02716,0.02264,0.05511,0.03355,0.08276c0.00851,0.0215,0.01885,0.04261,0.02599,0.06436
			c0.01044,0.0319,0.01712,0.06446,0.02471,0.09687c0.00421,0.01811,0.01035,0.03591,0.01368,0.05417
			c0.00651,0.03551,0.00917,0.07156,0.01231,0.10754c0.00138,0.01562,0.0045,0.031,0.00524,0.0467
			c0.00182,0.03928-0.00014,0.07899-0.00225,0.11868c-0.00067,0.01265,0.00025,0.02518-0.00081,0.0379
			c-0.00352,0.04172-0.01072,0.08368-0.01846,0.1257c-0.00204,0.0109-0.00263,0.02171-0.00491,0.03263
			c-0.009,0.0429-0.0217,0.08593-0.0351,0.12895c-0.00317,0.01013-0.005,0.02023-0.00837,0.03035
			c-0.01456,0.04343-0.03267,0.08682-0.05158,0.13022c-0.00426,0.00976-0.00729,0.01952-0.01175,0.02927
			c-0.01969,0.04285-0.04289,0.08556-0.06676,0.12823c-0.00575,0.01025-0.01022,0.02055-0.0162,0.03077
			c-0.02402,0.04099-0.05145,0.08172-0.07929,0.12238c-0.00808,0.01178-0.01484,0.02368-0.02321,0.03544
			c-0.02728,0.03815-0.05791,0.07588-0.08857,0.11359c-0.01144,0.01404-0.02141,0.02826-0.03327,0.04222
			c-0.02928,0.03445-0.06181,0.06834-0.0939,0.10231c-0.01597,0.0169-0.03046,0.03405-0.04707,0.0508
			c-0.03028,0.03044-0.06355,0.0602-0.09605,0.09017c-0.02141,0.01975-0.04146,0.0398-0.06382,0.05931
			c-0.02979,0.02592-0.06234,0.0511-0.09381,0.07658c-0.02831,0.02293-0.05538,0.04619-0.08507,0.06871
			c-0.02766,0.02101-0.05776,0.04122-0.08663,0.06187c-0.03364,0.02407-0.06586,0.04861-0.1011,0.07217
			c0.0024,0.00927,0.00391,0.01824,0.00645,0.02754v0.00001c-0.01446,0.00807-0.02912,0.01569-0.04365,0.02363
			c-0.22781,0.41154-0.43734,0.83415-0.6889,1.23006c-0.42767,0.67308-0.33833,1.08999,0.35128,1.43211
			c0.34346,0.17039,0.72756,0.28534,1.02518,0.51402c0.27381,0.21039,0.5153,0.51093,0.66675,0.82244
			c0.30827,0.63415,0.52962,1.31026,0.82882,1.94941c0.05284,0.11284,0.31052,0.18362,0.47258,0.18182
			c0.57373-0.00632,1.14698-0.0526,1.71447-0.0834C79.06004,116.38826,79.19598,116.98243,77.70336,117.46358z M81.21908,115.4274
			L81.21908,115.4274L81.21908,115.4274c-0.04562-0.12044-0.09008-0.23789-0.13467-0.35565
			c-0.0892-0.23552-0.17886-0.47224-0.2789-0.73644c-0.05007-0.13208-0.10268-0.27106-0.15915-0.42017l0,0l0,0
			c0.38876,0.0976,0.73742,0.18512,1.08221,0.27169c0.17237,0.04329,0.34381,0.08633,0.51885,0.13029
			c0.175,0.04395,0.35359,0.08878,0.54031,0.13566C82.22489,114.80248,81.76476,115.08836,81.21908,115.4274z"/>
		<path id="f7_1_" d="M109.31366,102.14206c0.75627,0,1.40497,0,2.05365,0c-0.60089-0.59373-1.30294-0.9796-1.85772-1.5174
			c-1.16207-1.12648-2.27938-1.2429-3.47198-0.09618c-0.08399,0.08077-0.19759,0.14883-0.30911,0.17803
			c-0.12515,0.0328-0.31,0.07283-0.38921,0.00974c-0.84467-0.67277-1.67351-1.36539-2.50671-2.05256
			c0.02652-0.0409,0.05302-0.0818,0.07954-0.12271c0.30208,0.12299,0.60415,0.24598,1.0991,0.44749
			c-3.04301-2.74355-6.37666-4.81875-8.91536-7.80461c-0.28687-0.33739-0.68575-0.57959-1.03268-0.86594
			c0.95235,0.14114,1.81349,0.422,2.68091,0.68208c0.13267,0.03979,0.29409-0.01624,0.65721-0.04495
			c0.87544,0.71268,1.94894,1.59574,3.03501,2.46305c0.21722,0.17349,0.4832,0.40809,0.72525,0.40638
			c0.87073-0.0061,1.74081-0.10127,2.80091-0.17619c-0.37275-0.27917-0.57349-0.4372-0.7819-0.5843
			c-1.50845-1.06469-3.00337-2.14959-4.53556-3.17906c-0.58916-0.39587-1.13036-0.80804-1.90097-1.02097
			c-1.04991-0.29012-1.95403-1.10771-2.99821-1.74657c0.52159-0.17394,0.92012-0.30687,1.49232-0.4977
			c-2.02277-1.04974-3.89428-2.02097-5.81772-3.01914c-0.02961,0.17983-0.03545,0.27171-0.06071,0.3579
			c-0.07288,0.24851-0.11857,0.68301-0.23812,0.7053c-0.31673,0.05902-0.67423-0.03277-1.00046-0.12046
			c-0.17405-0.0468-0.31719-0.20905-0.47389-0.31976c-0.90327-0.6383-0.90324-0.63835-1.92716,0.10835
			c0.23383,0.25872,0.4655,0.51502,0.73595,0.81422c-0.47757,0.10883-0.88549,0.20177-1.37086,0.31241
			c0.62894,0.78761,1.1991,1.50162,1.83852,2.30235c-0.42835-0.10201-0.7272-0.17319-1.02599-0.24436
			c0.54557,0.61552,0.57185,1.91612,1.86672,1.39204c0.02975-0.01205,0.09724,0.02509,0.12472,0.058
			c0.57283,0.68607,1.14243,1.37485,1.71265,2.06309c-0.04828,0.0818-0.09653,0.16361-0.14476,0.24541
			c-0.36129-0.04495-0.72255-0.08992-1.13859-0.14168c0.4044,0.56266,0.7935,1.10402,1.27328,1.77154
			c0.07212-0.43259,0.11397-0.68353,0.17307-1.03798c0.34621,0.18444,0.7262,0.26733,0.89674,0.50224
			c0.37106,0.51121,0.86741,0.71629,1.4343,0.86317c0.44038,0.11409,0.90894,0.19928,1.2939,0.42085
			c0.28658,0.16492,0.49216,0.50777,0.67276,0.80808c0.15376,0.25568,0.14965,0.62662,0.33752,0.83801
			c0.9198,1.03483,1.8805,2.03331,2.82605,3.04389c-0.33085,0.39784-0.56597,0.27625-0.84189-0.02284
			c-1.11643-1.21027-2.25073-2.40402-3.45947-3.69008c-0.10883,0.74242-0.47272,1.06692-1.39945,0.96813
			c0.93939,0.6403,0.68683,1.24069,0.40735,1.84507c-0.0501,0.10839-0.08368,0.22459-0.12266,0.33794
			c-0.23045,0.67003-0.093,0.90275,0.62347,1.03602c0.54227,0.10088,1.09424,0.16147,1.62632,0.29987
			c0.27774,0.07224,0.59523,0.21342,0.77022,0.42597c2.57657,3.12966,5.13722,6.27253,7.67832,9.43101
			c0.13168,0.16367,0.14986,0.54083,0.05594,0.74136c-0.30411,0.64957-0.69871,1.25615-1.02725,1.89531
			c-0.08414,0.1637-0.13657,0.43206-0.05927,0.57344c0.21427,0.39189,0.50462,0.74219,0.79515,1.15162
			c0.39568-0.29948,0.70926-0.60596,1.0805-0.80467c1.04652-0.56008,1.56408-1.33327,1.20181-2.54873
			c-0.05334-0.17905-0.06477-0.38893-0.02881-0.57136c0.03992-0.2023,0.12107-0.51904,0.24773-0.55363
			c0.20387-0.05569,0.51477,0.01344,0.67919,0.15093c0.18724,0.1566,0.26336,0.44604,0.39754,0.69593
			c0.79631-0.78528,1.2769-1.50735,2.28719-1.28154c-0.10672-0.37045-0.17603-0.61105-0.27581-0.9575
			c0.77005,0.37302,1.19428,0.02077,1.58824-0.49718c0.34775-0.45723,0.7307-0.89297,1.13865-1.29734
			c0.29744-0.29479,0.27589-0.53358,0.08725-0.87672C110.21783,103.96017,109.80301,103.10216,109.31366,102.14206z
			 M108.19149,103.73998c-0.34926-0.485-0.69849-0.97002-1.13862-1.58123c0.45552,0,0.75549,0,1.10788,0
			c0.05991,0.52843,0.11649,1.02725,0.17307,1.52607C108.2864,103.70319,108.23892,103.72159,108.19149,103.73998z"/>
		<path id="f6" d="M113.52927,78.94064c-0.41956-0.04121-0.83911-0.0824-1.36861-0.13438
			c0.05123,0.67664,0.09883,1.30575,0.15141,2.00021c-3.45777-0.94566-6.62644-2.66518-10.14231-3.2128
			c-0.02005,0.0664-0.04012,0.13279-0.06018,0.1992c1.09161,0.31322,2.18321,0.62645,3.46684,0.99477
			c-0.61033,0.2116-1.04333,0.36173-1.66022,0.57563c1.60955,0.2177,1.39933,1.5125,1.93807,2.45758
			c-0.68311-0.20908-1.22419-0.3747-1.76531-0.54034c-0.0265,0.0916-0.05301,0.18317-0.0795,0.27477
			c1.38624,0.49554,2.77185,0.99297,4.15892,1.48624c2.6187,0.93124,5.23823,1.86021,7.85751,2.78983
			c0.33436,0.11868,0.72147,0.17315,0.64243,0.69537c-0.01411,0.09319,0.12106,0.24963,0.22586,0.31318
			c0.46263,0.28037,0.93938,0.53748,1.57147,0.89335c-0.52562-1.46434-0.99058-2.7597-1.51572-4.22265
			c0.25745,0.20345,0.39935,0.29736,0.51971,0.41354c1.19111,1.14979,2.38776,2.29423,3.55679,3.46614
			c0.16324,0.16363,0.31853,0.51357,0.25381,0.69933c-0.92997,2.66928-2.17284,5.19215-3.68208,7.69405
			c-1.37518-0.82735-2.72778-1.64114-4.08039-2.45492c-0.0556,0.05905-0.11121,0.11808-0.16679,0.17711
			c0.9767,1.35749,1.95338,2.71498,2.98791,4.15279c-2.04585,0.04368-3.08691-1.63301-4.68579-2.36385
			c0,1.03359,0,2.05618,0,3.22675c-0.53432-0.42474-0.95444-0.75868-1.3661-1.08591c0.15857-0.91571,1.15476-1.49054,0.8912-2.6155
			c-0.81713,0.48661-1.58235,0.9423-2.42594,1.44464c-0.15245-0.28007-0.31222-0.51054-0.41039-0.76482
			c-0.40559-1.05051-0.80482-2.10384-1.18114-3.16511c-0.19199-0.54145-0.53102-0.7846-1.09527-0.6565
			c-0.72421,0.16443-1.52831-0.17742-2.20186,0.35349c-0.05619,0.04427-0.26818-0.05163-0.36919-0.13129
			c-0.54411-0.42904-1.07604-0.87354-1.73266-1.4114c0.41776-0.06067,0.70743-0.10274,1.11765-0.1623
			c-1.63976-1.16318-3.20779-2.27548-4.80724-3.41006c0.33313-0.92549,0.65392-1.81675,0.99793-2.77255
			c2.03802,1.05235,4.01059,2.07091,6.17845,3.19031c-0.20822-0.60267-0.35545-1.02882-0.56116-1.62423
			c1.98338,1.02542,3.81299,1.97133,5.68079,2.937c0.24245-0.58051,0.13126-0.86488-0.32442-1.0918
			c-1.30851-0.65157-2.59247-1.35251-3.90176-2.0024c-0.45589-0.2263-0.81373-0.48965-0.91296-1.01479
			c-0.09407-0.49794-0.4348-0.72279-0.87868-0.92972c-0.75315-0.35107-1.4598-0.80138-2.1896-1.20347
			c-0.20489-0.11289-0.42234-0.20295-0.66369-0.31756c-0.19566,0.43436-0.36905,0.81934-0.56854,1.26224
			c-1.16381-0.70731-2.28098-1.3863-3.51942-2.13898c0.48624-0.1729,0.84943-0.30204,1.39717-0.4968
			c-1.89598-0.95027-3.65267-1.83073-5.48765-2.75045c-0.015,0.31362-0.02673,0.55901-0.03821,0.7993
			c-0.60008,0.29152-1.11066,0.20741-1.65139-0.2191c-0.40231-0.31735-0.79395-0.91582-1.48808-0.46967
			c-0.06722,0.0432-0.29105-0.11152-0.41457-0.20928c-0.71454-0.56555-1.43928-1.12077-2.11995-1.72523
			c-0.24298-0.2158-0.34888-0.57849-0.56008-0.83955c-0.23016-0.2845-0.49965-0.54025-0.77171-0.78672
			c-0.1874-0.16977-0.39834-0.31956-0.61668-0.44775c-0.34881-0.20484-0.7125-0.38435-1.03088-0.67922
			c0.47893,0.15829,0.95786,0.31657,1.49547,0.49427c0.06888-0.14894,0.13869-0.2999,0.22813-0.49324
			c2.51593,0.70734,5.02905,1.40186,7.53317,2.12746c0.5379,0.15585,0.99731,0.15926,1.50064-0.12919
			c0.25623-0.14681,0.63956-0.18724,0.93671-0.12899c2.49199,0.48849,4.97731,1.01102,7.51826,1.53433
			c0.07397-0.16091,0.14696-0.31968,0.23729-0.51618c3.15665,0.87492,6.30663,1.74799,9.45659,2.62105
			C113.53201,78.91078,113.53062,78.9257,113.52927,78.94064z"/>
		<path id="f5" d="M125.0932,67.79061c0.41712,0.02809,0.87223-0.50432,1.30824-0.78213
			c0.00756-0.00484-0.00577-0.04251-0.01543-0.10323c-0.23369-0.05111-0.48128-0.10528-0.77966-0.17055
			c0.06818-1.05945,0.13449-2.08969,0.20657-3.2102c-0.11603-0.07961-0.37096-0.25451-0.68974-0.47322
			c0.20612,0,0.33391,0,0.51387,0c-0.06649-0.79935-0.13087-1.57332-0.19641-2.36126
			c0.20324-0.02464,0.35323-0.04283,0.63297-0.07673c-1.37488-0.74777-2.63991-1.43579-4.08363-2.221
			c1.53248-0.11522,2.83963-0.21349,4.21326-0.31676c-0.11275-1.04907-0.21578-2.00733-0.32071-2.98368
			c-0.35025,0.0356-0.58591,0.05954-0.85152,0.08653c-0.16779-0.9207-0.33331-1.82893-0.5037-2.76386
			c-0.25102,0.01391-0.44308,0.00056-0.62449,0.03839c-1.46345,0.30527-2.93871,0.56841-4.38127,0.95333
			c-0.75482,0.2014-1.20866-0.04742-1.69506-0.6568c2.25418-0.81717,4.56219-1.0965,6.86716-1.38915
			c-0.00974-0.08302-0.01945-0.16603-0.02914-0.24904c-1.07287,0.09758-2.14574,0.19518-3.21857,0.29276
			c-0.01073-0.06072-0.02141-0.12143-0.03215-0.18215c0.98312-0.44263,1.96627-0.88524,3.13513-1.41148
			c-2.56048,0.23558-4.73824,1.71318-7.32941,0.91207c0.34544-0.16883,0.59033-0.29913,0.84354-0.41052
			c1.77737-0.78185,3.55851-1.55522,5.33216-2.34539c0.20008-0.08914,0.36101-0.26614,0.54008-0.40243
			c-0.19378-0.11871-0.38756-0.23738-0.57948-0.35494c0.03611-0.07013,0.08882-0.17261,0.17592-0.3419
			c-2.35693,0.24211-4.62231,0.47597-6.88799,0.70678c-0.64425,0.06562-1.29526,0.08715-1.9324,0.19343
			c-0.58714,0.09793-1.15983,0.28251-1.73888,0.42894c0.00517,0.06523,0.01038,0.13047,0.01554,0.19571
			c1.15867-0.26776,1.60414,0.70219,2.44131,1.23634c-1.78162,0.50954-3.41118,0.97559-5.06654,1.44903
			c-0.08618-0.65487-0.15949-1.21212-0.24761-1.88153c-0.76347,0.46859-1.4369,0.64622-2.09284,0.0145
			c-0.08344-0.08038-0.36515,0.00259-0.53651,0.0627c-1.46947,0.51543-2.9346,1.04303-4.40104,1.56701
			c-0.12891,0.02001-0.25784,0.04002-0.38675,0.06002c-0.64652,0.26413-1.29305,0.52823-1.93958,0.79235
			c0.82483,0.04696,1.62442-0.02021,2.42323-0.09551c1.42938-0.13474,2.87697-0.17843,4.27986-0.45108
			c0.73781-0.14339,1.19092,0.08866,1.83484,0.46367c-0.49875,0.20337-0.86285,0.35184-1.25044,0.50989
			c0.12647,0.17231,0.22455,0.30594,0.3299,0.44942c-0.41752,0.13137-0.78046,0.24556-1.14337,0.35976
			c0.48777,0.08487,0.94409-0.02716,1.38905,0.00741c0.40887,0.03177,0.80547,0.22144,1.32543,0.37678
			c-1.12488,0.50324-2.03114,0.99374-2.99443,1.31131c-0.70454,0.23225-1.06313,0.53583-0.94143,1.30162
			c0.08116,0.51049-0.15292,0.78687-0.68207,0.87294c-0.41039,0.06675-0.80542,0.2276-1.21088,0.34769
			c0.21329,0.43517,0.39404,0.80386,0.61238,1.24937c-0.75919,0.16299-1.42927,0.30685-2.12957,0.45719
			c-0.17432-0.40202-0.33196-0.76546-0.50503-1.16447c-2.01048,0.56547-3.97389,1.11769-6.09807,1.71514
			c0.47385,0.21931,0.77318,0.35788,1.20403,0.55729c-0.76157,0.16579-1.37994,0.25982-1.97048,0.44336
			c-0.38636,0.12009-0.73241,0.36981-1.09657,0.56148c0.02261,0.07552,0.04522,0.15104,0.06783,0.22656
			c-1.78814-0.2968-3.64442-0.05279-5.402-0.59193c0.00471-0.06136,0.00946-0.12272,0.01417-0.18408
			c1.57966-0.11615,3.15932-0.23229,4.85151-0.35672c-0.25912-0.20314-0.40696-0.31908-0.52177-0.4091
			c0.7104-0.50399,1.9541,0.29907,2.29426-1.08267c0.86565-0.19021,1.77119-0.38919,2.7131-0.59616
			c-0.92142-0.84185-1.85582-0.46558-2.8154-0.20858c-0.04005-0.49389-0.07414-0.91483-0.10362-1.27795
			c-0.39652-0.06815-0.7486-0.12865-1.22054-0.20976c0.56657-0.50598,1.57861-0.52153,1.12888-1.50972
			c-3.03463,1.70048-6.05988,3.39572-9.06997,5.08245c0.6664-0.04454,1.40885-0.16983,1.9565,0.53048
			c-0.77188,0.05604-1.49724,0.1087-2.2226,0.16137c0.68144,0.23474,1.3662,0.32483,2.04863,0.4301
			c0.18245,0.02814,0.37434,0.07333,0.5327,0.16253c0.30296,0.17062,0.56654,0.41937,0.88036,0.56012
			c0.362,0.16239,0.76064,0.2431,1.14334,0.35929c-0.00761,0.04449-0.01524,0.08897-0.02283,0.13346
			c-0.86956,0.06813-1.73908,0.13625-2.60864,0.20438c-0.01344,0.07291-0.02686,0.14583-0.04033,0.21875
			c0.43999,0.12337,0.8737,0.31818,1.32106,0.35722c1.5771,0.13764,3.15971,0.21152,4.73797,0.33824
			c0.21952,0.01763,0.59993,0.18311,0.60858,0.30176c0.03688,0.50731,0.38222,0.47277,0.70823,0.51797
			c1.02762,0.14252,2.05495,0.28707,3.25764,0.45535c-0.47389,0.27186-0.77444,0.44428-1.21925,0.69949
			c2.26897,0.47498,4.38074,0.91705,6.59188,1.37994c-0.22997,0.08147-0.35063,0.12424-0.56629,0.20065
			c0.58099,0.24249,1.07469,0.44855,1.5713,0.65581c-0.34903,1.20419-1.18658,2.25043-0.33731,3.52526
			c-0.34283-0.0195-0.49076-0.02792-0.57047-0.03245c0.35377,0.80589,0.70261,1.60064,1.09076,2.48483
			c-1.10694-0.11842-2.33979-0.93823-2.80759,0.83791c1.06583,0.2985,2.13248,0.59724,3.25964,0.91293
			c-0.07151-0.33257-0.1212-0.56374-0.14392-0.66932c0.48552-0.04577,0.96288,0.01508,1.3471-0.14616
			c1.33244-0.55914,2.63811-0.56673,3.96246-0.02065c0.11009,0.0454,0.22925,0.06902,0.34464,0.10118
			c1.71088,0.47678,1.70065,0.47796,1.91613,2.25877c0.02612,0.21594,0.19328,0.53769,0.36551,0.5937
			c1.43033,0.4651,2.8789,0.87362,4.31707,1.31512c0.20078,0.06163,0.46431,0.16519,0.5443,0.32613
			c0.20999,0.42251,0.33466,0.88743,0.51102,1.38528c-1.25891,0.23201-2.45966,0.4533-3.66045,0.67461
			c-0.00163,0.05753-0.00327,0.11507-0.0049,0.1726c1.50012,0.49622,3.00025,0.99244,4.57397,1.51299c0-0.35036,0-0.60418,0-0.95082
			c1.23541,0.16553,2.41203,0.3232,3.59023,0.48107c0.53641-1.10455,0.5359-1.10395-0.35534-1.88972
			c-0.34276-0.30218-0.68256-0.6077-1.02371-0.91167c0.03094-0.07172,0.06189-0.14342,0.09283-0.21513
			c0.86868,0.10199,1.73732,0.20396,2.606,0.30595c0.00898-0.04164,0.01794-0.08328,0.0269-0.12493
			c-0.48858-0.21095-0.97714-0.42191-1.52804-0.65976c0.35358-0.21165,0.63354-0.37922,1.02255-0.61203
			c-2.42072-0.64638-4.82762-0.87495-6.99727-1.96571c0.93063,0.25186,1.86128,0.50372,2.92348,0.79117
			c-0.27592-0.78884-0.50679-1.44884-0.77708-2.22153c0.43523,0.17005,0.75349,0.2634,1.0421,0.41365
			c0.59793,0.31129,1.15367,0.72059,1.77594,0.96357c0.6647,0.25954,1.38374,0.38412,2.08423,0.5449
			c0.1922,0.04409,0.40304,0.00668,0.60532,0.00668c0.00956-0.05548,0.01908-0.11095,0.02865-0.16643
			c-0.22595-0.12577-0.4519-0.25154-0.69649-0.3877c0.2905-0.26517,0.54389-0.49648,0.86554-0.79013
			c-0.74849-0.22028-1.38398-0.40731-2.01942-0.59434c0.0078-0.05192,0.01562-0.10383,0.02342-0.15573
			c0.92291,0,1.84579,0,2.58723,0c0.05292-0.47218,0.0437-0.88985,0.15621-1.27163c0.15118-0.51294,0.01885-0.86573-0.37901-1.19287
			c-0.51519-0.42363-1.00149-0.88243-1.4607-1.29095c0.27436-0.49864,0.45728-0.83109,0.69463-1.26246
			c-1.71468-0.12672-3.33553-0.24648-4.95634-0.36627c0.47563-0.28725,0.94709-0.45376,1.42952-0.57751
			C122.22489,68.28682,123.56906,67.68797,125.0932,67.79061z M121.51323,59.57874c0.21083,0.04011,0.32684,0.05555,0.43932,0.08468
			c0.619,0.16042,1.23714,0.32421,1.86271,0.48872c-0.27314,0.41274-1.52952,0.61665-2.58336,0.40851
			C121.32192,60.24646,121.41027,59.93808,121.51323,59.57874z M113.256,54.63652c-1.35972,0.67413-1.66524-0.7982-2.58983-1.1413
			C111.93333,52.61871,112.93423,53.1006,113.256,54.63652z M107.76231,71.53681c0.43685-0.08871,0.87371-0.17742,1.31056-0.26611
			c0.00598-0.04849,0.01199-0.09698,0.01796-0.14546c-0.66769-0.10226-1.33543-0.2045-2.16476-0.3315
			c2.06303-0.59249,3.23161-0.73122,3.84628,0.67121C109.76075,72.09832,108.76256,71.73083,107.76231,71.53681z
			 M114.27782,71.28474c1.27259-0.18495,2.72634,0.20973,2.93439,0.82845C116.20719,71.82945,115.29414,71.57166,114.27782,71.28474
			z M117.92655,66.79024c-2.00739-0.08633-4.02123-0.02345-6.08688-0.02345c-0.08326-0.63725-0.15977-1.22265-0.24943-1.90887
			c-1.15716,0.06841-2.29606,0.13416-3.43472,0.20416c-0.28721,0.01764-0.5754,0.08296-0.86003,0.06784
			c-1.09998-0.05849-2.05698,0.071-2.21749,1.45c-0.00823,0.07043-0.15894,0.12427-0.42385,0.31757
			c0.38228-1.06101,0.67321-1.93095,1.00996-2.78279c0.25567-0.64675,0.63264-1.20173,0.75684-1.95311
			c0.12398-0.75002,0.70739-1.51254,1.28004-2.07567c0.59987-0.58989,1.40276-0.99249,2.34478-0.89035
			c0.32539,0.03529,0.66285-0.04064,1.02966-0.06839c0.04585,0.2445,0.09901,0.45155,0.12176,0.66191
			c0.13566,1.25447,0.1333,1.25484,1.41774,1.2549c2.5187,0.00011,5.03796,0.02825,7.55582-0.01878
			c0.67213-0.01256,1.06941,0.19351,1.33806,0.78247c0.15686,0.34388,0.37646,0.65911,0.66375,1.15168
			c-1.59202-0.32207-3.01579-0.6101-4.43958-0.89813c-0.02332,0.03881-0.04662,0.07762-0.06993,0.11644
			c0.49532,0.32397,1.02307,0.60808,1.47985,0.97947c1.32843,1.08008,2.80872,1.55689,4.52221,1.331
			c0.51801-0.06829,1.05264-0.01057,1.57966-0.01057c0.01512,0.06023,0.03027,0.12046,0.04543,0.18071
			c-0.2333,0.04772-0.46618,0.13422-0.69997,0.13673c-1.26718,0.01361-2.53453,0.00645-3.92747,0.00645
			c0.21077,0.40839,0.38632,0.74857,0.57972,1.12328C120.1551,66.40647,119.14046,66.84244,117.92655,66.79024z"/>
		<path id="f4" d="M120.80443,38.50259c-2.07657,0.50845-4.05515,0.99291-6.10397,1.49455
			c0.43122-1.21714,0.8204-2.24716,2.08667-2.70147c0.95331-0.34202,1.82237-0.91887,2.80273-1.42964
			c-0.87459-1.43154-1.69141-2.78402-2.5315-4.12186c-0.09307-0.14819-0.35622-0.33358-0.4775-0.29637
			c-0.72459,0.22237-1.47374,0.42657-2.13181,0.7878c-0.77287,0.42423-1.46156,1.00195-2.18613,1.51394
			c-1.4835,1.04826-2.96657,2.09712-4.47253,3.16177c0.22138,0.40284,0.41049,0.74701,0.68453,1.24576
			c-0.48161,0.04704-0.8756-0.0207-1.14751,0.13075c-1.08826,0.60612-2.14304,1.2734-3.19593,1.94057
			c-0.09853,0.06244-0.09683,0.28307-0.16438,0.50473c-0.54631,0.33141-1.17745,0.71427-1.84331,1.11819
			c-0.35278-0.41947-0.6881-0.81818-1.0599-1.26028c-0.24161,0.17528-0.45225,0.32812-0.66995,0.48608
			c0.74537,0.65037,1.77348,0.73969,2.28149,1.66502c-1.31907,0.80111-2.59803,1.57783-3.88464,2.35924
			c-0.30212-0.35855-0.54633-0.6484-0.82701-0.98147c-1.81606,1.27621-3.61091,2.53751-5.4483,3.82872
			c-0.07236-0.33234-0.12489-0.57359-0.19417-0.89172c-1.12384,0.913-2.18118,1.77198-3.27922,2.66402
			c0.17623,0.11645,0.31291,0.20677,0.49677,0.32828c-1.13706,0.81013-2.20969,1.57432-3.28227,2.33852
			c0.0372,0.07007,0.0744,0.14017,0.11164,0.21025c0.23781-0.09738,0.49266-0.16625,0.71059-0.29678
			c1.35758-0.81307,2.69662-1.65777,4.06637-2.44942c0.33234-0.1921,0.75704-0.22448,1.13925-0.3303
			c0.03807,0.08928,0.07616,0.17856,0.11424,0.26783c-0.39397,0.2505-0.78789,0.50101-1.36198,0.86608
			c1.03465,0.1286,1.62273,0.53948,1.40759,1.58997c2.64802-0.73769,5.15829-1.43702,7.68758-2.14162
			c0.17979,0.40715,0.33165,0.75117,0.49026,1.11039c0.71305-0.10782,1.39446-0.21085,2.0759-0.3139
			c0.12891-0.02,0.25784-0.04001,0.38675-0.06001c-0.26501-0.4415-0.53008-0.88299-0.80556-1.34195
			c0.32079-0.08965,0.61562-0.21323,0.92072-0.24905c0.72153-0.0847,1.05789-0.44975,0.96008-1.18081
			c-0.07877-0.58854,0.23288-0.8163,0.75455-1.00486c0.55165-0.19939,0.64325,0.22591,0.90408,0.46599
			c0.24484,0.22535,0.57023,0.62127,0.78297,0.57637c0.72293-0.15261,1.41172-0.46702,2.22192-0.75864
			c-0.45805-0.2803-0.77898-0.4767-1.098-0.67194c0.07209-0.35076,0.13724-0.66795,0.22298-1.08504
			c-0.53303,0.22391-0.96872,0.40695-1.44699,0.60787c-0.17015-0.1951-0.3344-0.38345-0.60857-0.69785
			c0.87811-0.04935,1.60487-0.0902,2.35425-0.13232c0.06336,0.25389,0.11231,0.45002,0.17824,0.71416
			c0.83816-0.29271,1.62442-0.56654,2.41019-0.84186c1.41488-0.49578,1.41479-0.49615,2.29988,0.72723
			c0.62132,0.85878,0.54301,0.7664,1.32639,0.10253c1.32713-1.12458,2.50783-2.50447,4.49002-2.6036
			c1.12849-0.05645,2.24251-0.4017,3.47708-0.63881C121.86425,41.32416,121.33785,39.92273,120.80443,38.50259z M105.81228,44.956
			c-0.19357-0.20138-0.40323-0.4195-0.68936-0.71716c0.65113-0.28839,1.24312-0.5506,1.91812-0.84958
			C106.86163,44.17296,106.71595,44.85926,105.81228,44.956z M107.42233,42.1427c0.22233-0.57,0.40134-1.0289,0.58039-1.48783
			c0.08063,0.01666,0.16126,0.03334,0.24191,0.04999c0.09248,0.24078,0.18496,0.48154,0.29688,0.77295
			C108.19941,41.68105,107.87652,41.87288,107.42233,42.1427z"/>
		<path id="f3_1_" d="M113.70816,28.22286c-1.11012,0.41825-2.23937,0.78575-3.36094,1.17357
			c-0.01446-0.03456-0.02892-0.06911-0.04335-0.10366c0.64438-0.46002,1.28873-0.92003,1.93311-1.38004
			c-0.02281-0.04049-0.0456-0.08096-0.06843-0.12146c-0.63094,0.16398-1.26192,0.32796-2.03634,0.52922
			c0.93904-1.13878,1.77457-2.15202,2.61864-3.17566c-0.16016-0.22745-0.27937-0.43621-0.43577-0.61186
			c-0.65127-0.73158-1.20064-1.63362-1.99968-2.13461c-1.09688-0.68773-2.24746-1.27463-3.11156-2.26189
			c-0.45982-0.52539-0.86021-0.35934-1.34467-0.04066c0.22862,0.19524,0.4109,0.35094,0.66152,0.56496
			c-1.52606,0.251-3.32377-0.37376-3.9603,1.64646c1.32056-0.10441,2.47141-1.24015,4.037-0.70787
			c-1.90674,2.04758-3.74484,4.02147-5.72244,6.14516c1.25272-0.26471,2.29493-0.48495,3.33166-0.704
			c0.16304,0.61737,0.24592,0.21416-1.26834,1.87408c-1.00377,1.10035-2.13265,0.59495-3.13754,0.68605
			c0.09905-0.50834,0.22265-0.97265,0.27328-1.44478c0.06649-0.61946,0.05231-1.24767,0.12088-1.86678
			c0.02644-0.23874,0.11909-0.56231,0.2936-0.67736c1.0358-0.68297,1.23378-1.60082,0.91672-2.73171
			c-0.09557-0.34076-0.08611-0.71349-0.1031-1.07259c-0.00742-0.15732-0.01899-0.37534,0.07141-0.46642
			c0.54645-0.55041,0.95361-1.24359,1.80688-1.46342c0.95747-0.24668,1.88229-0.62007,2.82134-0.93833
			c-0.02427-0.08865-0.04852-0.17731-0.07278-0.26595c-0.99992-0.1381-1.78052,0.68358-2.72043,0.80799
			c0.0282-0.0621,0.05643-0.1242,0.08463-0.1863c-0.42996-0.15748-0.85995-0.31497-1.41365-0.51776
			c0.27795-0.89309,0.55999-1.79931,0.89082-2.86234c-0.07461-0.01861-0.31783-0.08521-0.56389-0.13855
			c-0.15763-0.03416-0.38544,0.01057-0.46867-0.08189c-0.50188-0.55768-0.97108-1.14475-1.54813-1.83854
			c-0.00622-0.00071-0.21983-0.02504-0.32021-0.03648c-0.1454,0.39106-0.20693,0.74916-0.3922,1.0238
			c-1.24611,1.84718-2.51068,3.68207-3.78464,5.51021c-1.18768,1.70432-2.39441,3.39535-3.61716,5.12682
			c-1.03644-0.82845-2.01912-1.61391-3.04269-2.43207c-0.29565,0.53748-0.55405,1.00733-0.88615,1.61113
			c-0.26878-0.33943-0.48327-0.61029-0.72807-0.91943c-0.35437,0.63751-0.61745,1.2339-0.99491,1.74594
			c-0.24544,0.3329-1.49721,0.33905-1.7794,0.08869c-0.29015,0.65895-0.57739,1.31129-0.87701,1.99175
			c-0.43369-0.25213-0.832-0.48368-1.23031-0.71523c-0.04793,0.05546-0.09589,0.11093-0.14381,0.16639
			c0.11132,0.12961,0.19915,0.29848,0.33825,0.38169c0.47285,0.28288,0.94814,0.57196,1.45244,0.78924
			c0.48151,0.20749,0.73568,0.46961,0.45915,1.01211c0.462,0.0875,0.85873,0.16264,1.29149,0.2446
			c-0.48238,0.83534,0.5298,1.07344,0.60269,1.68499c-0.6555,0.94059-1.31356,1.88481-1.97157,2.82901
			c0.04255,0.06033,0.08508,0.12064,0.12768,0.18096c0.49274-0.11821,1.20391-0.07251,1.43824-0.3847
			c0.77444-1.03173,1.95308-1.09553,2.91051-1.56029c0.67617,0.80767,0.27842,1.42798-0.19884,2.07512
			c0.78162-0.27643,1.56322-0.55286,2.43948-0.86275c-0.14687-0.29329-0.27082-0.54076-0.34135-0.68167
			c0.76786-0.92396,1.46215-1.80773,2.20843-2.64518c0.95775-1.07481,1.95284-2.11659,2.94458-3.16051
			c0.11945-0.12577,0.31615-0.24525,0.4805-0.25006c0.8512-0.02489,1.70353-0.01156,2.55551-0.01156
			c0.01758,0.06843,0.03519,0.13685,0.05282,0.20528c-1.86346,2.00239-3.72691,4.0048-5.66702,6.08957
			c0.44365,0.08382,0.75423,0.10627,1.03937,0.20348c0.72364,0.24673,1.25254,0.02267,1.72252-0.55435
			c0.85563-1.05058,2.18033-0.9311,3.33109-1.28042c-0.67359,0.7301-1.39928,1.38465-2.08785,2.07615
			c-0.2347,0.2357-0.37616,0.56427-0.54237,0.82266c-1.49194,0.25921-1.95002,1.92802-3.23186,2.54898
			c-0.34791-0.90454-0.68812-1.78915-1.06921-2.78003c-0.77534,0.9525-1.49854,1.80873-2.18208,2.69551
			c-0.29453,0.38208-0.55884,0.51859-1.01827,0.26456c-0.16772-0.09274-0.5652-0.07929-0.65173,0.03791
			c-0.97878,1.3256-1.91746,2.68077-2.91987,4.10316c0.35117,0.02282,0.59336,0.03856,0.93584,0.06081
			c-0.8101,0.99509-1.57459,1.91036-2.30487,2.85216c-0.13885,0.17913-0.14223,0.46334-0.20813,0.69905
			c0.06567,0.02803,0.13141,0.05606,0.19711,0.08408c-0.12717,0.1633-0.25439,0.32661-0.41379,0.53125
			c2.17542,0.03304,3.34304-1.64296,4.90006-2.71445c0.06539,0.30752,0.1161,0.54585,0.18386,0.86434
			c1.13517-0.80461,2.19418-1.58531,3.28842-2.313c0.34143-0.22704,0.78893-0.46084,1.16914-0.43328
			c1.37024,0.09932,2.49603-0.40524,3.56895-1.16984c0.52585-0.37475,1.11724-0.65667,1.6503-1.02237
			c0.69003-0.47336,1.41222-0.78512,2.27084-0.75911c0.21871,0.00663,0.46259-0.1101,0.66024-0.2282
			c1.39956-0.83638,2.79282-1.68341,4.17986-2.5404c0.16782-0.10368,0.34027-0.2631,0.41818-0.43789
			c0.32097-0.71979,0.59966-1.45833,0.91035-2.18291c0.06139-0.14318,0.16942-0.30294,0.30003-0.37415
			c1.17311-0.63963,2.34346-1.28658,3.53984-1.88056c1.10592-0.54905,2.24282-1.03568,3.3885-1.56007
			C114.37691,28.16735,114.14697,28.05754,113.70816,28.22286z M98.50774,36.86198c0.80688-0.33259,1.24288-1.29453,2.32773-1.07164
			C99.72555,36.87275,99.03401,37.21579,98.50774,36.86198z"/>
		<path id="f2" d="M97.19566,13.56973c-0.03678-0.62443-0.06843-1.16192-0.10187-1.72941
			c-0.16034,0.07426-0.26076,0.12079-0.37652,0.17441c-0.00748-0.16548-0.01444-0.31993-0.02141-0.47437
			c-0.06054-0.04613-0.12109-0.09227-0.18167-0.13842c-0.05078,0.18789-0.10152,0.37579-0.15228,0.56368
			c-0.15527-0.2061-0.16449-0.27518-0.17146-0.34448c-0.02444-0.24265-0.04813-0.48539-0.07208-0.72809
			c-0.22828,0.0984-0.479,0.16381-0.68066,0.30128c-0.644,0.43904-1.26971,0.90483-1.95924,1.40111
			c-0.2532-0.66154-0.47578-1.24308-0.74385-1.94344c-0.33481,0.62008-0.59156,1.09564-0.89829,1.66366
			c-0.26656-0.7367-0.43176-1.37102-0.71836-1.94466c-0.45531-0.91128-0.51073-1.76147,0.11723-2.60525
			c0.01659-0.0223-0.02208-0.08574-0.06618-0.23691c-1.7067-0.73928-3.47753-1.50633-5.43163-2.35276
			c-0.06404,0.68255-0.11171,1.1908-0.16892,1.80069c-0.9122,0.31914-1.96663,0.70213-3.03139,1.05355
			c-0.4222,0.13934-0.65662,0.35287-0.77663,0.81446c-0.4762,1.83173-1.00519,3.64979-1.51736,5.47214
			c-0.36477,1.29795-0.73393,2.59467-1.10114,3.89194c-0.07581-0.0071-0.15158-0.01418-0.22739-0.02126
			c0-2.05708,0-4.11415,0-6.17121c-0.06259-0.00304-0.12521-0.00609-0.18783-0.00911
			c-0.06984,0.22231-0.14575,0.44289-0.20856,0.66716c-0.72382,2.58418-1.43139,5.17308-2.18884,7.74731
			c-0.08035,0.27295-0.41891,0.52589-0.69904,0.65999c-0.13586,0.06503-0.42138-0.15326-0.62458-0.26887
			c-0.12683-0.07218-0.22655-0.19209-0.35784-0.30767c-0.62627,1.93774-0.62627,1.93774,0.80389,2.97245
			c-0.0287,0.21626-0.05837,0.43997-0.09617,0.72496c0.52272-0.09476,0.98271-0.17813,1.59622-0.28934
			c-0.15486,0.63577-0.16073,1.24866-0.45658,1.64518c-0.16737,0.22433-0.81109,0.09328-1.29854,0.12623
			c-0.39127,1.85389-0.78805,3.73371-1.18483,5.61356c-0.06469-0.00617-0.12936-0.01235-0.19402-0.01852
			c0-1.24087,0-2.48174,0-3.72263c-0.06405-0.00324-0.12807-0.00647-0.19209-0.00972
			c-0.29304,2.11862-0.58608,4.23724-0.88686,6.41194c0.28597-0.04793,0.49493-0.08294,0.74333-0.12457
			c-0.10461,0.54758-0.19343,1.01268-0.28889,1.51237c0.20689,0.0466,0.37975,0.08554,0.58003,0.13066
			c-0.16674,0.65518-0.32289,1.26889-0.47923,1.88317c0.35352,0.15976,0.62758,0.28362,0.93229,0.42132
			c0.29919-0.68498,0.57589-1.34687,0.87997-1.99591c0.08393-0.17912,0.25762-0.46165,0.37645-0.45491
			c0.67836,0.03849,0.81548-0.4772,1.04195-0.91476c0.30848-0.59598,0.59973-1.20182,0.93373-1.78309
			c0.12099-0.21055,0.31267-0.4459,0.5261-0.52605c0.73626-0.27646,1.4984-0.48341,2.24591-0.73114
			c0.17072-0.05657,0.37659-0.13084,0.4742-0.2643c0.66317-0.90693,1.30167-1.83188,1.93206-2.72811
			c-0.19508-0.61756-1.15993-0.90955-0.55954-1.73029c-0.25961-0.14146-0.45763-0.29371-0.6813-0.36254
			c-0.55206-0.16987-0.61703-0.61181-0.4946-1.02826c0.05908-0.20086,0.41836-0.40668,0.66541-0.44134
			c0.70441-0.09882,1.12797-0.42723,1.42703-1.09295c0.4762-1.05999,1.06693-2.06853,1.63505-3.14786
			c1.04199,0.83305,2.02422,1.61828,3.04282,2.43262c1.13947-1.61625,2.2316-3.16535,3.44871-4.8917
			c-1.21729,0.39054-2.21923,0.71201-3.38264,1.08527c1.01981-1.67562,1.93857-3.18522,2.74708-4.51369
			c1.1964-0.1694,2.23251-0.3161,3.39972-0.48138c-1.3816,2.27977-2.70421,4.46224-4.03671,6.661
			c2.77988-0.19211,4.45803-1.72846,5.43157-4.17782c0.06216,0.01258,0.12434,0.02516,0.18653,0.03773
			c0.05766,0.21722,0.11536,0.43443,0.22648,0.85292c0.98309-1.34621,1.90621-2.57789,2.78383-3.84116
			c0.16368-0.23557,0.14494-0.59786,0.25099-1.09016C98.11934,13.01765,97.69897,13.2689,97.19566,13.56973z M80.47787,20.39463
			c-0.40772,1.01742-0.74474,2.06316-1.13511,3.16209c0.31951,0.05835,0.58674,0.10715,0.91144,0.16644
			c-0.19902,0.45621-0.38679,0.88653-0.60209,1.38008c-0.42602-0.23101-0.79406-0.4306-1.24533-0.67531
			c0.94998-1.49298,0.6461-3.1214,0.61819-4.70682c-0.01347-0.76352,0.59151-0.82245,0.99136-1.14801
			C80.75877,19.09916,80.76112,19.68781,80.47787,20.39463z"/>
		<path id="f1_1_" d="M80.34232,5.12894c0.21698-0.32641,0.2886-0.43415,0.3814-0.57374
			c-0.38763-0.24252-1.36951,0.55591-1.10345-0.66567c-0.96974-0.23464-1.88811-0.45685-2.84568-0.68853
			c-0.18115,0.85553-0.39304,1.59699-0.48172,2.3529c-0.07774,0.66282-0.4741,0.8506-1.21591,1.02997
			c0.10807-1.0513,0.11161-2.01146,0.33155-2.91925c0.16251-0.67095-0.70848-0.73523-0.55932-1.29887
			c-0.02001,0.00767-0.04002,0.01534-0.09062,0.03471c-0.05657,0.15308-0.12057,0.32632-0.18948,0.51283
			c-0.67202-0.10467-1.32796-0.20686-2.06733-0.32202c-0.21884,1.68248-0.42972,3.30392-0.64057,4.92488
			c-0.56618-0.50488-0.87128-1.08603-0.63572-1.88229C71.33308,5.27,71.343,4.87676,71.39226,4.49621
			c0.12792-0.98839,0.25317-1.97715,0.38637-3.01979c-1.04386-0.09928-1.98744-0.18905-2.98756-0.28416
			c-0.15854,2.25748-0.3109,4.42702-0.46238,6.5841c-0.81087,0.09723-1.39952-0.4808-1.34516-1.25255
			c0.10299-1.46149,0.20541-2.923,0.30809-4.38449c-0.05302-0.00909-0.10609-0.01819-0.15914-0.02727
			c-0.38998,1.03558-0.77998,2.07116-1.16995,3.10675c-0.03593-0.00732-0.07187-0.01462-0.10784-0.02192
			c-0.07654-1.19743-0.15314-2.39488-0.22968-3.5923c-0.3552,1.88432-0.55521,3.76486-0.78746,5.64141
			c-0.08475,0.68499-0.28907,1.356-0.36111,2.04154c-0.08035,0.76431,0.05549,1.57014-0.12887,2.30087
			c-0.4024,1.5949-0.04688,2.89048,1.13158,4.01931c0.21079,0.20189,0.34283,0.58525,0.34805,0.88762
			c0.07957,4.64367,0.1333,9.28778,0.1897,13.93183c0.00875,0.71987-0.00177,1.43995,0.00294,2.15989
			c0.00152,0.23015,0.02356,0.46016,0.03657,0.6965c1.4202-0.25196,1.4669-0.30366,1.62724-1.62273
			c0.03959-0.32559,0.10668-0.64783,0.1623-0.97865c0.32166-0.03114,0.57574-0.05573,0.85929-0.08319
			c0.42934-2.03426,0.85693-4.06045,1.28114-6.07049c1.2992,0.11527,1.29984,0.11544,1.63243-1.06799
			c0.07687-0.27338,0.14776-0.54844,0.22374-0.83152c-0.0962-0.07643-0.16811-0.13685-0.24335-0.19274
			c-0.32894-0.24427-0.65886-0.48723-0.98844-0.73067c0.39391-0.21851,0.76586-0.5101,1.18735-0.63697
			c0.52128-0.15689,0.77167-0.43019,0.91129-0.95514c0.60377-2.27014,1.24918-4.52923,1.88286-6.79138
			c0.22968-0.8199,0.46894-1.63711,0.70353-2.45457c0.82927,0.17413,1.56612,0.32887,2.3187,0.48691
			c0.12708-0.44726,0.28352-0.78721,0.31322-1.1379c0.1609-1.89744,1.18535-2.9457,3.04945-3.2413
			c0.5607-0.0889,1.0583-0.32563,1.1384-1.04279c0.42754,0.2027,0.80246,0.38045,1.21826,0.5776
			c0.13854-0.38265,0.24873-0.68699,0.37683-1.04075C82.6,5.19198,81.65749,4.48939,80.34232,5.12894z M67.76967,16.00517
			c-0.05978,0.01641-0.11959,0.0328-0.17941,0.0492c-0.38756-0.80961-1.42776-1.25682-1.27625-2.45282
			c0.55012-0.0587,1.03679-0.11062,1.62098-0.17294C67.87688,14.33463,67.82329,15.16991,67.76967,16.00517z M72.16852,7.97516
			c-0.12817-0.04316-0.19188-0.27737-0.28298-0.43094c-0.00988,0.00435-0.01983,0.00874-0.02972,0.01309
			c0,0,0.02289-0.02504,0.02303-0.025c0.00232,0.00372,0.0044,0.00808,0.00668,0.01191
			c0.57201-0.25233,1.14421-0.50473,1.73093-0.76356C73.58015,7.41822,72.69342,8.15198,72.16852,7.97516z"/>
	</g>
	<path id="Full" d="M63.40851,2.51473c0,41.14822,0,82.25225,0,123.52961c-22.73793-0.9068-40.63013-10.4325-52.67115-29.79831
		c-12.27283-19.73859-12.1109-44.41244,0.02405-64.23578C23.43068,11.31407,44.99221,2.30828,63.40851,2.51473z"/>
</g>
</svg>
