<?xml version="1.0" encoding="UTF-8"?><svg id="a" xmlns="http://www.w3.org/2000/svg" viewBox="0 0 159.3 127.9"><defs><style>.c{fill:#1acc6c;}</style></defs><path id="b" class="c" d="M159.2,118.9c0-2.1-1.8-3.9-3.9-3.9-11.9,0-23.7-1.5-34.8-5.3-5.9-2-11.7-5-16.6-9,10.3-8.9,19.1-19.4,25.3-31.6,3.1-6.2,5.6-13.2,4.7-20.3-1.4-10.3-9.9-16.3-19.9-16.9-16.2-1.3-30.3,8.1-37.2,22.5-3.4,7-4.9,14.9-4.4,22.7,.4,8.5,3.4,16.5,8.1,23.3-12.1,7.6-25.9,12.4-40,12.5-3.5,0-7.1-.2-10.5-.9-3.2-.7-6.4-2-8.7-4.3-4.7-4.9-4-12.1-2.4-18.6,3.9-14,12.7-26.5,22.5-37.2,9.4-10.1,23.1-21.4,37.2-24.9,4.4-1.1,7.6-4.8,8.3-9.3,.2-1.7,.4-3.4,.4-5.2s-.3-4.8-.6-6.9c-.6-3.4-3.7-5.8-7.2-5.5-2.8,.2-5.6,.7-8.3,1.4-17,4.6-31.3,16.6-42.6,29.6C14.3,47.7,.8,71.2,0,93.6c-.4,14.6,6.3,27.1,20.6,31.9,5,1.7,10.3,2.3,15.5,2.4,19.3,.2,38-6.4,54-16.8,3.3,2.8,7,5.2,10.9,7.1,15.8,8.1,33.8,9.7,51.2,9.5,.9,0,2,0,3.1,0,2.2,0,4.1-1.8,4-4v-4.8Zm-67.4-36.8c-2.8-12.2,3.4-27,15.9-30.6,2.1-.6,4.4-.9,6.6-.8,.5,0,1,.1,1.4,.2,.4,.1,.6,.2,.9,.5,.7,.7,.4,2.4,.3,3.7-.5,3.4-1.9,7.2-3.6,10.4-4.7,8.7-11.2,17-18.8,24-1.2-2.3-2.1-4.8-2.7-7.4Z"/></svg>