<svg
  version="1.0"
  xmlns="http://www.w3.org/2000/svg"
  viewBox="0 0 200.000000 200.000000"
  width="100%"
  height="100%"
  preserveAspectRatio="xMidYMid meet"
>
  <g
    transform="translate(0.000000,200.000000) scale(0.100000,-0.100000)"
    fill="#000000"
    stroke="none"
  >
    <path
      d="M923 1889 c-442 -40 -760 -546 -669 -1064 72 -409 383 -705 740 -705
  301 0 585 222 696 545 121 349 51 729 -180 988 -155 173 -362 256 -587 236z
  m183 -49 c130 -45 238 -152 318 -314 170 -345 140 -847 -68 -1133 -17 -23 -34
  -42 -37 -43 -5 0 -130 94 -189 143 -14 11 -119 94 -329 259 -47 38 -93 74
  -101 80 -14 13 -60 50 -115 92 -16 13 -52 41 -79 63 l-49 38 2 75 c7 239 98
  477 237 617 40 39 87 79 105 89 110 56 210 68 305 34z m-522 -980 c23 -19 69
  -55 100 -80 67 -52 330 -259 490 -387 l108 -87 -35 -31 c-20 -18 -62 -45 -94
  -61 -53 -26 -67 -29 -163 -29 -103 0 -106 1 -170 37 -106 61 -178 139 -244
  262 -65 122 -116 307 -116 424 l0 53 41 -33 c22 -18 60 -49 83 -68z"
    />
  </g>
</svg>
