<?xml version="1.0" standalone="no"?>
<!DOCTYPE svg PUBLIC "-//W3C//DTD SVG 20010904//EN"
 "http://www.w3.org/TR/2001/REC-SVG-20010904/DTD/svg10.dtd">
<svg version="1.0" xmlns="http://www.w3.org/2000/svg"
     width="100%"
     height="100%" viewBox="0 0 250.000000 250.000000"
 preserveAspectRatio="xMidYMid meet">

<g transform="translate(0.000000,250.000000) scale(0.100000,-0.100000)"
fill="#4075FF" stroke="none">
<path d="M1310 2302 l-31 -32 3 -199 c4 -240 2 -236 135 -276 215 -66 364
-220 418 -430 75 -296 -126 -622 -428 -694 -27 -7 -60 -19 -73 -28 -49 -31
-54 -58 -54 -258 l0 -187 31 -30 c30 -30 32 -31 102 -25 149 12 338 82 478
178 85 57 241 209 234 226 -2 8 0 11 5 8 14 -9 75 79 130 190 199 403 128 910
-173 1232 -33 35 -64 60 -70 56 -5 -3 -7 -1 -3 5 11 18 -141 128 -249 182
-118 58 -251 98 -352 107 -70 6 -72 5 -103 -25z"/>
<path d="M745 2202 c-101 -56 -219 -148 -209 -163 3 -5 -1 -6 -9 -3 -9 3 -43
-30 -95 -93 -201 -242 -293 -555 -252 -848 25 -175 85 -336 178 -475 64 -96
237 -274 259 -266 8 3 12 2 8 -3 -6 -11 130 -98 174 -111 40 -11 85 4 105 35
14 21 16 134 16 962 l1 938 -31 28 c-39 35 -80 35 -145 -1z"/>
</g>
</svg>
