<svg id="svg" version="1.1" xmlns="http://www.w3.org/2000/svg" xmlns:xlink="http://www.w3.org/1999/xlink"	width="100%" height="100%"  viewBox="0, 0, 400,400"><g id="svgg"><path id="path0" d="M255.600 94.037 C 254.830 94.233,252.870 94.573,251.244 94.794 C 249.619 95.014,248.089 95.353,247.844 95.548 C 247.600 95.742,246.500 96.179,245.400 96.520 C 241.934 97.591,239.821 98.443,239.169 99.031 C 238.821 99.344,238.334 99.600,238.086 99.600 C 237.696 99.600,236.843 100.105,234.000 102.019 C 233.670 102.241,232.925 102.732,232.344 103.111 C 230.154 104.540,226.626 107.735,223.856 110.800 C 222.342 112.474,219.104 117.158,218.186 119.000 C 217.857 119.660,217.427 120.470,217.229 120.800 C 216.113 122.667,214.140 127.674,213.604 130.000 C 213.427 130.770,212.954 132.832,212.554 134.582 C 212.153 136.332,211.820 138.672,211.813 139.782 L 211.800 141.800 236.000 141.800 L 260.200 141.800 260.311 118.600 C 260.444 90.549,260.857 92.702,255.600 94.037 M149.200 119.154 C 149.200 139.540,149.266 141.940,149.833 142.157 C 150.786 142.523,197.323 142.437,197.903 142.068 C 198.300 141.816,198.385 136.969,198.303 119.174 L 198.200 96.600 173.700 96.497 L 149.200 96.394 149.200 119.154 M93.478 149.855 C 93.325 150.008,93.200 160.903,93.200 174.067 L 93.200 198.000 98.403 198.000 L 103.606 198.000 103.503 173.900 L 103.400 149.800 98.578 149.688 C 95.926 149.627,93.631 149.702,93.478 149.855 M112.228 150.501 C 111.664 151.362,111.605 154.043,111.697 174.635 L 111.800 197.800 117.108 197.800 L 122.415 197.800 122.423 174.048 C 122.427 160.985,122.319 150.185,122.183 150.048 C 121.308 149.170,112.848 149.555,112.228 150.501 M131.059 150.335 C 130.452 151.006,130.403 153.120,130.497 174.435 L 130.600 197.800 136.100 197.911 L 141.600 198.023 141.600 174.225 C 141.600 146.525,142.313 149.600,135.888 149.600 C 132.355 149.600,131.623 149.711,131.059 150.335 M268.480 150.080 C 267.652 150.908,267.801 197.838,268.633 198.157 C 269.935 198.657,316.611 198.429,317.120 197.920 C 318.029 197.011,317.787 151.093,316.869 150.262 C 315.922 149.405,269.330 149.230,268.480 150.080 M111.800 206.597 C 109.290 207.043,107.366 207.732,105.600 208.820 C 105.270 209.024,104.460 209.479,103.800 209.832 C 101.213 211.218,96.666 216.462,94.801 220.211 L 93.015 223.800 93.012 230.400 C 93.009 236.470,93.081 237.135,93.905 238.684 C 94.397 239.610,94.800 240.561,94.800 240.798 C 94.800 241.601,98.828 247.142,100.317 248.388 C 101.133 249.070,102.063 249.847,102.385 250.114 C 108.729 255.382,121.794 256.304,128.800 251.979 C 129.130 251.775,130.065 251.248,130.878 250.807 C 134.792 248.686,139.648 242.092,140.777 237.366 C 141.891 232.699,142.073 231.254,141.854 228.800 C 141.274 222.284,136.812 213.739,132.774 211.406 C 132.387 211.183,131.236 210.415,130.215 209.700 C 129.195 208.985,128.139 208.400,127.869 208.400 C 127.599 208.400,126.981 208.122,126.497 207.783 C 124.347 206.277,116.962 205.682,111.800 206.597 M255.247 206.832 C 253.403 207.010,251.194 207.436,250.339 207.778 C 249.484 208.120,248.380 208.400,247.886 208.400 C 247.392 208.400,246.316 208.760,245.496 209.200 C 244.675 209.640,243.811 210.000,243.577 210.000 C 242.971 210.000,239.324 211.841,237.200 213.219 C 236.210 213.861,235.130 214.511,234.800 214.662 C 234.470 214.813,233.660 215.363,233.000 215.885 C 232.340 216.407,231.392 217.141,230.894 217.517 C 229.404 218.640,224.400 223.505,224.400 223.831 C 224.400 223.997,224.131 224.418,223.802 224.766 C 222.546 226.098,221.264 227.880,220.037 230.000 C 219.337 231.210,218.603 232.470,218.407 232.800 C 218.210 233.130,217.703 234.210,217.279 235.200 C 216.855 236.190,216.124 237.860,215.654 238.911 C 215.184 239.962,214.800 241.173,214.800 241.603 C 214.800 242.032,214.529 243.062,214.199 243.892 C 213.597 245.400,212.774 252.957,213.108 253.900 C 213.361 254.613,260.408 254.632,261.120 253.920 C 261.482 253.558,261.600 247.772,261.600 230.334 C 261.600 204.961,261.725 206.274,259.326 206.455 C 258.927 206.484,257.091 206.655,255.247 206.832 M214.862 262.525 C 214.523 262.934,219.647 268.247,237.913 286.425 L 261.400 309.800 261.600 286.600 C 261.792 264.354,261.769 263.371,261.056 262.700 C 260.067 261.770,215.628 261.602,214.862 262.525 M93.330 263.039 C 92.916 264.117,93.539 271.081,94.188 272.634 C 94.525 273.439,94.800 274.521,94.800 275.038 C 94.800 275.555,95.184 276.838,95.654 277.889 C 96.124 278.940,96.855 280.610,97.279 281.600 C 97.703 282.590,98.216 283.670,98.421 284.000 C 98.625 284.330,99.159 285.230,99.607 286.000 C 100.056 286.770,100.732 287.859,101.111 288.419 C 101.490 288.979,102.223 290.104,102.740 290.919 C 103.256 291.734,103.841 292.400,104.040 292.400 C 104.238 292.400,104.400 292.586,104.400 292.814 C 104.400 293.836,110.907 299.647,115.463 302.693 C 118.520 304.736,119.270 305.200,119.518 305.199 C 119.673 305.198,120.610 305.584,121.600 306.057 C 125.040 307.698,125.812 308.008,128.000 308.622 C 131.957 309.732,133.649 309.994,137.552 310.098 L 141.400 310.200 141.503 286.547 L 141.606 262.895 140.703 262.653 C 138.343 262.020,93.581 262.385,93.330 263.039 " stroke="none" fill="#418bd3" fill-rule="evenodd"></path><path id="path1" d="M267.610 93.774 C 266.866 95.732,267.065 141.229,267.823 142.311 L 268.445 143.200 293.009 143.200 L 317.572 143.200 318.027 142.349 C 318.843 140.825,317.673 133.021,315.785 127.400 C 313.376 120.225,310.538 115.483,304.206 108.054 C 297.682 100.398,283.001 93.470,272.110 92.907 L 268.020 92.696 267.610 93.774 M148.790 149.826 C 148.200 151.378,148.270 196.876,148.864 198.181 C 149.187 198.889,149.644 199.201,150.364 199.203 C 188.071 199.325,198.150 199.188,198.861 198.544 C 200.041 197.477,200.007 149.846,198.826 149.214 C 198.317 148.942,189.696 148.800,173.616 148.800 L 149.180 148.800 148.790 149.826 M286.753 206.163 C 265.079 212.628,261.749 241.574,281.421 252.508 C 296.876 261.098,316.260 251.534,318.816 234.056 C 321.452 216.028,304.149 200.975,286.753 206.163 M148.864 262.219 C 148.160 263.765,148.220 309.428,148.928 310.800 C 150.110 313.091,161.806 310.966,170.539 306.874 C 184.492 300.335,195.498 286.375,198.348 271.600 C 199.442 265.928,199.634 263.112,198.996 262.137 L 198.382 261.200 173.855 261.200 L 149.328 261.200 148.864 262.219 " stroke="none" fill="#efcf62" fill-rule="evenodd"></path><path id="path2" d="M92.800 95.718 L 91.800 96.224 91.697 118.977 C 91.602 139.723,91.652 141.794,92.259 142.465 C 93.215 143.521,141.753 143.621,142.157 142.567 C 142.291 142.219,142.400 131.595,142.400 118.957 L 142.400 95.980 141.374 95.590 C 139.728 94.964,94.052 95.084,92.800 95.718 M211.248 149.342 C 210.473 150.276,210.818 197.754,211.601 197.905 C 212.362 198.051,260.524 150.173,260.298 149.494 C 260.042 148.724,211.885 148.574,211.248 149.342 M162.900 199.500 C 169.225 199.562,179.575 199.562,185.900 199.500 C 192.225 199.438,187.050 199.387,174.400 199.387 C 161.750 199.387,156.575 199.438,162.900 199.500 M149.181 206.250 C 148.324 208.505,148.884 254.780,149.776 255.432 C 150.795 256.177,160.789 256.251,161.520 255.520 C 162.029 255.011,162.257 207.136,161.757 205.833 C 161.551 205.295,160.620 205.200,155.547 205.200 L 149.580 205.200 149.181 206.250 M168.206 205.590 C 167.529 206.685,168.003 254.996,168.695 255.511 C 170.132 256.579,180.082 255.989,180.683 254.800 C 181.316 253.547,181.435 207.871,180.810 206.226 L 180.420 205.200 174.434 205.200 C 170.978 205.200,168.345 205.365,168.206 205.590 M187.178 206.258 C 186.462 208.141,186.864 255.143,187.600 255.609 C 188.510 256.184,198.934 256.106,199.520 255.520 C 200.029 255.011,200.257 207.136,199.757 205.833 C 199.551 205.295,198.620 205.200,193.547 205.200 L 187.580 205.200 187.178 206.258 M269.046 261.811 C 268.203 262.654,268.043 310.683,268.880 311.520 C 269.670 312.310,318.134 312.203,318.793 311.409 C 319.556 310.489,318.679 302.600,317.323 298.200 C 311.353 278.817,295.457 264.843,276.200 262.048 C 269.948 261.140,269.724 261.133,269.046 261.811 " stroke="none" fill="#f7145b" fill-rule="evenodd"></path><path id="path3" d="M169.200 0.400 C 169.200 0.642,167.465 0.800,164.796 0.800 C 160.887 0.800,160.315 0.890,159.707 1.600 C 159.137 2.266,158.527 2.400,156.074 2.400 C 153.462 2.400,153.101 2.491,152.916 3.200 C 152.733 3.900,152.370 4.000,150.007 4.000 C 147.914 4.000,147.080 4.179,146.291 4.800 C 145.609 5.336,144.668 5.600,143.437 5.600 C 142.133 5.600,141.368 5.832,140.800 6.400 C 140.237 6.963,139.467 7.200,138.196 7.200 C 136.887 7.200,136.204 7.420,135.707 8.000 C 135.200 8.592,134.527 8.800,133.114 8.800 C 131.640 8.800,131.093 8.982,130.707 9.600 C 130.381 10.123,129.774 10.400,128.958 10.400 C 128.270 10.400,127.250 10.760,126.691 11.200 C 126.131 11.640,125.119 12.000,124.440 12.000 C 123.640 12.000,123.031 12.281,122.707 12.800 C 122.369 13.342,121.774 13.600,120.866 13.600 C 119.862 13.600,119.473 13.801,119.316 14.400 C 119.154 15.020,118.770 15.200,117.615 15.200 C 116.632 15.200,115.877 15.473,115.400 16.000 C 115.002 16.440,114.282 16.800,113.800 16.800 C 113.318 16.800,112.618 17.138,112.244 17.552 C 111.869 17.965,110.851 18.417,109.982 18.557 C 108.961 18.720,108.400 19.021,108.400 19.405 C 108.400 19.763,108.026 20.000,107.462 20.000 C 106.946 20.000,106.198 20.360,105.800 20.800 C 105.402 21.240,104.654 21.600,104.138 21.600 C 103.622 21.600,102.840 21.960,102.400 22.400 C 101.960 22.840,101.313 23.200,100.963 23.200 C 100.612 23.200,100.231 23.560,100.116 24.000 C 99.957 24.606,99.570 24.800,98.516 24.800 C 97.462 24.800,97.075 24.994,96.916 25.600 C 96.801 26.040,96.411 26.400,96.050 26.400 C 95.688 26.400,95.168 26.760,94.893 27.200 C 94.603 27.665,93.960 28.000,93.359 28.000 C 92.662 28.000,92.257 28.260,92.116 28.800 C 91.968 29.366,91.570 29.600,90.757 29.600 C 90.040 29.600,89.419 29.901,89.107 30.400 C 88.832 30.840,88.362 31.200,88.062 31.200 C 87.575 31.200,86.128 32.203,84.400 33.737 C 84.070 34.030,83.485 34.384,83.100 34.522 C 82.715 34.661,82.400 35.051,82.400 35.387 C 82.400 35.724,82.068 36.000,81.662 36.000 C 81.256 36.000,80.598 36.360,80.200 36.800 C 79.802 37.240,79.127 37.600,78.701 37.600 C 78.262 37.600,77.834 37.947,77.716 38.400 C 77.600 38.843,77.170 39.200,76.753 39.200 C 76.267 39.200,76.000 39.483,76.000 40.000 C 76.000 40.468,75.733 40.800,75.358 40.800 C 74.788 40.800,73.406 41.733,71.600 43.337 C 71.270 43.630,70.685 43.984,70.300 44.122 C 69.915 44.261,69.600 44.651,69.600 44.987 C 69.600 45.324,69.313 45.600,68.963 45.600 C 68.612 45.600,68.231 45.960,68.116 46.400 C 68.000 46.843,67.570 47.200,67.153 47.200 C 66.667 47.200,66.400 47.483,66.400 48.000 C 66.400 48.533,66.133 48.800,65.600 48.800 C 65.067 48.800,64.800 49.067,64.800 49.600 C 64.800 50.107,64.533 50.400,64.072 50.400 C 63.672 50.400,62.629 51.165,61.755 52.100 C 59.472 54.542,56.475 57.200,56.004 57.200 C 55.782 57.200,55.600 57.467,55.600 57.793 C 55.600 58.119,54.430 59.555,53.000 60.985 C 51.570 62.415,50.400 63.859,50.400 64.193 C 50.400 64.533,50.049 64.800,49.600 64.800 C 49.067 64.800,48.800 65.067,48.800 65.600 C 48.800 66.133,48.533 66.400,48.000 66.400 C 47.483 66.400,47.200 66.667,47.200 67.153 C 47.200 67.570,46.843 68.000,46.400 68.116 C 45.960 68.231,45.600 68.612,45.600 68.963 C 45.600 69.313,45.324 69.600,44.987 69.600 C 44.651 69.600,44.257 69.915,44.114 70.300 C 43.970 70.685,43.526 71.235,43.126 71.523 C 42.727 71.810,42.400 72.394,42.400 72.819 C 42.400 73.245,42.040 73.818,41.600 74.093 C 41.160 74.368,40.800 74.909,40.800 75.296 C 40.800 75.733,40.497 76.000,40.000 76.000 C 39.483 76.000,39.200 76.267,39.200 76.753 C 39.200 77.170,38.843 77.600,38.400 77.716 C 37.860 77.857,37.600 78.262,37.600 78.959 C 37.600 79.560,37.265 80.203,36.800 80.493 C 36.360 80.768,36.000 81.309,36.000 81.696 C 36.000 82.083,35.724 82.400,35.387 82.400 C 35.051 82.400,34.657 82.715,34.514 83.100 C 34.370 83.485,33.926 84.035,33.526 84.323 C 33.107 84.624,32.800 85.344,32.800 86.023 C 32.800 86.933,32.619 87.200,32.000 87.200 C 31.503 87.200,31.200 87.467,31.200 87.904 C 31.200 88.291,30.840 88.832,30.400 89.107 C 29.901 89.419,29.600 90.040,29.600 90.757 C 29.600 91.570,29.366 91.968,28.800 92.116 C 28.187 92.276,28.000 92.662,28.000 93.763 C 28.000 94.933,27.852 95.200,27.200 95.200 C 26.683 95.200,26.400 95.467,26.400 95.953 C 26.400 96.370,26.043 96.800,25.600 96.916 C 24.994 97.075,24.800 97.462,24.800 98.516 C 24.800 99.570,24.606 99.957,24.000 100.116 C 23.460 100.257,23.200 100.662,23.200 101.359 C 23.200 101.960,22.865 102.603,22.400 102.893 C 21.960 103.168,21.600 103.771,21.600 104.234 C 21.600 104.697,21.240 105.402,20.800 105.800 C 20.360 106.198,20.000 106.946,20.000 107.462 C 20.000 108.026,19.763 108.400,19.405 108.400 C 19.021 108.400,18.720 108.961,18.557 109.982 C 18.417 110.851,17.965 111.869,17.552 112.244 C 17.138 112.618,16.800 113.318,16.800 113.800 C 16.800 114.282,16.440 115.002,16.000 115.400 C 15.473 115.877,15.200 116.632,15.200 117.615 C 15.200 118.770,15.020 119.154,14.400 119.316 C 13.801 119.473,13.600 119.862,13.600 120.866 C 13.600 121.774,13.342 122.369,12.800 122.707 C 12.226 123.066,12.000 123.640,12.000 124.741 C 12.000 125.768,11.735 126.516,11.200 127.000 C 10.664 127.485,10.400 128.232,10.400 129.262 C 10.400 130.305,10.222 130.800,9.847 130.800 C 9.227 130.800,8.814 131.994,8.805 133.811 C 8.802 134.522,8.470 135.305,8.000 135.707 C 7.380 136.238,7.200 136.887,7.200 138.593 C 7.200 140.360,7.043 140.892,6.400 141.293 C 5.788 141.675,5.600 142.226,5.600 143.634 C 5.600 144.968,5.379 145.676,4.800 146.200 C 4.141 146.797,4.000 147.432,4.000 149.815 C 4.000 152.370,3.907 152.731,3.200 152.916 C 2.491 153.101,2.400 153.462,2.400 156.074 C 2.400 158.527,2.266 159.137,1.600 159.707 C 0.879 160.324,0.800 160.887,0.800 165.396 C 0.800 168.465,0.645 170.400,0.400 170.400 C 0.137 170.400,0.000 180.533,0.000 200.000 C 0.000 219.467,0.137 229.600,0.400 229.600 C 0.645 229.600,0.800 231.535,0.800 234.604 C 0.800 239.113,0.879 239.676,1.600 240.293 C 2.266 240.863,2.400 241.473,2.400 243.926 C 2.400 246.538,2.491 246.899,3.200 247.084 C 3.902 247.268,4.000 247.630,4.000 250.043 C 4.000 252.360,4.126 252.872,4.800 253.293 C 5.443 253.694,5.600 254.226,5.600 256.000 C 5.600 257.774,5.757 258.306,6.400 258.707 C 7.043 259.108,7.200 259.640,7.200 261.407 C 7.200 263.113,7.380 263.762,8.000 264.293 C 8.569 264.780,8.800 265.473,8.800 266.693 C 8.800 267.913,9.031 268.606,9.600 269.093 C 10.083 269.506,10.400 270.273,10.400 271.027 C 10.400 271.768,10.725 272.570,11.200 273.000 C 11.735 273.484,12.000 274.232,12.000 275.259 C 12.000 276.360,12.226 276.934,12.800 277.293 C 13.342 277.631,13.600 278.226,13.600 279.134 C 13.600 280.138,13.801 280.527,14.400 280.684 C 15.015 280.845,15.200 281.230,15.200 282.350 C 15.200 283.374,15.438 283.956,16.000 284.307 C 16.485 284.610,16.800 285.240,16.800 285.907 C 16.800 286.574,17.115 287.204,17.600 287.507 C 18.040 287.782,18.402 288.410,18.405 288.903 C 18.415 290.427,18.868 291.600,19.447 291.600 C 19.755 291.600,20.000 292.001,20.000 292.504 C 20.000 293.001,20.360 293.632,20.800 293.907 C 21.285 294.210,21.600 294.840,21.600 295.507 C 21.600 296.174,21.915 296.804,22.400 297.107 C 22.865 297.397,23.200 298.040,23.200 298.641 C 23.200 299.338,23.460 299.743,24.000 299.884 C 24.606 300.043,24.800 300.430,24.800 301.484 C 24.800 302.538,24.994 302.925,25.600 303.084 C 26.040 303.199,26.400 303.589,26.400 303.950 C 26.400 304.312,26.760 304.832,27.200 305.107 C 27.665 305.397,28.000 306.040,28.000 306.641 C 28.000 307.338,28.260 307.743,28.800 307.884 C 29.366 308.032,29.600 308.430,29.600 309.243 C 29.600 309.960,29.901 310.581,30.400 310.893 C 30.840 311.168,31.200 311.709,31.200 312.096 C 31.200 312.533,31.503 312.800,32.000 312.800 C 32.583 312.800,32.800 313.067,32.800 313.784 C 32.800 314.326,33.131 315.091,33.536 315.484 C 33.941 315.878,34.385 316.515,34.523 316.900 C 34.662 317.285,35.051 317.600,35.387 317.600 C 35.724 317.600,36.000 317.917,36.000 318.304 C 36.000 318.691,36.360 319.232,36.800 319.507 C 37.265 319.797,37.600 320.440,37.600 321.041 C 37.600 321.738,37.860 322.143,38.400 322.284 C 38.843 322.400,39.200 322.830,39.200 323.247 C 39.200 323.733,39.483 324.000,40.000 324.000 C 40.533 324.000,40.800 324.267,40.800 324.800 C 40.800 325.333,41.067 325.600,41.600 325.600 C 42.219 325.600,42.400 325.867,42.400 326.777 C 42.400 327.456,42.707 328.176,43.126 328.477 C 43.526 328.765,43.970 329.315,44.114 329.700 C 44.257 330.085,44.651 330.400,44.987 330.400 C 45.324 330.400,45.600 330.687,45.600 331.037 C 45.600 331.388,45.960 331.769,46.400 331.884 C 46.843 332.000,47.200 332.430,47.200 332.847 C 47.200 333.333,47.483 333.600,48.000 333.600 C 48.533 333.600,48.800 333.867,48.800 334.400 C 48.800 334.933,49.067 335.200,49.600 335.200 C 50.049 335.200,50.400 335.467,50.400 335.807 C 50.400 336.141,51.570 337.585,53.000 339.015 C 54.430 340.445,55.600 341.881,55.600 342.207 C 55.600 342.533,55.782 342.800,56.004 342.800 C 56.475 342.800,59.472 345.458,61.755 347.900 C 62.629 348.835,63.672 349.600,64.072 349.600 C 64.533 349.600,64.800 349.893,64.800 350.400 C 64.800 350.933,65.067 351.200,65.600 351.200 C 66.133 351.200,66.400 351.467,66.400 352.000 C 66.400 352.533,66.667 352.800,67.200 352.800 C 67.665 352.800,68.000 353.067,68.000 353.437 C 68.000 353.788,68.360 354.169,68.800 354.284 C 69.240 354.399,69.600 354.748,69.600 355.059 C 69.600 355.370,69.915 355.739,70.300 355.878 C 70.685 356.016,71.270 356.370,71.600 356.663 C 73.406 358.267,74.788 359.200,75.358 359.200 C 75.733 359.200,76.000 359.532,76.000 360.000 C 76.000 360.517,76.267 360.800,76.753 360.800 C 77.170 360.800,77.600 361.157,77.716 361.600 C 77.834 362.053,78.262 362.400,78.701 362.400 C 79.127 362.400,79.802 362.760,80.200 363.200 C 80.598 363.640,81.256 364.000,81.662 364.000 C 82.068 364.000,82.400 364.276,82.400 364.613 C 82.400 364.949,82.715 365.343,83.100 365.486 C 83.485 365.630,84.035 366.074,84.323 366.474 C 84.610 366.873,85.077 367.200,85.361 367.200 C 85.644 367.200,86.202 367.560,86.600 368.000 C 86.998 368.440,87.613 368.800,87.966 368.800 C 88.319 368.800,88.832 369.160,89.107 369.600 C 89.419 370.099,90.040 370.400,90.757 370.400 C 91.570 370.400,91.968 370.634,92.116 371.200 C 92.257 371.740,92.662 372.000,93.359 372.000 C 93.960 372.000,94.603 372.335,94.893 372.800 C 95.168 373.240,95.688 373.600,96.050 373.600 C 96.411 373.600,96.801 373.960,96.916 374.400 C 97.075 375.006,97.462 375.200,98.516 375.200 C 99.570 375.200,99.957 375.394,100.116 376.000 C 100.231 376.440,100.612 376.800,100.963 376.800 C 101.313 376.800,101.960 377.160,102.400 377.600 C 102.840 378.040,103.622 378.400,104.138 378.400 C 104.654 378.400,105.402 378.760,105.800 379.200 C 106.198 379.640,106.946 380.000,107.462 380.000 C 108.016 380.000,108.400 380.238,108.400 380.582 C 108.400 380.934,108.974 381.271,109.855 381.437 C 110.655 381.587,111.645 382.045,112.055 382.455 C 112.465 382.865,113.250 383.200,113.800 383.200 C 114.385 383.200,114.800 383.430,114.800 383.753 C 114.800 384.378,115.997 384.786,117.853 384.795 C 118.768 384.799,119.163 385.016,119.316 385.600 C 119.475 386.206,119.862 386.400,120.916 386.400 C 121.970 386.400,122.357 386.594,122.516 387.200 C 122.685 387.848,123.062 388.000,124.501 388.000 C 125.768 388.000,126.483 388.229,127.000 388.800 C 127.430 389.275,128.232 389.600,128.973 389.600 C 129.727 389.600,130.494 389.917,130.907 390.400 C 131.394 390.969,132.087 391.200,133.307 391.200 C 134.527 391.200,135.220 391.431,135.707 392.000 C 136.204 392.580,136.887 392.800,138.196 392.800 C 139.467 392.800,140.237 393.037,140.800 393.600 C 141.339 394.139,142.133 394.400,143.237 394.400 C 144.268 394.400,145.250 394.696,145.891 395.200 C 146.695 395.833,147.514 396.000,149.807 396.000 C 152.370 396.000,152.731 396.093,152.916 396.800 C 153.101 397.509,153.462 397.600,156.074 397.600 C 158.527 397.600,159.137 397.734,159.707 398.400 C 160.315 399.110,160.887 399.200,164.796 399.200 C 167.465 399.200,169.200 399.358,169.200 399.600 C 169.200 399.863,179.733 400.000,200.000 400.000 C 220.267 400.000,230.800 399.863,230.800 399.600 C 230.800 399.358,232.535 399.200,235.204 399.200 C 239.113 399.200,239.685 399.110,240.293 398.400 C 240.863 397.734,241.473 397.600,243.926 397.600 C 246.538 397.600,246.899 397.509,247.084 396.800 C 247.267 396.100,247.630 396.000,249.993 396.000 C 252.086 396.000,252.920 395.821,253.709 395.200 C 254.391 394.664,255.332 394.400,256.563 394.400 C 257.867 394.400,258.632 394.168,259.200 393.600 C 259.763 393.037,260.533 392.800,261.804 392.800 C 263.113 392.800,263.796 392.580,264.293 392.000 C 264.800 391.408,265.473 391.200,266.886 391.200 C 268.360 391.200,268.907 391.018,269.293 390.400 C 269.619 389.877,270.226 389.600,271.042 389.600 C 271.730 389.600,272.750 389.240,273.309 388.800 C 273.869 388.360,274.881 388.000,275.560 388.000 C 276.360 388.000,276.969 387.719,277.293 387.200 C 277.631 386.658,278.226 386.400,279.134 386.400 C 280.138 386.400,280.527 386.199,280.684 385.600 C 280.846 384.980,281.230 384.800,282.385 384.800 C 283.368 384.800,284.123 384.527,284.600 384.000 C 284.998 383.560,285.718 383.200,286.200 383.200 C 286.682 383.200,287.382 382.862,287.756 382.448 C 288.131 382.035,289.149 381.583,290.018 381.443 C 291.039 381.280,291.600 380.979,291.600 380.595 C 291.600 380.237,291.974 380.000,292.538 380.000 C 293.054 380.000,293.802 379.640,294.200 379.200 C 294.598 378.760,295.346 378.400,295.862 378.400 C 296.378 378.400,297.160 378.040,297.600 377.600 C 298.040 377.160,298.687 376.800,299.037 376.800 C 299.388 376.800,299.769 376.440,299.884 376.000 C 300.043 375.394,300.430 375.200,301.484 375.200 C 302.538 375.200,302.925 375.006,303.084 374.400 C 303.199 373.960,303.589 373.600,303.950 373.600 C 304.312 373.600,304.832 373.240,305.107 372.800 C 305.397 372.335,306.040 372.000,306.641 372.000 C 307.338 372.000,307.743 371.740,307.884 371.200 C 308.032 370.634,308.430 370.400,309.243 370.400 C 309.960 370.400,310.581 370.099,310.893 369.600 C 311.168 369.160,311.638 368.800,311.938 368.800 C 312.425 368.800,313.872 367.797,315.600 366.263 C 315.930 365.970,316.515 365.616,316.900 365.478 C 317.285 365.339,317.600 364.949,317.600 364.613 C 317.600 364.276,317.932 364.000,318.338 364.000 C 318.744 364.000,319.402 363.640,319.800 363.200 C 320.198 362.760,320.873 362.400,321.299 362.400 C 321.738 362.400,322.166 362.053,322.284 361.600 C 322.400 361.157,322.830 360.800,323.247 360.800 C 323.733 360.800,324.000 360.517,324.000 360.000 C 324.000 359.532,324.267 359.200,324.642 359.200 C 325.212 359.200,326.594 358.267,328.400 356.663 C 328.730 356.370,329.315 356.016,329.700 355.878 C 330.085 355.739,330.400 355.370,330.400 355.059 C 330.400 354.748,330.760 354.399,331.200 354.284 C 331.640 354.169,332.000 353.788,332.000 353.437 C 332.000 353.067,332.335 352.800,332.800 352.800 C 333.333 352.800,333.600 352.533,333.600 352.000 C 333.600 351.467,333.867 351.200,334.400 351.200 C 334.933 351.200,335.200 350.933,335.200 350.400 C 335.200 349.893,335.467 349.600,335.928 349.600 C 336.328 349.600,337.371 348.835,338.245 347.900 C 340.528 345.458,343.525 342.800,343.996 342.800 C 344.218 342.800,344.400 342.533,344.400 342.207 C 344.400 341.881,345.570 340.445,347.000 339.015 C 348.430 337.585,349.600 336.141,349.600 335.807 C 349.600 335.467,349.951 335.200,350.400 335.200 C 350.933 335.200,351.200 334.933,351.200 334.400 C 351.200 333.867,351.467 333.600,352.000 333.600 C 352.517 333.600,352.800 333.333,352.800 332.847 C 352.800 332.430,353.157 332.000,353.600 331.884 C 354.040 331.769,354.400 331.388,354.400 331.037 C 354.400 330.687,354.676 330.400,355.013 330.400 C 355.349 330.400,355.743 330.085,355.886 329.700 C 356.030 329.315,356.474 328.765,356.874 328.477 C 357.273 328.190,357.600 327.606,357.600 327.181 C 357.600 326.755,357.960 326.182,358.400 325.907 C 358.840 325.632,359.200 325.091,359.200 324.704 C 359.200 324.267,359.503 324.000,360.000 324.000 C 360.517 324.000,360.800 323.733,360.800 323.247 C 360.800 322.830,361.157 322.400,361.600 322.284 C 362.140 322.143,362.400 321.738,362.400 321.041 C 362.400 320.440,362.735 319.797,363.200 319.507 C 363.640 319.232,364.000 318.691,364.000 318.304 C 364.000 317.917,364.276 317.600,364.613 317.600 C 364.949 317.600,365.343 317.285,365.486 316.900 C 365.630 316.515,366.074 315.965,366.474 315.677 C 366.893 315.376,367.200 314.656,367.200 313.977 C 367.200 313.067,367.381 312.800,368.000 312.800 C 368.497 312.800,368.800 312.533,368.800 312.096 C 368.800 311.709,369.160 311.168,369.600 310.893 C 370.099 310.581,370.400 309.960,370.400 309.243 C 370.400 308.430,370.634 308.032,371.200 307.884 C 371.813 307.724,372.000 307.338,372.000 306.237 C 372.000 305.067,372.148 304.800,372.800 304.800 C 373.317 304.800,373.600 304.533,373.600 304.047 C 373.600 303.630,373.957 303.200,374.400 303.084 C 375.006 302.925,375.200 302.538,375.200 301.484 C 375.200 300.430,375.394 300.043,376.000 299.884 C 376.540 299.743,376.800 299.338,376.800 298.641 C 376.800 298.040,377.135 297.397,377.600 297.107 C 378.040 296.832,378.400 296.229,378.400 295.766 C 378.400 295.303,378.760 294.598,379.200 294.200 C 379.640 293.802,380.000 293.054,380.000 292.538 C 380.000 291.974,380.237 291.600,380.595 291.600 C 380.979 291.600,381.280 291.039,381.443 290.018 C 381.583 289.149,382.035 288.131,382.448 287.756 C 382.862 287.382,383.200 286.682,383.200 286.200 C 383.200 285.718,383.560 284.998,384.000 284.600 C 384.527 284.123,384.800 283.368,384.800 282.385 C 384.800 281.230,384.980 280.846,385.600 280.684 C 386.199 280.527,386.400 280.138,386.400 279.134 C 386.400 278.226,386.658 277.631,387.200 277.293 C 387.774 276.934,388.000 276.360,388.000 275.259 C 388.000 274.232,388.265 273.484,388.800 273.000 C 389.336 272.515,389.600 271.768,389.600 270.738 C 389.600 269.695,389.778 269.200,390.153 269.200 C 390.773 269.200,391.186 268.006,391.195 266.189 C 391.198 265.478,391.530 264.695,392.000 264.293 C 392.620 263.762,392.800 263.113,392.800 261.407 C 392.800 259.640,392.957 259.108,393.600 258.707 C 394.212 258.325,394.400 257.774,394.400 256.366 C 394.400 255.032,394.621 254.324,395.200 253.800 C 395.859 253.203,396.000 252.568,396.000 250.185 C 396.000 247.630,396.093 247.269,396.800 247.084 C 397.509 246.899,397.600 246.538,397.600 243.926 C 397.600 241.473,397.734 240.863,398.400 240.293 C 399.121 239.676,399.200 239.113,399.200 234.604 C 399.200 231.535,399.355 229.600,399.600 229.600 C 399.863 229.600,400.000 219.467,400.000 200.000 C 400.000 180.533,399.863 170.400,399.600 170.400 C 399.355 170.400,399.200 168.465,399.200 165.396 C 399.200 160.887,399.121 160.324,398.400 159.707 C 397.734 159.137,397.600 158.527,397.600 156.074 C 397.600 153.462,397.509 153.101,396.800 152.916 C 396.098 152.732,396.000 152.370,396.000 149.957 C 396.000 147.640,395.874 147.128,395.200 146.707 C 394.557 146.306,394.400 145.774,394.400 144.000 C 394.400 142.226,394.243 141.694,393.600 141.293 C 392.957 140.892,392.800 140.360,392.800 138.593 C 392.800 136.887,392.620 136.238,392.000 135.707 C 391.431 135.220,391.200 134.527,391.200 133.307 C 391.200 132.087,390.969 131.394,390.400 130.907 C 389.917 130.494,389.600 129.727,389.600 128.973 C 389.600 128.232,389.275 127.430,388.800 127.000 C 388.265 126.516,388.000 125.768,388.000 124.741 C 388.000 123.640,387.774 123.066,387.200 122.707 C 386.658 122.369,386.400 121.774,386.400 120.866 C 386.400 119.862,386.199 119.473,385.600 119.316 C 384.985 119.155,384.800 118.770,384.800 117.650 C 384.800 116.626,384.562 116.044,384.000 115.693 C 383.515 115.390,383.200 114.760,383.200 114.093 C 383.200 113.426,382.885 112.796,382.400 112.493 C 381.960 112.218,381.598 111.590,381.595 111.097 C 381.585 109.573,381.132 108.400,380.553 108.400 C 380.245 108.400,380.000 107.999,380.000 107.496 C 380.000 106.999,379.640 106.368,379.200 106.093 C 378.715 105.790,378.400 105.160,378.400 104.493 C 378.400 103.826,378.085 103.196,377.600 102.893 C 377.135 102.603,376.800 101.960,376.800 101.359 C 376.800 100.662,376.540 100.257,376.000 100.116 C 375.394 99.957,375.200 99.570,375.200 98.516 C 375.200 97.462,375.006 97.075,374.400 96.916 C 373.960 96.801,373.600 96.411,373.600 96.050 C 373.600 95.688,373.240 95.168,372.800 94.893 C 372.335 94.603,372.000 93.960,372.000 93.359 C 372.000 92.662,371.740 92.257,371.200 92.116 C 370.634 91.968,370.400 91.570,370.400 90.757 C 370.400 90.040,370.099 89.419,369.600 89.107 C 369.160 88.832,368.800 88.291,368.800 87.904 C 368.800 87.467,368.497 87.200,368.000 87.200 C 367.417 87.200,367.200 86.933,367.200 86.216 C 367.200 85.674,366.869 84.909,366.464 84.516 C 366.059 84.122,365.615 83.485,365.477 83.100 C 365.338 82.715,364.949 82.400,364.613 82.400 C 364.276 82.400,364.000 82.083,364.000 81.696 C 364.000 81.309,363.640 80.768,363.200 80.493 C 362.735 80.203,362.400 79.560,362.400 78.959 C 362.400 78.262,362.140 77.857,361.600 77.716 C 361.157 77.600,360.800 77.170,360.800 76.753 C 360.800 76.267,360.517 76.000,360.000 76.000 C 359.467 76.000,359.200 75.733,359.200 75.200 C 359.200 74.667,358.933 74.400,358.400 74.400 C 357.781 74.400,357.600 74.133,357.600 73.223 C 357.600 72.544,357.293 71.824,356.874 71.523 C 356.474 71.235,356.030 70.685,355.886 70.300 C 355.743 69.915,355.370 69.600,355.059 69.600 C 354.748 69.600,354.399 69.240,354.284 68.800 C 354.169 68.360,353.788 68.000,353.437 68.000 C 353.067 68.000,352.800 67.665,352.800 67.200 C 352.800 66.667,352.533 66.400,352.000 66.400 C 351.467 66.400,351.200 66.133,351.200 65.600 C 351.200 65.067,350.933 64.800,350.400 64.800 C 349.951 64.800,349.600 64.533,349.600 64.193 C 349.600 63.859,348.430 62.415,347.000 60.985 C 345.570 59.555,344.400 58.119,344.400 57.793 C 344.400 57.467,344.218 57.200,343.996 57.200 C 343.525 57.200,340.528 54.542,338.245 52.100 C 337.371 51.165,336.328 50.400,335.928 50.400 C 335.467 50.400,335.200 50.107,335.200 49.600 C 335.200 49.067,334.933 48.800,334.400 48.800 C 333.867 48.800,333.600 48.533,333.600 48.000 C 333.600 47.483,333.333 47.200,332.847 47.200 C 332.430 47.200,332.000 46.843,331.884 46.400 C 331.769 45.960,331.388 45.600,331.037 45.600 C 330.687 45.600,330.400 45.324,330.400 44.987 C 330.400 44.651,330.085 44.261,329.700 44.122 C 329.315 43.984,328.730 43.630,328.400 43.337 C 326.594 41.733,325.212 40.800,324.642 40.800 C 324.267 40.800,324.000 40.468,324.000 40.000 C 324.000 39.483,323.733 39.200,323.247 39.200 C 322.830 39.200,322.400 38.843,322.284 38.400 C 322.166 37.947,321.738 37.600,321.299 37.600 C 320.873 37.600,320.198 37.240,319.800 36.800 C 319.402 36.360,318.744 36.000,318.338 36.000 C 317.932 36.000,317.600 35.724,317.600 35.387 C 317.600 35.051,317.285 34.657,316.900 34.514 C 316.515 34.370,315.965 33.926,315.677 33.526 C 315.390 33.127,314.923 32.800,314.639 32.800 C 314.356 32.800,313.798 32.440,313.400 32.000 C 313.002 31.560,312.387 31.200,312.034 31.200 C 311.681 31.200,311.168 30.840,310.893 30.400 C 310.581 29.901,309.960 29.600,309.243 29.600 C 308.430 29.600,308.032 29.366,307.884 28.800 C 307.743 28.260,307.338 28.000,306.641 28.000 C 306.040 28.000,305.397 27.665,305.107 27.200 C 304.832 26.760,304.312 26.400,303.950 26.400 C 303.589 26.400,303.199 26.040,303.084 25.600 C 302.925 24.994,302.538 24.800,301.484 24.800 C 300.430 24.800,300.043 24.606,299.884 24.000 C 299.769 23.560,299.388 23.200,299.037 23.200 C 298.687 23.200,298.040 22.840,297.600 22.400 C 297.160 21.960,296.378 21.600,295.862 21.600 C 295.346 21.600,294.598 21.240,294.200 20.800 C 293.802 20.360,293.054 20.000,292.538 20.000 C 291.974 20.000,291.600 19.763,291.600 19.405 C 291.600 19.021,291.039 18.720,290.018 18.557 C 289.149 18.417,288.131 17.965,287.756 17.552 C 287.382 17.138,286.654 16.800,286.138 16.800 C 285.606 16.800,285.200 16.560,285.200 16.247 C 285.200 15.622,284.003 15.214,282.147 15.205 C 281.232 15.201,280.837 14.984,280.684 14.400 C 280.527 13.801,280.138 13.600,279.134 13.600 C 278.226 13.600,277.631 13.342,277.293 12.800 C 276.934 12.226,276.360 12.000,275.259 12.000 C 274.232 12.000,273.484 11.735,273.000 11.200 C 272.570 10.725,271.768 10.400,271.027 10.400 C 270.273 10.400,269.506 10.083,269.093 9.600 C 268.606 9.031,267.913 8.800,266.693 8.800 C 265.473 8.800,264.780 8.569,264.293 8.000 C 263.796 7.420,263.113 7.200,261.804 7.200 C 260.533 7.200,259.763 6.963,259.200 6.400 C 258.661 5.861,257.867 5.600,256.763 5.600 C 255.732 5.600,254.750 5.304,254.109 4.800 C 253.305 4.167,252.486 4.000,250.193 4.000 C 247.630 4.000,247.269 3.907,247.084 3.200 C 246.899 2.491,246.538 2.400,243.926 2.400 C 241.473 2.400,240.863 2.266,240.293 1.600 C 239.685 0.890,239.113 0.800,235.204 0.800 C 232.535 0.800,230.800 0.642,230.800 0.400 C 230.800 0.137,220.267 0.000,200.000 0.000 C 179.733 0.000,169.200 0.137,169.200 0.400 M261.269 93.062 C 262.311 94.005,262.414 141.231,261.377 142.711 L 260.755 143.600 236.187 143.600 L 211.618 143.600 210.952 142.583 C 210.358 141.676,210.335 141.082,210.744 137.046 C 212.372 120.996,222.902 105.901,238.093 97.842 C 245.739 93.786,259.037 91.043,261.269 93.062 M279.439 93.953 C 295.263 98.040,306.436 107.338,314.101 122.800 C 316.747 128.138,319.172 140.210,318.028 142.348 L 317.572 143.200 293.009 143.200 L 268.445 143.200 267.823 142.311 C 267.037 141.189,266.865 94.974,267.641 93.523 C 268.216 92.448,274.497 92.677,279.439 93.953 M199.018 95.782 L 200.000 96.764 200.000 119.008 C 200.000 141.234,199.933 142.431,198.640 143.294 C 198.398 143.456,187.185 143.591,173.723 143.594 L 149.245 143.600 148.623 142.711 C 147.530 141.151,147.697 96.703,148.800 95.600 C 149.582 94.818,150.133 94.800,173.818 94.800 L 198.036 94.800 199.018 95.782 M141.374 95.590 L 142.400 95.980 142.400 118.957 C 142.400 131.595,142.291 142.219,142.157 142.567 C 141.753 143.621,93.215 143.521,92.259 142.465 C 91.652 141.794,91.602 139.723,91.697 118.977 L 91.800 96.224 92.800 95.718 C 94.052 95.084,139.728 94.964,141.374 95.590 M104.426 148.814 C 105.460 149.367,105.658 197.621,104.632 199.024 C 103.674 200.333,93.047 200.193,91.965 198.856 C 90.859 197.491,90.762 150.347,91.862 149.131 C 92.625 148.288,102.956 148.027,104.426 148.814 M123.371 149.029 C 124.174 149.832,124.340 196.817,123.546 198.559 C 122.770 200.262,112.499 200.670,110.891 199.062 C 109.948 198.120,109.812 150.190,110.749 149.061 C 111.544 148.104,122.418 148.075,123.371 149.029 M142.320 148.880 C 143.089 149.649,143.004 197.968,142.232 199.024 C 141.367 200.207,130.633 200.207,129.768 199.024 C 128.996 197.968,128.911 149.649,129.680 148.880 C 130.009 148.551,131.991 148.400,136.000 148.400 C 140.009 148.400,141.991 148.551,142.320 148.880 M318.080 149.120 C 319.065 150.105,318.818 198.705,317.824 199.432 C 316.665 200.279,268.935 200.280,267.776 199.432 C 267.025 198.883,266.996 198.094,266.883 175.332 C 266.756 149.978,266.785 149.346,268.122 148.798 C 269.611 148.188,317.457 148.496,318.080 149.120 M199.120 149.280 C 199.941 150.101,199.798 197.744,198.972 198.571 C 197.927 199.616,197.408 199.635,173.068 199.515 C 150.305 199.404,149.517 199.375,148.968 198.624 C 148.277 197.679,148.110 151.615,148.790 149.826 L 149.180 148.800 173.910 148.800 C 192.611 148.800,198.757 148.917,199.120 149.280 M260.298 149.494 C 260.524 150.173,212.362 198.051,211.601 197.905 C 210.818 197.754,210.473 150.276,211.248 149.342 C 211.885 148.574,260.042 148.724,260.298 149.494 M124.113 205.760 C 147.123 213.063,149.695 241.661,128.413 253.564 C 116.719 260.103,99.306 253.814,93.643 241.006 C 84.866 221.152,103.757 199.299,124.113 205.760 M262.386 205.574 C 263.173 207.044,262.936 254.989,262.139 255.651 C 261.594 256.103,257.158 256.200,237.000 256.200 C 209.347 256.200,211.185 256.424,211.224 253.051 C 211.247 251.051,211.410 249.934,212.396 245.000 C 212.906 242.445,214.474 237.382,215.137 236.145 C 215.356 235.735,216.114 234.230,216.821 232.800 C 221.593 223.149,229.535 215.201,239.200 210.404 C 240.630 209.695,242.143 208.934,242.562 208.715 C 247.796 205.974,261.443 203.812,262.386 205.574 M161.757 205.833 C 162.257 207.136,162.029 255.011,161.520 255.520 C 160.789 256.251,150.795 256.177,149.776 255.432 C 148.884 254.780,148.324 208.505,149.181 206.250 L 149.580 205.200 155.547 205.200 C 160.620 205.200,161.551 205.295,161.757 205.833 M180.810 206.226 C 181.435 207.871,181.316 253.547,180.683 254.800 C 180.082 255.989,170.132 256.579,168.695 255.511 C 168.003 254.996,167.529 206.685,168.206 205.590 C 168.345 205.365,170.978 205.200,174.434 205.200 L 180.420 205.200 180.810 206.226 M199.757 205.833 C 200.257 207.136,200.029 255.011,199.520 255.520 C 198.934 256.106,188.510 256.184,187.600 255.609 C 186.864 255.143,186.462 208.141,187.178 206.258 L 187.580 205.200 193.547 205.200 C 198.620 205.200,199.551 205.295,199.757 205.833 M300.374 206.040 C 314.683 210.014,323.659 227.860,317.392 239.875 C 317.069 240.494,316.804 241.193,316.802 241.429 C 316.801 241.665,315.752 243.285,314.472 245.029 C 299.743 265.091,268.746 255.335,268.627 230.600 C 268.545 213.532,284.079 201.515,300.374 206.040 M142.386 261.574 C 143.145 262.991,142.939 311.004,142.171 311.772 C 141.118 312.825,130.761 311.472,126.886 309.775 C 126.164 309.459,125.371 309.200,125.125 309.200 C 124.233 309.200,118.353 306.317,115.600 304.529 C 102.748 296.185,94.987 284.819,92.173 270.224 C 91.187 265.111,91.189 262.093,92.176 261.369 C 93.577 260.343,141.832 260.539,142.386 261.574 M262.000 261.191 C 262.755 261.668,263.135 309.027,262.395 310.409 C 261.650 311.801,261.410 311.581,236.911 287.104 C 213.253 263.468,211.757 261.854,212.857 261.156 C 213.613 260.677,261.241 260.712,262.000 261.191 M199.026 262.183 C 199.832 263.414,198.656 272.013,197.054 276.600 C 195.290 281.650,194.889 282.574,193.155 285.604 C 188.683 293.414,183.517 299.009,176.679 303.446 C 167.068 309.682,150.602 314.046,148.928 310.800 C 148.285 309.554,148.156 263.895,148.790 262.226 L 149.180 261.200 173.781 261.200 L 198.382 261.200 199.026 262.183 M276.200 262.048 C 295.457 264.843,311.353 278.817,317.323 298.200 C 318.679 302.600,319.556 310.489,318.793 311.409 C 318.134 312.203,269.670 312.310,268.880 311.520 C 268.043 310.683,268.203 262.654,269.046 261.811 C 269.724 261.133,269.948 261.140,276.200 262.048 " stroke="none" fill="#040c34" fill-rule="evenodd"></path><path id="path4" d="M253.600 92.814 C 231.632 95.900,212.962 115.169,210.744 137.046 C 210.335 141.082,210.358 141.676,210.952 142.583 L 211.618 143.600 236.187 143.600 L 260.755 143.600 261.377 142.711 C 262.414 141.231,262.311 94.005,261.269 93.062 C 260.472 92.341,257.622 92.249,253.600 92.814 M260.203 94.500 C 260.323 94.995,260.371 105.840,260.311 118.600 L 260.200 141.800 236.000 141.800 L 211.800 141.800 211.813 139.782 C 211.820 138.672,212.153 136.332,212.554 134.582 C 212.954 132.832,213.427 130.770,213.604 130.000 C 214.140 127.674,216.113 122.667,217.229 120.800 C 217.427 120.470,217.857 119.660,218.186 119.000 C 219.104 117.158,222.342 112.474,223.856 110.800 C 226.626 107.735,230.154 104.540,232.344 103.111 C 232.925 102.732,233.670 102.241,234.000 102.019 C 236.843 100.105,237.696 99.600,238.086 99.600 C 238.334 99.600,238.821 99.344,239.169 99.031 C 239.821 98.443,241.934 97.591,245.400 96.520 C 246.500 96.179,247.600 95.742,247.844 95.548 C 248.089 95.353,249.619 95.014,251.244 94.794 C 252.870 94.573,254.830 94.233,255.600 94.037 C 258.340 93.341,259.962 93.504,260.203 94.500 M148.800 95.600 C 147.697 96.703,147.530 141.151,148.623 142.711 L 149.245 143.600 173.723 143.594 C 187.185 143.591,198.398 143.456,198.640 143.294 C 199.933 142.431,200.000 141.234,200.000 119.008 L 200.000 96.764 199.018 95.782 L 198.036 94.800 173.818 94.800 C 150.133 94.800,149.582 94.818,148.800 95.600 M198.303 119.174 C 198.385 136.969,198.300 141.816,197.903 142.068 C 197.323 142.437,150.786 142.523,149.833 142.157 C 149.266 141.940,149.200 139.540,149.200 119.154 L 149.200 96.394 173.700 96.497 L 198.200 96.600 198.303 119.174 M91.862 149.131 C 90.762 150.347,90.859 197.491,91.965 198.856 C 93.047 200.193,103.674 200.333,104.632 199.024 C 105.658 197.621,105.460 149.367,104.426 148.814 C 102.956 148.027,92.625 148.288,91.862 149.131 M110.749 149.061 C 109.812 150.190,109.948 198.120,110.891 199.062 C 112.499 200.670,122.770 200.262,123.546 198.559 C 124.340 196.817,124.174 149.832,123.371 149.029 C 122.418 148.075,111.544 148.104,110.749 149.061 M129.680 148.880 C 128.911 149.649,128.996 197.968,129.768 199.024 C 130.633 200.207,141.367 200.207,142.232 199.024 C 143.004 197.968,143.089 149.649,142.320 148.880 C 141.991 148.551,140.009 148.400,136.000 148.400 C 131.991 148.400,130.009 148.551,129.680 148.880 M268.122 148.798 C 266.785 149.346,266.756 149.978,266.883 175.332 C 266.996 198.094,267.025 198.883,267.776 199.432 C 268.935 200.280,316.665 200.279,317.824 199.432 C 318.818 198.705,319.065 150.105,318.080 149.120 C 317.457 148.496,269.611 148.188,268.122 148.798 M103.503 173.900 L 103.606 198.000 98.403 198.000 L 93.200 198.000 93.200 174.067 C 93.200 160.903,93.325 150.008,93.478 149.855 C 93.631 149.702,95.926 149.627,98.578 149.688 L 103.400 149.800 103.503 173.900 M122.183 150.048 C 122.319 150.185,122.427 160.985,122.423 174.048 L 122.415 197.800 117.108 197.800 L 111.800 197.800 111.697 174.635 C 111.572 146.748,110.949 149.476,117.399 149.666 C 119.894 149.740,122.047 149.912,122.183 150.048 M140.826 150.014 C 141.578 150.416,141.600 151.107,141.600 174.225 L 141.600 198.023 136.100 197.911 L 130.600 197.800 130.497 174.435 C 130.403 153.120,130.452 151.006,131.059 150.335 C 131.823 149.490,139.383 149.242,140.826 150.014 M316.869 150.262 C 317.787 151.093,318.029 197.011,317.120 197.920 C 316.611 198.429,269.935 198.657,268.633 198.157 C 267.801 197.838,267.652 150.908,268.480 150.080 C 269.330 149.230,315.922 149.405,316.869 150.262 M110.200 205.754 C 85.064 213.828,85.062 247.407,110.197 255.170 C 115.402 256.778,124.025 256.017,128.413 253.564 C 143.546 245.100,147.481 227.980,137.385 214.528 C 131.532 206.729,119.378 202.807,110.200 205.754 M252.400 205.771 C 248.287 206.661,244.078 207.921,242.562 208.715 C 242.143 208.934,240.630 209.695,239.200 210.404 C 229.535 215.201,221.593 223.149,216.821 232.800 C 216.114 234.230,215.356 235.735,215.137 236.145 C 214.474 237.382,212.906 242.445,212.396 245.000 C 211.410 249.934,211.247 251.051,211.224 253.051 C 211.185 256.424,209.347 256.200,237.000 256.200 C 257.158 256.200,261.594 256.103,262.139 255.651 C 262.936 254.989,263.173 207.044,262.386 205.574 C 261.811 204.500,257.911 204.577,252.400 205.771 M122.308 206.583 C 124.127 206.903,126.012 207.443,126.497 207.783 C 126.981 208.122,127.599 208.400,127.869 208.400 C 128.139 208.400,129.195 208.985,130.215 209.700 C 131.236 210.415,132.387 211.183,132.774 211.406 C 133.817 212.009,136.356 214.776,137.541 216.600 C 143.320 225.500,143.305 235.136,137.496 244.262 C 136.088 246.474,132.711 249.814,130.878 250.807 C 130.065 251.248,129.130 251.775,128.800 251.979 C 121.794 256.304,108.729 255.382,102.385 250.114 C 102.063 249.847,101.133 249.070,100.317 248.388 C 98.828 247.142,94.800 241.601,94.800 240.798 C 94.800 240.561,94.397 239.610,93.905 238.684 C 93.081 237.135,93.009 236.470,93.012 230.400 L 93.015 223.800 94.801 220.211 C 96.666 216.462,101.213 211.218,103.800 209.832 C 104.460 209.479,105.270 209.024,105.600 208.820 C 109.654 206.323,116.002 205.473,122.308 206.583 M260.826 206.814 C 261.783 207.326,262.067 252.973,261.120 253.920 C 260.408 254.632,213.361 254.613,213.108 253.900 C 212.774 252.957,213.597 245.400,214.199 243.892 C 214.529 243.062,214.800 242.032,214.800 241.603 C 214.800 241.173,215.184 239.962,215.654 238.911 C 216.124 237.860,216.855 236.190,217.279 235.200 C 217.703 234.210,218.210 233.130,218.407 232.800 C 218.603 232.470,219.337 231.210,220.037 230.000 C 221.264 227.880,222.546 226.098,223.802 224.766 C 224.131 224.418,224.400 223.997,224.400 223.831 C 224.400 223.505,229.404 218.640,230.894 217.517 C 231.392 217.141,232.340 216.407,233.000 215.885 C 233.660 215.363,234.470 214.813,234.800 214.662 C 235.130 214.511,236.210 213.861,237.200 213.219 C 239.324 211.841,242.971 210.000,243.577 210.000 C 243.811 210.000,244.675 209.640,245.496 209.200 C 246.316 208.760,247.392 208.400,247.886 208.400 C 248.380 208.400,249.484 208.120,250.339 207.778 C 251.620 207.265,254.838 206.791,259.326 206.455 C 259.726 206.425,260.401 206.586,260.826 206.814 M92.176 261.369 C 91.189 262.093,91.187 265.111,92.173 270.224 C 94.987 284.819,102.748 296.185,115.600 304.529 C 118.353 306.317,124.233 309.200,125.125 309.200 C 125.371 309.200,126.164 309.459,126.886 309.775 C 130.761 311.472,141.118 312.825,142.171 311.772 C 142.939 311.004,143.145 262.991,142.386 261.574 C 141.832 260.539,93.577 260.343,92.176 261.369 M212.857 261.156 C 211.757 261.854,213.253 263.468,236.911 287.104 C 261.410 311.581,261.650 311.801,262.395 310.409 C 263.135 309.027,262.755 261.668,262.000 261.191 C 261.241 260.712,213.613 260.677,212.857 261.156 M261.056 262.700 C 261.769 263.371,261.792 264.354,261.600 286.600 L 261.400 309.800 237.913 286.425 C 219.647 268.247,214.523 262.934,214.862 262.525 C 215.628 261.602,260.067 261.770,261.056 262.700 M140.703 262.653 L 141.606 262.895 141.503 286.547 L 141.400 310.200 137.552 310.098 C 133.649 309.994,131.957 309.732,128.000 308.622 C 125.812 308.008,125.040 307.698,121.600 306.057 C 120.610 305.584,119.673 305.198,119.518 305.199 C 119.270 305.200,118.520 304.736,115.463 302.693 C 110.907 299.647,104.400 293.836,104.400 292.814 C 104.400 292.586,104.238 292.400,104.040 292.400 C 103.841 292.400,103.256 291.734,102.740 290.919 C 102.223 290.104,101.490 288.979,101.111 288.419 C 100.732 287.859,100.056 286.770,99.607 286.000 C 99.159 285.230,98.625 284.330,98.421 284.000 C 98.216 283.670,97.703 282.590,97.279 281.600 C 96.855 280.610,96.124 278.940,95.654 277.889 C 95.184 276.838,94.800 275.555,94.800 275.038 C 94.800 274.521,94.525 273.439,94.188 272.634 C 93.539 271.081,92.916 264.117,93.330 263.039 C 93.581 262.385,138.343 262.020,140.703 262.653 " stroke="none" fill="#2163a6" fill-rule="evenodd"></path></g></svg>
