<?xml version="1.0" encoding="utf-8"?>
<!-- Generator: Adobe Illustrator 24.1.2, SVG Export Plug-In . SVG Version: 6.00 Build 0)  -->
<svg  width="100%"
      height="100%"
      version="1.1" id="Layer_1" xmlns="http://www.w3.org/2000/svg" xmlns:xlink="http://www.w3.org/1999/xlink" x="0px" y="0px"
	 viewBox="0 0 24 24" style="enable-background:new 0 0 24 24;" xml:space="preserve">
<style type="text/css">
	.st0{fill:#6236FF;}
	.st1{fill-rule:evenodd;clip-rule:evenodd;fill:#FFFFFF;}
</style>
<g id="_xD83D__xDC8E_-Stacker-Ventures">
	<g id="Vaults" transform="translate(-1189.000000, -49.000000)">
		<g id="_x30_3_x5F__x5F_components-_x2F_-navigation-_x2F_-main-nav-copy" transform="translate(465.000000, 42.000000)">
			<g id="_x30_3_x5F__x5F_components-_x2F_-buttons-_x2F_-primary-append" transform="translate(498.000000, 0.000000)">
				<g id="Group-3">
					<g id="_x30_1_x5F__x5F_assets-_x2F_-icons-_x2F_-icon-close-copy" transform="translate(226.000000, 7.000000)">
						<g id="logo-stackerfi" transform="translate(1.000000, 1.000000)">
							<path id="Path" class="st0" d="M11,0C4.9,0,0,4.9,0,11s4.9,11,11,11s11-4.9,11-11c0-2.9-1.2-5.7-3.2-7.8S13.9,0,11,0z"/>
							<path id="Fill-1" class="st1" d="M17.9,9.1L14.6,11L13,10.1l4.9-2.8V9.1z M17.9,13.3v1.7l-6.8,3.9l-7-4v-1.7l6.9,4
								c0,0,0,0,0,0c0,0,0,0,0,0L17.9,13.3z M9.4,10.2l1.6,0.9L7.5,13L6,12.1L9.4,10.2z M4.2,9V7.2l5,2.9l-1.5,0.9L4.2,9z M11.1,5.3
								v1.7L9.2,8L7.7,7.1L11.1,5.3z M11.2,7.1l1.7,1l-1.7,1l-1.8-1L11.2,7.1z M11.3,5.3l3.2,1.9L13,8l-1.8-1.1V5.3z M11.3,12.9
								v-1.7l3.2,1.9L13,14L11.3,12.9z M9.2,14l-1.5-0.8l3.4-1.9v1.7L9.2,14z M11.1,13.1L11.1,13.1l1.7,1l-1.7,1l-1.8-1L11.1,13.1z
								 M16.1,8.2L12.8,10l-1.5-0.8l3.3-1.9L16.1,8.2z M18.1,9.1v-2c0,0,0-0.1,0-0.1L11.2,3c0,0-0.1,0-0.1,0L4.1,7C4,7,4,7,4,7.1v0
								v2c0,0,0,0.1,0.1,0.1l3.4,1.9L4.1,13C4,13,4,13,4,13.1v0v2c0,0,0,0.1,0.1,0.1l7.1,4c0,0,0,0,0,0c0,0,0,0,0,0l6.9-3.9
								c0,0,0.1-0.1,0.1-0.1v-2c0,0,0-0.1-0.1-0.1l-3.3-1.9L18.1,9.1C18.1,9.2,18.1,9.2,18.1,9.1L18.1,9.1z"/>
						</g>
					</g>
				</g>
			</g>
		</g>
	</g>
</g>
</svg>
