<?xml version="1.0" encoding="UTF-8"?>
<svg id="Vrstva_1" data-name="Vrstva 1" xmlns="http://www.w3.org/2000/svg" viewBox="0 0 695 695">
  <defs>
    <style>
      .cls-1 {
        fill: #00007f;
      }

      .cls-2 {
        fill: #a5fa00;
      }
    </style>
  </defs>
  <circle class="cls-1" cx="347.5" cy="347.5" r="200"/>
  <g>
    <rect class="cls-2" x="273.73" y="344.04" width="44.26" height="23.87"/>
    <g>
      <path class="cls-2" d="m347.5,236.61h0c-40.74,0-73.77,33.03-73.77,73.77v9.78h44.26v-9.78c0-16.27,13.24-29.51,29.51-29.51s29.51,13.24,29.51,29.51v9.78h44.26v-9.78c0-40.74-33.03-73.77-73.77-73.77Z"/>
      <path class="cls-2" d="m377.01,391.78v9.78c0,16.27-13.24,29.51-29.51,29.51s-29.51-13.24-29.51-29.51v-9.78h-44.26v9.78c0,40.74,33.03,73.77,73.77,73.77h0c40.74,0,73.77-33.03,73.77-73.77v-9.78h-44.26Z"/>
      <rect class="cls-2" x="317.99" y="188.87" width="59.02" height="23.87"/>
    </g>
  </g>
</svg>