<svg width="69" height="69" viewBox="0 0 69 69" fill="none" xmlns="http://www.w3.org/2000/svg">
<g clip-path="url(#clip0_215_32)">
<path d="M34.5 69C53.5538 69 69 53.5538 69 34.5C69 15.4462 53.5538 0 34.5 0C15.4462 0 0 15.4462 0 34.5C0 53.5538 15.4462 69 34.5 69Z" fill="#45CD85"/>
<path d="M30.0152 53.7509C36.7772 53.7509 42.5042 49.4039 44.6432 43.4009H40.4342C38.5712 47.2649 34.5692 49.8869 30.0152 49.8869C23.5982 49.8869 18.3542 44.6429 18.3542 38.2259C18.3542 33.6719 20.9762 29.6699 24.8402 27.8069V23.5979C18.8372 25.7369 14.4902 31.4639 14.4902 38.2259C14.4902 46.7819 21.4592 53.7509 30.0152 53.7509ZM28.9802 38.4329H32.4302V29.8079H32.7062C33.1892 29.8079 33.7412 29.7389 34.1552 29.7389L37.0532 38.4329H40.8482L36.9842 28.8419C38.7782 27.8759 40.0892 25.6679 40.0892 22.9079C40.0892 18.8369 37.5362 16.6289 32.6372 16.6289H28.9802V38.4329ZM32.4302 26.9099V19.5959H32.9822C35.5352 19.5959 36.6392 20.6999 36.6392 23.2529C36.6392 25.7369 35.5352 26.9099 32.9822 26.9099H32.4302ZM47.3342 35.0519L48.0242 29.4629C49.1282 30.0149 49.8182 30.8429 49.8182 32.1539C49.8182 33.7409 48.9902 34.9139 47.3342 35.0519ZM44.6432 40.4339H46.9892L47.2652 38.0879C50.5772 37.8809 52.8542 35.3279 52.8542 31.9469C52.8542 29.3939 51.6122 27.2549 48.5762 26.1509L49.2662 20.1479C50.0942 20.3549 50.9912 20.7689 51.8882 21.3899V17.9399C51.1982 17.5259 50.4392 17.2499 49.6802 17.1119L50.0252 14.6279H47.6792L47.4722 16.9739C44.1602 17.2499 42.0902 19.6649 42.0902 22.9769C42.0902 26.2199 44.0222 28.0829 46.1612 28.9109L45.4712 34.7759C44.5052 34.4999 43.4012 34.0169 42.1592 33.2579V36.7769C43.1252 37.2599 44.0912 37.6739 44.9882 37.8809L44.6432 40.4339ZM46.7132 25.5299C45.6092 24.9779 45.1262 24.0809 45.1262 22.8389C45.1262 21.1829 45.8852 20.1479 47.4032 19.9409L46.7132 25.5299Z" fill="white"/>
</g>
<defs>
<clipPath id="clip0_215_32">
<rect width="69" height="69" fill="white"/>
</clipPath>
</defs>
</svg>
