<?xml version="1.0" encoding="utf-8"?>
<!-- Generator: Adobe Illustrator 26.5.0, SVG Export Plug-In . SVG Version: 6.00 Build 0)  -->
<!DOCTYPE svg PUBLIC "-//W3C//DTD SVG 1.1//EN" "http://www.w3.org/Graphics/SVG/1.1/DTD/svg11.dtd" [
	<!ENTITY ns_extend "http://ns.adobe.com/Extensibility/1.0/">
	<!ENTITY ns_ai "http://ns.adobe.com/AdobeIllustrator/10.0/">
	<!ENTITY ns_graphs "http://ns.adobe.com/Graphs/1.0/">
	<!ENTITY ns_vars "http://ns.adobe.com/Variables/1.0/">
	<!ENTITY ns_imrep "http://ns.adobe.com/ImageReplacement/1.0/">
	<!ENTITY ns_sfw "http://ns.adobe.com/SaveForWeb/1.0/">
	<!ENTITY ns_custom "http://ns.adobe.com/GenericCustomNamespace/1.0/">
	<!ENTITY ns_adobe_xpath "http://ns.adobe.com/XPath/1.0/">
]>
<svg version="1.1" id="Layer_1" xmlns:x="&ns_extend;" xmlns:i="&ns_ai;" xmlns:graph="&ns_graphs;"
	 xmlns="http://www.w3.org/2000/svg" xmlns:xlink="http://www.w3.org/1999/xlink" x="0px" y="0px" viewBox="0 0 512 512"
	 style="enable-background:new 0 0 512 512;" xml:space="preserve">
<metadata>
	<sfw  xmlns="&ns_sfw;">
		<slices></slices>
		<sliceSourceBounds  bottomLeftOrigin="true" height="505" width="507.7" x="2.1" y="-508.5"></sliceSourceBounds>
	</sfw>
</metadata>
<g>
	<path d="M416.1,190c51.8,0,93.7-41.7,93.7-93.2S467.9,3.5,416.1,3.5c-51.8,0-93.7,41.7-93.7,93.2S364.3,190,416.1,190z"/>
	<path d="M95.9,508.5c51.8,0,93.7-41.7,93.7-93.2S147.7,322,95.9,322c-51.8,0-93.7,41.8-93.7,93.2S44.1,508.5,95.9,508.5z"/>
	<path d="M349.9,30.9C261-5.8,155,11.9,82.7,83.6C10.5,155.5-7.2,261.1,29.6,349.4L349.9,30.9L349.9,30.9z"/>
	<path d="M162.1,481.2c88.9,36.6,194.9,19,267.2-52.8c72.3-71.9,89.9-177.4,53.1-265.8L162.1,481.2z"/>
</g>
</svg>
