<svg xmlns="http://www.w3.org/2000/svg" viewBox="0 0 100 100" width="100%"
     height="100%">
  <g>
    <circle cx="50" cy="50" r="48.39741" style="fill: #fc0"/>
    <path d="M50,4.16667a45.6162,45.6162,0,1,0,32.40833,13.425A45.6162,45.6162,0,0,0,50,4.16667M50,0A50,50,0,1,1,0,50,50,50,0,0,1,50,0Z" style="fill: #039"/>
    <g>
      <path d="M91.66667,50a41.61088,41.61088,0,1,1,0-.11166q.00006.05583,0,.11166" style="fill: #039"/>
      <g>
        <polygon points="50 17.333 51 20.333 54 20.333 51.667 22.333 52.667 25 50 23.333 47.333 25 48.333 22.333 46 20.333 49 20.333 50 17.333" style="fill: #fc0"/>
        <polygon points="35.333 21.333 36.333 24.333 39.333 24.333 36.667 26 37.667 29 35.333 27.333 32.667 29 33.667 26 31 24.333 34.333 24.333 35.333 21.333" style="fill: #fc0"/>
        <polygon points="24.333 32 25.333 35 28.667 35 26 36.667 27 39.667 24.333 37.667 22 39.667 23 36.667 20.333 35 23.333 35 24.333 32" style="fill: #fc0"/>
        <polygon points="64.667 21.333 65.667 24.333 69 24.333 66.333 26 67.333 29 64.667 27.333 62.333 29 63.333 26 60.667 24.333 63.667 24.333 64.667 21.333" style="fill: #fc0"/>
        <polygon points="79.333 34.667 76.667 36.333 77.667 39.333 75 37.667 72.667 39.333 73.667 36.333 71 34.667 74 34.667 75 31.667 76 34.667 79.333 34.667" style="fill: #fc0"/>
        <polygon points="83.333 49.333 80.667 51 81.667 54 79.333 52 76.667 54 77.667 51 75 49.333 78.333 49.333 79.333 46.333 80 49.333 83.333 49.333" style="fill: #fc0"/>
        <polygon points="78 68 75.333 66 72.667 68 73.667 65 71.333 63.333 74.333 63.333 75.333 60.333 76.333 63.333 79.667 63.333 77 65 78 68" style="fill: #fc0"/>
        <polygon points="47.667 82.667 48.667 79.667 46 77.667 49.333 77.667 50.333 74.667 51.333 77.667 54.333 77.667 52 79.667 52.667 82.667 50.333 80.667 47.667 82.667" style="fill: #fc0"/>
        <polygon points="33 78.667 34 75.667 31.333 74 34.333 74 35.333 71 36.333 74 39.667 74 37 75.667 38 78.667 35.333 77 33 78.667" style="fill: #fc0"/>
        <polygon points="67 78.667 64.667 76.667 62 78.667 63 75.667 60.333 74 63.667 74 64.667 71 65.667 74 68.667 74 66 75.667 67 78.667" style="fill: #fc0"/>
        <polygon points="16.667 49.333 20 49.333 20.667 46.333 21.667 49.333 25 49.333 22.333 51 23.333 54 20.667 52.333 18.333 54 19.333 51 16.667 49.333" style="fill: #fc0"/>
        <polygon points="22 68 23 65 20.333 63.333 23.667 63.333 24.667 60.333 25.667 63.333 28.667 63.333 26.333 65 27.333 68 24.667 66 22 68" style="fill: #fc0"/>
      </g>
    </g>
  </g>
</svg>
