<?xml version="1.0" standalone="no"?>
<!DOCTYPE svg PUBLIC "-//W3C//DTD SVG 20010904//EN"
 "http://www.w3.org/TR/2001/REC-SVG-20010904/DTD/svg10.dtd">
<svg version="1.0" xmlns="http://www.w3.org/2000/svg"
 width="145.000000pt" height="145.000000pt" viewBox="0 0 145.000000 145.000000"
 preserveAspectRatio="xMidYMid meet">

<g transform="translate(0.000000,145.000000) scale(0.100000,-0.100000)"
fill="#D80026" stroke="none">
<path d="M585 1435 c-238 -54 -405 -186 -510 -400 -178 -365 -20 -796 357
-969 97 -45 172 -60 298 -60 330 1 611 221 697 544 26 97 23 263 -6 365 -71
251 -263 442 -516 511 -82 22 -244 27 -320 9z m280 -60 c39 -8 106 -32 150
-54 141 -70 238 -167 305 -306 162 -334 29 -722 -303 -885 -188 -93 -396 -93
-582 -1 -333 166 -467 552 -307 886 132 274 437 423 737 360z"/>
<path d="M645 1320 c-248 -37 -430 -195 -501 -436 -23 -79 -23 -228 0 -314 56
-206 224 -372 431 -425 77 -20 221 -19 299 1 109 28 184 72 271 159 124 124
175 248 175 428 0 294 -202 531 -497 582 -92 16 -102 16 -178 5z m215 -310 l0
-150 150 0 150 0 0 -135 0 -135 -150 0 -150 0 0 -150 0 -150 -135 0 -135 0 0
150 0 150 -150 0 -150 0 0 135 0 135 150 0 150 0 0 150 0 150 135 0 135 0 0
-150z"/>
</g>
</svg>
