<svg width="26" height="24" viewBox="0 0 26 24" fill="none" xmlns="http://www.w3.org/2000/svg">
<path d="M12 24C18.6274 24 24 18.6274 24 12C24 5.37258 18.6274 0 12 0C5.37258 0 0 5.37258 0 12C0 18.6274 5.37258 24 12 24Z" fill="#F7931A"/>
<path d="M17.274 10.515C17.5095 8.943 16.3118 8.09775 14.6753 7.53375L15.2063 5.40375L13.9103 5.08125L13.3928 7.155C13.0523 7.0695 12.7028 6.99 12.354 6.9105L12.8753 4.82325L11.5793 4.5L11.0483 6.62925C10.7663 6.56475 10.4888 6.50175 10.2203 6.43425L10.2218 6.4275L8.43375 5.98125L8.08875 7.36575C8.08875 7.36575 9.051 7.58625 9.03075 7.59975C9.55575 7.731 9.65025 8.07825 9.6345 8.35425L9.03 10.7805C9.066 10.7895 9.1125 10.803 9.165 10.8232L9.02775 10.7895L8.18025 14.1885C8.11575 14.3475 7.953 14.5867 7.5855 14.496C7.599 14.5147 6.6435 14.2612 6.6435 14.2612L6 15.7448L7.6875 16.1655C8.001 16.2443 8.3085 16.3267 8.61075 16.404L8.0745 18.558L9.36975 18.8805L9.90075 16.7505C10.2548 16.8457 10.5983 16.9342 10.9343 17.0182L10.4048 19.1392L11.7008 19.4617L12.237 17.3123C14.448 17.7308 16.11 17.562 16.8098 15.5625C17.3738 13.953 16.782 13.0238 15.6188 12.4185C16.4663 12.2235 17.1038 11.6663 17.274 10.515V10.515ZM14.3115 14.6685C13.9118 16.2788 11.2005 15.408 10.3215 15.1898L11.034 12.336C11.913 12.5557 14.7308 12.99 14.3115 14.6685ZM14.7128 10.4918C14.3475 11.9565 12.0915 11.2118 11.3603 11.0295L12.0053 8.442C12.7365 8.62425 15.0938 8.964 14.7128 10.4918Z" fill="white"/>
<circle cx="21.5" cy="19.5" r="4.5" fill="black"/>
<path d="M23.5454 20.2378L23.5454 18.6758L22 20.2378L23.5454 20.2378Z" fill="white"/>
<path d="M23.5454 20.2368L23.5454 21.832L22 20.2368L23.5454 20.2368Z" fill="white"/>
<path d="M22.1482 16.6367L18.5674 20.1857L20.0082 21.5296L23.5254 17.9597L22.1482 16.6367Z" fill="white"/>
</svg>
