<svg width="100%" height="100%"  viewBox="0 0 261 259" fill="none" xmlns="http://www.w3.org/2000/svg">
<path d="M129.753 52.6027C145.012 52.6027 159.929 57.1277 172.616 65.6051C185.303 74.0823 195.192 86.1318 201.031 100.229C206.871 114.327 208.398 129.839 205.422 144.805C202.445 159.771 195.097 173.517 184.307 184.307C173.517 195.097 159.771 202.445 144.805 205.422C129.839 208.399 114.327 206.871 100.229 201.031C86.1317 195.192 74.0826 185.303 65.6051 172.616C57.1277 159.929 52.6027 145.012 52.6027 129.753C52.6287 109.3 60.7654 89.6914 75.2284 75.2284C89.6914 60.7655 109.3 52.6287 129.753 52.6027ZM128 0C102.684 0 77.9366 7.50706 56.8872 21.5719C35.8374 35.6366 19.4315 55.6276 9.74347 79.0164C0.05546 102.405 -2.47937 128.142 2.45954 152.972C7.39846 177.801 19.5893 200.608 37.4903 218.51C55.3916 236.411 78.1989 248.602 103.029 253.54C127.858 258.479 153.595 255.944 176.984 246.257C200.372 236.568 220.363 220.163 234.428 199.113C248.493 178.063 256 153.316 256 128C256 94.0524 242.514 61.4949 218.51 37.4903C194.505 13.4857 161.948 0 128 0Z" fill="url(#paint0_linear_754_1918)"/>
<path d="M173.145 58.102L173.179 58.0673C170.582 56.1612 170.668 54.4284 171.923 53.2328C173.024 52.1757 175.175 51.5173 175.175 51.5173C208.891 43.7716 236.089 61.2037 236.089 61.2037C207.859 23.9482 154.446 14.1751 103.285 40.2713C69.7749 56.6984 57.4923 82.0148 57.4923 82.0148L57.5955 81.9975C49.8372 94.543 45.2957 109.307 45.2957 125.145C45.2957 152.904 59.0405 177.389 80.0104 192.204L79.9759 192.239C82.5735 194.128 82.4875 195.878 81.2317 197.074C80.1308 198.131 77.9805 198.789 77.9805 198.789C44.2464 206.535 17.0664 189.103 17.0664 189.103C45.2957 226.376 98.7095 236.131 149.87 210.035C183.38 193.608 195.68 168.274 195.68 168.274L195.56 168.292C203.318 155.746 207.859 140.982 207.859 125.127C207.859 97.3849 194.115 72.9002 173.145 58.102ZM94.1622 126.028C94.1622 107.55 109.074 92.5577 127.454 92.5577C145.833 92.5577 160.745 107.55 160.745 126.028C160.745 144.523 145.833 159.515 127.454 159.515C109.057 159.515 94.1622 144.541 94.1622 126.028Z" fill="white"/>
<path fill-rule="evenodd" clip-rule="evenodd" d="M217.5 255C239.315 255 257 237.315 257 215.5C257 193.685 239.315 176 217.5 176C195.685 176 178 193.685 178 215.5C178 227.598 183.439 238.426 192.005 245.672C192.583 246.16 193.174 246.632 193.779 247.087C200.384 252.055 208.598 255 217.5 255Z" fill="white" stroke="url(#paint1_linear_754_1918)" stroke-width="7"/>
<path d="M195.842 211.717L203.154 215.221L203.846 213.779L196.028 210.031C197.455 200.837 205.406 193.8 215 193.8C225.604 193.8 234.2 202.396 234.2 213C234.2 223.604 225.604 232.2 215 232.2C206.668 232.2 199.575 226.893 196.918 219.473L206.166 223.727L206.834 222.273L196.314 217.434C195.978 216.012 195.8 214.527 195.8 213C195.8 212.569 195.814 212.141 195.842 211.717Z" fill="#E82574" stroke="black" stroke-width="1.6"/>
<path d="M234 226C234 227.973 230.355 234.15 222.5 234.757C220.462 234.915 218.275 235 216 235C204.954 235 196 232.985 196 230.5C196 228.015 204.954 226 216 226C227.046 226 234 223.515 234 226Z" fill="black"/>
<circle cx="221" cy="215" r="19.2" fill="white" stroke="black" stroke-width="1.6"/>
<path d="M209.76 219L211.304 213.226H211.365L212.903 219H214.423L216.626 210.669H214.875L213.587 216.614H213.52L212.049 210.669H210.62L209.143 216.614H209.082L207.788 210.669H206.037L208.24 219H209.76ZM222.669 217.651H218.94V215.417H222.443V214.154H218.94V212.018H222.669V210.669H217.304V219H222.669V217.651ZM227.161 219V212.048H229.53V210.669H223.145V212.048H225.513V219H227.161ZM237.055 219V210.669H235.401V214.056H231.904V210.669H230.256V219H231.904V215.429H235.401V219H237.055Z" fill="black"/>
<path d="M128.5 166C150.315 166 168 147.868 168 125.5C168 103.132 150.315 85 128.5 85C106.685 85 89 103.132 89 125.5C89 147.868 106.685 166 128.5 166Z" fill="white"/>
<path d="M126.5 185C159.913 185 187 157.913 187 124.5C187 91.0868 159.913 64 126.5 64C93.0868 64 66 91.0868 66 124.5C66 157.913 93.0868 185 126.5 185Z" fill="#627EEA"/>
<path d="M128.492 80V113.632L156.981 126.334L128.492 80Z" fill="white" fill-opacity="0.602"/>
<path d="M128.492 80L100 126.334L128.492 113.632V80Z" fill="white"/>
<path d="M128.492 148.129V170.981L157 131.627L128.492 148.129Z" fill="white" fill-opacity="0.602"/>
<path d="M128.492 170.981V148.125L100 131.627L128.492 170.981Z" fill="white"/>
<path d="M128.492 142.839L156.981 126.334L128.492 113.64V142.839Z" fill="white" fill-opacity="0.2"/>
<path d="M100 126.334L128.492 142.839V113.64L100 126.334Z" fill="white" fill-opacity="0.602"/>
<defs>
<linearGradient id="paint0_linear_754_1918" x1="206.584" y1="206.584" x2="34.56" y2="34.56" gradientUnits="userSpaceOnUse">
<stop offset="0.000791807" stop-color="#0B50B0"/>
<stop offset="0.462706" stop-color="#0F6BEB"/>
<stop offset="1" stop-color="#6FA4F2"/>
</linearGradient>
<linearGradient id="paint1_linear_754_1918" x1="217.5" y1="176" x2="217.5" y2="255" gradientUnits="userSpaceOnUse">
<stop stop-color="#6FA4F2"/>
<stop offset="0.524256" stop-color="#0F6BEB"/>
<stop offset="1" stop-color="#0B50B0"/>
</linearGradient>
</defs>
</svg>
