<svg  width="100%"
      height="100%" viewBox="0 0 26 24" fill="none" xmlns="http://www.w3.org/2000/svg">
<path d="M12 24C18.6274 24 24 18.6274 24 12C24 5.37258 18.6274 0 12 0C5.37258 0 0 5.37258 0 12C0 18.6274 5.37258 24 12 24Z" fill="#3B8EE8"/>
<path d="M12.0176 4V18.7305" stroke="white" stroke-width="1.2" stroke-linecap="round" stroke-linejoin="round"/>
<path d="M15.3652 6.67969H10.3435C9.72195 6.67969 9.12588 6.92659 8.68639 7.36608C8.2469 7.80557 8 8.40164 8 9.02317C8 9.6447 8.2469 10.2408 8.68639 10.6803C9.12588 11.1198 9.72195 11.3667 10.3435 11.3667H13.6913C14.3128 11.3667 14.9089 11.6136 15.3484 12.053C15.7879 12.4925 16.0348 13.0886 16.0348 13.7101C16.0348 14.3317 15.7879 14.9277 15.3484 15.3672C14.9089 15.8067 14.3128 16.0536 13.6913 16.0536H8" stroke="white" stroke-width="1.2" stroke-linecap="round" stroke-linejoin="round"/>
<circle cx="21.5" cy="19.5" r="4.5" fill="black"/>
<path d="M23.5454 20.2378L23.5454 18.6758L22 20.2378L23.5454 20.2378Z" fill="white"/>
<path d="M23.5454 20.2368L23.5454 21.832L22 20.2368L23.5454 20.2368Z" fill="white"/>
<path d="M22.1482 16.6367L18.5674 20.1857L20.0082 21.5296L23.5254 17.9597L22.1482 16.6367Z" fill="white"/>
</svg>
