<svg width="400" height="310" viewBox="0 0 400 310" fill="none" xmlns="http://www.w3.org/2000/svg">
<path fill-rule="evenodd" clip-rule="evenodd" d="M271.225 196.922C279.056 197.502 288.627 197.792 299.938 197.792C320.821 197.792 338.803 193.587 353.885 185.176C368.966 176.765 380.423 165.018 388.254 149.937C396.085 134.855 400 117.598 400 98.1654C400 88.8843 396.085 70.9748 378.247 50.3097C363.227 32.9078 352.869 28.4123 339.528 23.7717C305.855 11.7994 289.497 17.6425 266.143 21.379C257.711 22.7281 252.517 -4.72414 231.852 0.714055C219.888 8.32741 222.354 40.1584 222.064 44.2189C193.785 77.2829 199.124 120.996 198.571 146.891C183.997 148.631 139.839 129.054 128.963 121.223C118.087 113.392 103.078 101.864 97.6396 93.1625C92.2015 84.4614 93.2206 73.3473 101.99 69.2346C110.19 65.3886 119.392 67.9292 125.918 77.2829C132.444 86.6367 133.531 92.0748 147.671 93.1625C161.81 94.2501 169.423 77.2829 169.423 72.4975C169.423 67.7121 171.598 49.6573 132.444 30.08C113.907 20.8117 88.2262 23.6388 72.6242 35.5181C55.27 48.7316 49.0956 72.6022 51.9592 92.0748C57.3974 129.054 84.5881 156.245 101.99 170.819C72.6242 223.678 60.8222 236.123 26.1543 257.822C-8.51356 279.521 1.27494 298.01 1.27494 298.01C2.36272 301.273 11.5468 313.639 31.1723 307.467C50.5028 301.387 75.33 281.285 92.0211 260.302C110.451 237.132 124.776 218.32 139.839 192.813C160.722 205.188 175.296 208.451 193.786 211.714C193.786 217.805 193.641 224.91 193.35 233.031C192.77 240.862 192.48 246.663 192.48 250.433C192.242 257.336 192.053 263.286 191.913 268.284C191.406 278.606 190.246 293.695 196.396 302.64C199.586 306.99 204.372 309.166 210.753 309.166C220.034 309.166 226.704 307.715 230.765 304.815C234.825 301.625 237.291 297.129 238.161 291.328C240.367 277.539 241.641 259.226 241.641 245.213C241.641 227.799 241.04 210.432 241.206 193.007C253.678 194.747 263.684 196.052 271.225 196.922ZM243.816 111.652C246.156 151.027 279.708 155.157 299.938 155.157C320.168 155.157 349.752 141.67 353.885 114.697C358.017 87.7243 335.066 60.5336 302.548 60.5336C270.662 60.5336 243.816 75.8016 243.816 111.652Z" fill="#FFCCCC"/>
</svg>
