<?xml version="1.0" standalone="no"?>
<svg version="1.0" xmlns="http://www.w3.org/2000/svg"
     width="100%" height="100%" viewBox="0 0 292.000000 292.000000"
 preserveAspectRatio="xMidYMid meet">
<g transform="translate(0.000000,292.000000) scale(0.100000,-0.100000)"
fill="#DB3737" stroke="none">
<path d="M1345 2914 c-103 -11 -236 -38 -324 -65 -517 -165 -898 -600 -997
-1140 -23 -127 -23 -371 0 -498 111 -609 578 -1076 1187 -1187 127 -23 371
-23 498 0 609 111 1076 578 1187 1187 23 127 23 371 0 498 -111 607 -583 1081
-1181 1185 -92 16 -299 27 -370 20z m-267 -896 c33 -90 72 -198 87 -240 l28
-78 266 0 267 0 13 38 c8 20 47 128 88 240 l75 202 129 0 129 0 0 -240 0 -240
105 0 105 0 0 -50 0 -50 -105 0 -105 0 0 -145 0 -145 105 0 105 0 0 -50 0 -50
-105 0 -105 0 0 -235 0 -235 -90 0 -90 0 0 235 0 235 -133 0 -133 0 -85 -232
-85 -233 -84 0 -84 0 -85 233 -85 232 -133 0 -133 0 0 -235 0 -235 -90 0 -90
0 0 235 0 235 -105 0 -105 0 0 50 0 50 105 0 105 0 0 145 0 145 -105 0 -105 0
0 50 0 50 105 0 105 0 0 240 0 240 129 0 129 0 60 -162z"/>
<path d="M940 1812 l0 -112 40 0 c22 0 40 4 40 9 0 11 -70 204 -76 210 -2 2
-4 -46 -4 -107z"/>
<path d="M1936 1818 c-20 -57 -36 -106 -36 -110 0 -5 18 -8 40 -8 l40 0 0 110
c0 61 -2 110 -4 110 -2 0 -20 -46 -40 -102z"/>
<path d="M940 1455 l0 -145 115 0 114 0 -36 98 c-19 53 -43 118 -51 145 l-16
47 -63 0 -63 0 0 -145z"/>
<path d="M1267 1503 c19 -54 43 -120 51 -146 l16 -48 125 3 124 3 24 65 c14
36 38 100 53 143 l29 77 -229 0 -229 0 36 -97z"/>
<path d="M1838 1553 c-8 -27 -32 -92 -51 -145 l-36 -98 114 0 115 0 0 145 0
145 -63 0 -63 0 -16 -47z"/>
<path d="M1413 1100 c22 -60 43 -110 46 -110 6 0 81 200 81 214 0 3 -38 6 -84
6 l-83 0 40 -110z"/>
</g>
</svg>
