<svg width="214" height="214" viewBox="0 0 214 214" fill="none" xmlns="http://www.w3.org/2000/svg">
<rect width="214" height="214" fill="black"/>
<mask id="mask0_1484_3011" style="mask-type:luminance" maskUnits="userSpaceOnUse" x="60" y="40" width="94" height="94">
<path d="M153.657 86.782C153.657 112.55 132.768 133.439 107 133.439C81.2321 133.439 60.343 112.55 60.343 86.782C60.343 61.014 81.2321 40.125 107 40.125C132.768 40.125 153.657 61.014 153.657 86.782Z" fill="white"/>
</mask>
<g mask="url(#mask0_1484_3011)">
<path d="M60.3428 133.686L60.3428 39.1776L65.4521 39.1776L65.4521 133.686L60.3428 133.686Z" fill="white"/>
<path d="M70.6339 133.686L70.6339 39.1776L75.2506 39.1776L75.2506 133.686L70.6339 133.686Z" fill="white"/>
<path d="M80.9281 133.686L80.9281 39.1776L85.0522 39.1776L85.0522 133.686L80.9281 133.686Z" fill="white"/>
<path d="M91.2167 133.686L91.2167 39.1779L94.8482 39.1779L94.8482 133.686L91.2167 133.686Z" fill="white"/>
<path d="M101.514 133.686L101.514 39.1776L104.656 39.1776L104.656 133.686L101.514 133.686Z" fill="white"/>
<path d="M111.805 133.686L111.805 39.1779L114.454 39.1779L114.454 133.686L111.805 133.686Z" fill="white"/>
<path d="M122.097 133.686L122.097 39.1779L124.253 39.1779L124.253 133.686L122.097 133.686Z" fill="white"/>
<path d="M132.394 133.686L132.394 39.1776L134.058 39.1776L134.058 133.686L132.394 133.686Z" fill="white"/>
<path d="M143.857 133.686L142.682 133.686L142.682 86.4317L142.682 39.1776L143.857 39.1776L143.857 133.686Z" fill="white"/>
<path d="M153.657 133.686L152.306 133.686L152.306 86.4317L152.306 39.1776L153.657 39.1776L153.657 133.686Z" fill="white"/>
</g>
<mask id="mask1_1484_3011" style="mask-type:luminance" maskUnits="userSpaceOnUse" x="60" y="80" width="94" height="94">
<path d="M153.657 127.218C153.657 152.986 132.768 173.875 107 173.875C81.2318 173.875 60.3428 152.986 60.3428 127.218C60.3428 101.45 81.2318 80.561 107 80.561C132.768 80.561 153.657 101.45 153.657 127.218Z" fill="white"/>
</mask>
<g mask="url(#mask1_1484_3011)">
<path d="M148.55 174.812L148.55 80.304L153.659 80.304L153.659 174.812L148.55 174.812Z" fill="white"/>
<path d="M138.748 174.812L138.748 80.304L143.365 80.304L143.365 174.812L138.748 174.812Z" fill="white"/>
<path d="M128.946 174.812L128.946 80.304L133.07 80.304L133.07 174.812L128.946 174.812Z" fill="white"/>
<path d="M119.145 174.813L119.145 80.3043L122.777 80.3043L122.777 174.813L119.145 174.813Z" fill="white"/>
<path d="M109.344 174.812L109.344 80.304L112.486 80.304L112.486 174.812L109.344 174.812Z" fill="white"/>
<path d="M99.5421 174.812L99.5421 80.304L102.191 80.304L102.191 174.812L99.5421 174.812Z" fill="white"/>
<path d="M89.7459 174.812L89.7458 80.304L91.9024 80.304L91.9024 174.812L89.7459 174.812Z" fill="white"/>
<path d="M79.9447 174.812L79.9447 80.3038L81.6087 80.3038L81.6087 174.812L79.9447 174.812Z" fill="white"/>
<path d="M70.1421 174.813L70.1421 80.3043L71.3163 80.3043L71.3163 174.813L70.1421 174.813Z" fill="white"/>
<path d="M60.3425 174.812L60.3425 80.3038L61.6936 80.3038L61.6936 127.558L61.6936 174.812L60.3425 174.812Z" fill="white"/>
</g>
<path fill-rule="evenodd" clip-rule="evenodd" d="M153.65 127.221L153.65 86.7821L152.311 86.7821L152.311 127.221L153.65 127.221Z" fill="white"/>
<path fill-rule="evenodd" clip-rule="evenodd" d="M61.6915 127.874L61.6915 87.5231L60.3428 87.5231L60.3428 127.874L61.6915 127.874Z" fill="white"/>
</svg>
