<svg width="26" height="24" viewBox="0 0 26 24" fill="none" xmlns="http://www.w3.org/2000/svg">
<path d="M23.75 12C23.75 18.4893 18.4893 23.75 12 23.75C5.51065 23.75 0.25 18.4893 0.25 12C0.25 5.51065 5.51065 0.25 12 0.25C18.4893 0.25 23.75 5.51065 23.75 12Z" fill="white" stroke="#C2C2C2" stroke-width="0.5"/>
<circle cx="21.5" cy="19.5" r="4.5" fill="black"/>
<path d="M23.5454 20.2378L23.5454 18.6758L22 20.2378L23.5454 20.2378Z" fill="white"/>
<path d="M23.5454 20.2368L23.5454 21.832L22 20.2368L23.5454 20.2368Z" fill="white"/>
<path d="M22.1482 16.6367L18.5674 20.1857L20.0082 21.5296L23.5254 17.9597L22.1482 16.6367Z" fill="white"/>
<path d="M12.4981 3L12.3779 3.40824V15.2533L12.4981 15.3732L17.9964 12.1232L12.4981 3Z" fill="#343434"/>
<path d="M12.4984 3L7 12.1232L12.4984 15.3732V9.62395V3Z" fill="#8C8C8C"/>
<path d="M12.4984 16.4124L12.4307 16.495V20.7144L12.4984 20.9122L18 13.1641L12.4984 16.4124Z" fill="#3C3C3B"/>
<path d="M12.4984 20.9122V16.4124L7 13.1641L12.4984 20.9122Z" fill="#8C8C8C"/>
<path d="M12.4985 15.3743L17.9968 12.1242L12.4985 9.625V15.3743Z" fill="#141414"/>
<path d="M7 12.1242L12.4984 15.3743V9.625L7 12.1242Z" fill="#393939"/>
</svg>
