<svg
            version="1.1"
            id="Ebene_1"
            xmlns="http://www.w3.org/2000/svg"
            x="0px"
            y="0px"
            width="100%"
            height="100%"
            viewBox="0 0 128 128"
            space="preserve"
          >
            <g id="_x32_-Color-Solid">
              <path
                id="Head_1_"
                fill="#6441D2"
                fillRule="evenodd"
                clipRule="evenodd"
                d="M64,2C29.75451,2,2,29.75451,2,64s27.75451,62,62,62s62-27.75452,62-62S98.24548,2,64,2z"
              />
              <path
                id="Face_1_"
                fill="#FFFFFF"
                fillRule="evenodd"
                clipRule="evenodd"
                d="M113.68954,64c0-13.65337-11.19134-24.8447-24.84484-24.8447
         C75.19135,39.15529,64,50.34663,64,64c0,0.053,0.00778,0.10423,0.00805,0.15723c-0.07787-0.12964-0.15356-0.2496-0.23183-0.38102
         c0-13.65351-11.19134-24.84484-24.84484-24.84484c-13.20568,0.22392-24.17326,10.96758-24.39702,24.39718
         c0,0.22377,0,0.44769,0,0.67145s0,0.44769,0,0.67145C14.75811,91.75455,36.91702,113.46565,64,113.46565
         c25.69186,0,46.93831-19.7433,49.2457-44.89143C113.52603,67.08868,113.68954,65.56326,113.68954,64z M47.43678,72.72931
         c-1.56668,0.67145-3.3574,1.11913-5.14798,1.11913c-4.47654,0-8.72915-2.23827-11.63902-4.92422
         c-2.23827-2.68595-3.58117-6.26712-2.23827-9.84844c1.34306-3.58117,5.14812-5.37177,8.72931-4.92422
         c4.7003,0,8.72929,2.68595,11.19134,6.49104c0.89537,1.3429,1.56682,2.68595,2.0145,4.02885
         C51.46576,67.80508,50.12271,70.93857,47.43678,72.72931z M77.87729,64.67145c0.44769-1.3429,1.11914-2.68596,2.01437-4.02885
         c2.46217-3.80508,6.49104-6.49104,11.19135-6.49104c3.5813-0.44755,7.38638,1.34306,8.72928,4.92422
         c1.34293,3.5813,0,7.16249-2.23826,9.84844c-2.90972,2.90972-7.16249,5.14799-11.4151,5.14799
         c-2.01451-0.22376-3.80509-0.44769-5.37191-1.3429C78.10106,70.93857,76.53423,67.80508,77.87729,64.67145z M68.7003,91.08298
         l-4.25264,8.50552c-0.2239,0.22378-0.44766,0.44755-0.67143,0.44755c0,0.22392-0.2239,0-0.44769-0.44755
         c0,0-3.13364-6.26726-4.25277-8.50552c-0.44769-1.11913,0-2.23827,0.67145-2.90971c4.25275-4.02885,4.25275-4.02885,8.28162,0
         C68.47653,88.62095,69.14799,89.96384,68.7003,91.08298z"
              />
            </g>
          </svg>
