<svg width="40" height="40" viewBox="0 0 40 40" fill="none" xmlns="http://www.w3.org/2000/svg">
<rect width="40" height="40" rx="20" fill="#202020"/>
<path d="M21.1399 24.0744C21.6821 24.0744 22.2059 24.0876 22.7296 24.0691C22.9412 24.0612 23.1555 24.048 23.3697 24.0453C24.7664 24.0268 26.163 24.0347 27.557 23.9845C28.4113 23.9554 29.2657 23.9765 30.1201 23.9421C30.4481 23.9289 30.7761 23.913 31.1014 23.9025C31.3051 23.8972 31.3289 23.9607 31.2628 24.1458C30.7602 25.4975 30.0407 26.7222 29.1017 27.8172C28.906 28.0447 28.906 28.0394 28.6653 27.8543C27.6442 27.0713 26.528 26.5 25.2451 26.2857C23.8485 26.053 22.5101 26.2804 21.2113 26.7962C20.2406 27.1824 19.3227 27.6929 18.3467 28.0712C16.5427 28.7695 14.7599 28.7986 12.9982 27.9416C12.2523 27.5792 11.5778 27.1031 10.9694 26.5423C10.6097 26.2117 10.2685 25.8625 9.95104 25.4895C9.85582 25.3758 9.84788 25.315 9.95104 25.2092C10.2949 24.8626 10.6335 24.5108 10.9694 24.1564C11.6836 23.4025 12.4163 22.6698 13.1384 21.9239C14.3896 20.6305 15.6407 19.3343 16.8892 18.0356C17.5134 17.3875 18.1324 16.7342 18.754 16.0835C18.7963 16.0412 18.8334 15.9936 18.918 15.8983C18.6138 15.8983 18.3599 15.8798 18.1112 15.9036C17.8758 15.9248 17.6404 15.9301 17.4023 15.9327C16.0137 15.9512 14.625 15.9433 13.2363 15.9936C12.3819 16.0227 11.5275 15.9936 10.6732 16.0385C10.1018 16.0676 9.53047 16.0676 8.95648 16.0729C8.66551 16.0756 8.66816 16.0597 8.7528 15.7714C9.01731 14.8667 9.67066 14.2504 10.3425 13.6632C11.3159 12.8141 12.4454 12.2904 13.7415 12.1608C14.5668 12.0788 15.3868 12.1476 16.2015 12.2904C17.0585 12.4412 17.9102 12.6157 18.7699 12.7427C21.1082 13.0892 23.1555 12.5047 24.851 10.8144C25.1922 10.4732 25.5176 10.1214 25.8032 9.73257C25.9038 9.59766 25.9858 9.59237 26.1259 9.67702C27.9326 10.7721 29.3662 12.2269 30.4216 14.0573C30.4983 14.1896 30.4983 14.2822 30.3846 14.3986C29.89 14.9091 29.4112 15.4302 28.9165 15.9407C28.2129 16.6707 27.4988 17.3928 26.7925 18.1229C25.5149 19.4454 24.2373 20.768 22.9624 22.0932C22.391 22.6857 21.825 23.2862 21.2563 23.8813C21.2113 23.9289 21.1478 23.9686 21.1293 24.0744H21.1399Z" fill="#00FFFF"/>
<path d="M11.2498 28.1426C11.4376 28.2484 11.6122 28.3489 11.7894 28.4468C13.0485 29.153 14.3948 29.5207 15.8444 29.444C16.7781 29.3964 17.6616 29.1398 18.5133 28.7642C19.1693 28.4732 19.8041 28.1373 20.4416 27.8093C21.4467 27.2909 22.4704 26.82 23.6051 26.6455C24.7716 26.4682 25.88 26.664 26.9565 27.1136C27.5305 27.3544 28.0595 27.6691 28.5753 28.0103C28.7393 28.1188 28.7843 28.2034 28.6176 28.3542C28.332 28.6055 28.0595 28.8727 27.7844 29.1372C27.6601 29.2562 27.5305 29.2615 27.3639 29.2297C25.9831 28.9546 24.6076 28.9361 23.2454 29.3329C22.2376 29.6265 21.3012 30.1 20.349 30.5285C19.4841 30.9173 18.6032 31.2533 17.6536 31.3802C16.8574 31.486 16.1009 31.4067 15.355 31.0734C13.8367 30.3989 12.4851 29.4943 11.3397 28.2881C11.3053 28.251 11.2524 28.2246 11.2524 28.14L11.2498 28.1426Z" fill="#00FFFF"/>
<path d="M11.0884 11.9439C11.3662 11.6661 11.6122 11.399 11.8793 11.1583C12.7945 10.3277 13.8076 9.63999 14.9318 9.11625C15.0984 9.03954 15.2572 9.01574 15.4397 9.04748C16.4104 9.20883 17.368 9.44425 18.3493 9.53947C19.9364 9.69289 21.4414 9.47334 22.7984 8.574C23.0126 8.43117 23.2031 8.4153 23.4412 8.49465C24.1897 8.74065 24.9198 9.02367 25.6207 9.38606C25.7715 9.46541 25.7847 9.53683 25.6789 9.66115C24.5733 10.9811 23.2322 11.928 21.5076 12.2454C20.3437 12.4597 19.1984 12.3433 18.0636 12.0497C17.1034 11.7984 16.1433 11.5418 15.1593 11.4175C13.8314 11.2482 12.5406 11.3805 11.308 11.936C11.2604 11.9571 11.2154 11.9889 11.0884 11.9439Z" fill="#00FFFF"/>
<path d="M18.8043 31.8881C19.7353 31.5707 20.5738 31.1131 21.4176 30.674C22.2852 30.2217 23.1608 29.7879 24.1183 29.563C24.5415 29.4625 24.97 29.3964 25.4091 29.4043C25.9196 29.4123 26.4301 29.3382 26.938 29.4096C27.0491 29.4255 27.2184 29.4017 27.2501 29.4969C27.2898 29.6212 27.1152 29.6556 27.0306 29.7164C25.3007 30.9729 23.3697 31.7056 21.2431 31.9331C20.5051 32.0124 19.7671 32.0177 19.0291 31.9674C18.9603 31.9622 18.8915 31.9648 18.8016 31.8907L18.8043 31.8881Z" fill="#00FFFF"/>
<path d="M16.4104 8.53962C18.4816 7.91008 20.5156 7.8466 22.5921 8.26981C21.7139 9.19825 18.217 9.35696 16.4104 8.53962Z" fill="#00FFFF"/>
</svg>
