<?xml version="1.0" encoding="UTF-8"?>
<!DOCTYPE svg PUBLIC "-//W3C//DTD SVG 1.1//EN" "http://www.w3.org/Graphics/SVG/1.1/DTD/svg11.dtd">
<!-- Creator: CorelDRAW 2020 (64-Bit) -->
<svg xmlns="http://www.w3.org/2000/svg" xml:space="preserve" width="100%"
     height="100%" version="1.1" style="shape-rendering:geometricPrecision; text-rendering:geometricPrecision; image-rendering:optimizeQuality; fill-rule:evenodd; clip-rule:evenodd"
     viewBox="0 0 6149.86 6149.86"
     xmlns:xlink="http://www.w3.org/1999/xlink"
     xmlns:xodm="http://www.corel.com/coreldraw/odm/2003">
 <defs>
  <style type="text/css">
   <![CDATA[
    .str0 {stroke:black;stroke-width:20;stroke-miterlimit:22.9256}
    .fil0 {fill:black}
    .fil1 {fill:white}
   ]]>
  </style>
 </defs>
  <g id="Layer_x0020_1">
  <metadata id="CorelCorpID_0Corel-Layer"/>
    <rect class="fil0" x="9.99" y="9.99" width="6129.87" height="6129.87"/>
    <circle class="fil0 str0" cx="3074.93" cy="3074.93" r="3064.93"/>
    <g id="_2598742463280">
   <g id="_2630717824512">
    <path class="fil1" d="M4170.75 2757.3l-2.01 4.02 2.01 -4.02zm-594.09 -1223.26l28.12 0c11.95,0.32 19.6,2.1 33.95,2.02 42.61,-0.22 107.49,7.04 151.22,10 80.83,5.47 204.78,23.22 283.24,39.19l67.34 13.27 -41.47 -29.07c-9.35,-6.8 -34.33,-22.2 -39.14,-29.38 8.36,0 18.01,0.45 26.21,0.01 9.05,-0.49 11.11,-2.05 22.11,-2.12 16.96,-0.13 29.37,2.2 48.42,2.09 114.41,-0.62 303.86,48.22 397.85,103.95 60.36,35.79 119.76,81.21 164.1,136.16l44.05 56.71c7.83,10.43 12.63,19.42 19.9,30.48 9.56,14.54 30.27,56.96 36.59,64.17 42.67,48.67 64.92,110.85 49.72,187.78 -3.89,19.75 -4.95,21.39 -23.27,27.11 -14.99,4.68 -102.73,33.5 -114.63,34.49 0,31.38 4.39,63.08 7.75,95.03 1.02,9.71 2.06,21.66 2.32,29.92 0.96,30.19 6.51,63.99 8.03,94.75 0.62,12.49 2.05,18.47 2.05,30.19 67.41,45.14 98.39,153.22 62.45,233.75 -16.58,37.19 -46.44,63.73 -84.28,78.95 -28.55,11.5 -71.72,14.4 -105.93,6.52 -12.3,-2.84 -20.83,-6.4 -31.43,-8.87 -9.41,14.05 -27.74,21.05 -44.11,24.43 -21.15,4.38 -39.07,-2.31 -53.85,-11.13 -11.3,-6.75 -17.82,-16.64 -27.59,-24.8 -4.05,-3.39 -4.9,-3.33 -9.01,-7.12 -12.24,-11.32 -21.77,-23.89 -34.73,-33.78 -13.02,-9.95 -21.94,-22.87 -34.85,-33.67l-35.15 -33.38c-6.61,-6.65 -11.48,-9.29 -18.18,-16.07 -6.16,-6.23 -10.94,-10.93 -17.11,-17.16 -3.46,-3.5 -5.53,-5.87 -9.28,-8.86 -7.97,-6.36 -16.39,-19.17 -26.5,-21.87 -3.16,13.57 -42.94,80.73 -50.42,94.68 -6.12,11.41 -7.26,12.41 -3.22,27.45 2.72,10.13 4.64,20.55 6.88,29.43 38.34,151.91 84.42,286.23 146.95,431.43l95.96 194.23c25.02,46.62 53.05,90.53 80.04,135.59 66.39,110.86 147.82,212.64 231.06,311.04l68.61 76.48c28.39,28.23 60.01,67.61 90.34,91.03l73.4 69.68c-2.09,8.97 -5.39,14.99 -8.33,23.91l-24.21 68.5c-11.73,31.3 -34.94,109.46 -52.07,135.35 -31.66,47.89 -70.48,58.4 -126.99,58.4 -76.7,0 -138.26,-11.87 -203.54,-44.33 -20.31,-10.1 -39.83,-22.94 -56.87,-37.84 -5.82,-5.08 -10.72,-8.51 -16.21,-14.02 -11,-11.06 -54.92,-54.11 -45.82,-73.09 9.43,-9.42 80.22,27.48 134.79,17.91 40.54,-7.11 72.21,-38.75 88.89,-70.3 -9.02,-0.75 -40.75,-16.54 -51.54,-21 -63.93,-26.41 -129.08,-63.9 -186.23,-101.95l-42.35 -28.19c-28.73,-19.03 -54.13,-40.25 -81.48,-61.59l-48.92 -41.78c-9.81,-8.21 -17.45,-18.89 -27.64,-26.76 -13.64,-10.53 -58.48,-58.72 -69.98,-73.1l-32.58 -39.97c-32.45,-40.08 -60.07,-82.1 -86.9,-126.73 -35.15,-58.43 -67.28,-127.61 -90.57,-197.6 -12.03,-36.15 -23.5,-72.23 -31.66,-111.43 -2.04,-9.81 -4.41,-18.95 -6.56,-29.93 -2.31,-11.79 2.22,-15.98 7.88,-25.51 9.12,-15.32 17.07,-30.14 25.02,-45.51 4.21,-8.13 8.16,-14.26 12.77,-23.51l61.17 -118.18c4.45,-8.89 6.89,-15.95 11.4,-24.88l76.78 -173.12c4.13,-10.34 18.57,-42.66 19.28,-51.24l-52.79 82.23c-36.01,53.97 -71.19,108.03 -110.15,159.9 -26.44,35.19 -63.3,80.91 -87.34,116.19 -9.2,13.5 -18.45,25.81 -25.82,40.69 -55.39,111.83 -42.19,225.04 -15.71,338.18 36.74,156.89 63.96,304.99 66.02,472.05 0.15,12.02 2.18,18.01 2.11,32.15l0.07 68.61c-0.15,11.84 -2.2,16.55 -2.12,30.12 0.11,18.47 0.16,50.66 -5.36,63.16 -20.56,46.67 -42.71,92.14 -62.28,139.25l-20.33 46.17c-4.41,9.19 -13.95,39.3 -22.84,43.66 -12.53,6.15 -191.39,18.18 -221.68,18.14 -60.14,-0.08 -304.74,12.44 -232.59,-97.58 23.81,-36.3 23.4,-14.12 90.34,-28.56 18.2,-3.93 45.39,-11.63 58.84,-19.76 89.31,-53.93 4.68,-113.87 28.45,-293.98 10.52,-79.69 -24.9,-138.67 -71.99,-198.95l-18.43 -21.87c-17.88,-22.23 -58.19,-62.13 -66.5,-72.55 -8.61,-10.79 -20.53,-20.3 -29.08,-31.37 -11.23,-14.54 -26.06,-26.95 -37.43,-41.17l-35.51 -43.09c-75.75,-92.17 -112.92,-189.79 -125.73,-311.58 -4.17,-39.62 -2.25,-72.74 -1.77,-113.25 0.47,-40.57 17.84,-122.16 18.22,-138.97 -11.52,6.09 -21.89,13.82 -33.61,20.8 -58.7,34.93 -117.52,64.45 -180.57,91.49 -13.27,5.69 -24.73,10.56 -38.57,15.84 -14.02,5.32 -26.27,8.91 -40.04,14.36 -52.13,20.63 -115.69,35.71 -170.56,47.09 -48.48,10.05 -139.78,26.05 -191.59,26.05 4.77,20.53 48.26,88.92 67.66,196.33 68.4,378.63 -274.7,387.13 -244.89,782.96 0.37,4.86 2.65,26.76 3.85,30.41 3.07,9.2 9.39,7.6 20.52,11.73 16.22,6.01 31.2,12.11 46.33,18.15 53.25,21.29 132.54,53.4 178.68,83.29 19.61,12.71 41.1,24.44 53.98,44.78 37.82,59.72 -152.54,61.6 -214.69,61.65l-8.19 0c-106.41,0 -326.01,-7.84 -439.7,-21.79 -90.9,-11.14 -145.18,-95.47 -113.76,-191.09 21.63,-65.82 42.2,-135.49 59.3,-202.69l42.5 -157c5.01,-16.91 8.67,-33.45 13.14,-51.35 16.07,-64.27 39.66,-155.19 12.17,-223.37 -18.47,-45.82 -53.99,-79.3 -96.93,-100.56 -15.42,-7.63 -27.72,-13.95 -42.36,-22.14 -8.41,-4.7 -13.92,-7.13 -22.17,-12.08l-57.93 -38.8c-7.33,-5.5 -12.68,-9.82 -19.28,-14.98 -18.69,-14.6 -38.83,-35.92 -51.24,-45.5 -17.35,-13.4 -66.4,-70.12 -79.47,-87.78 -58.45,-78.92 -91.28,-131.84 -134.62,-224.09 -10.71,-22.78 -20.36,-47.85 -26.89,-71.85 -12.4,-45.58 -23.94,-85.21 -24.18,-139.09 -0.5,-107.18 60.22,-207.5 130.51,-282.61 3.88,-4.13 3.7,-4.89 7.13,-8.99 14.24,-17.03 77.09,-78.97 99.32,-96.16 6.62,-5.13 10.46,-9.49 17.26,-14.99 36.46,-29.35 71.38,-60.23 109.12,-88.38 87.56,-65.33 175.31,-130.21 265.81,-191.65 7.29,-4.95 13.13,-8.49 20.59,-13.66l136.22 -93.53c65.96,-43.97 131.9,-87.54 199.89,-128.59l254.87 -138.11c8.04,-4.05 14.18,-6.01 22.2,-10.03 51.86,-25.97 107.91,-49.54 162.17,-69.59 16.23,-6 30.64,-10.86 47.22,-17.28 130.14,-50.31 286.62,-83.27 426.38,-97.58 58.81,-6.02 127.95,-10.61 187.1,-10.39l62.95 1.54 -44.81 -45.87 18.53 0 0.01 0.04zm594.09 1223.26l0 0zm-46.34 -697.27c0,-36.33 13.42,-68.81 34.49,-84.41 26.37,-19.52 60.92,-18.19 94.94,-8.75 44.11,12.24 74.24,42.24 97.17,80.16 5.3,8.75 15.22,32.86 15.22,45.24 0,50.06 -92.7,-12.97 -92.7,30.23 0,36.71 44.34,73.35 44.34,100.76 0,39.1 -135.89,19.95 -178.52,-91.52 -7.57,-19.79 -14.95,-49.84 -14.95,-71.71l0.01 0z"/>
     <path class="fil1" d="M962.5 3982.56l0 3.17c0.05,66.3 1.76,107.67 32.91,169.47 18.93,37.54 37.38,66.87 64.42,98.81 25.17,29.71 52.31,54.33 83.72,77.49 32.69,24.13 121.81,74.58 165.11,31.48 13.3,-13.24 13.94,-17.39 22.62,-33.82 9.3,0.78 20.04,6 29.5,8.79 45.54,13.44 147.76,43.8 191.35,28.68 51.65,-17.93 -15.6,-76.94 -25.67,-89.56l-43.56 -47.12c-22.09,-22.05 -50.49,-63.39 -64.96,-92.23 -68.3,-136.16 40.16,-272.06 135.5,-360.25 38.32,-35.45 108.83,-88.81 151.06,-116.97 9.39,-6.26 17,-11.32 26.6,-17.73 10.11,-6.74 18.04,-11.44 28.22,-18.13 9.9,-6.51 107.99,-63.29 112.04,-69.34 -17.19,-4.01 -112.67,-66.98 -125.25,-76.27 -46.56,-34.4 -124.36,-98.96 -160.33,-141.97l-23.27 -27.11c-8.14,-9.14 -15.09,-17.77 -22.8,-27.59l-62.95 -88.18c-3.54,-5.51 -5.49,-9.2 -9.27,-14.92 -3.3,-5 -7.79,-11.46 -9.25,-16.94 -7.46,1.99 -11.37,10.79 -19.52,20.78 -31.54,38.63 -91.13,126.07 -117.9,170.28 -30.38,50.15 -53.72,121.69 -66.91,178.95 -16.67,72.38 -8.73,97.44 -71.12,174.74 -19.92,24.68 -37.87,41.44 -59.58,63.36 -7.48,7.55 -14.39,12.9 -22.15,20.16 -19.36,18.12 -73.5,57.63 -93.38,71.87 -37.55,26.91 -45.19,73.08 -45.19,120.07l0.01 0.03z"/>
   </g>
  </g>
 </g>
</svg>
