<?xml version="1.0" standalone="no"?>
<!DOCTYPE svg PUBLIC "-//W3C//DTD SVG 20010904//EN"
 "http://www.w3.org/TR/2001/REC-SVG-20010904/DTD/svg10.dtd">
<svg version="1.0" xmlns="http://www.w3.org/2000/svg" width="100%" height="100%" viewBox="0 0 848.000000 980.000000"
 preserveAspectRatio="xMidYMid meet">
<metadata>
Created by potrace 1.16, written by Peter Selinger 2001-2019
</metadata>
<g transform="translate(0.000000,980.000000) scale(0.100000,-0.100000)"
fill="#000000" stroke="none">
<path d="M2604 9789 c-47 -13 -111 -83 -148 -163 -92 -193 -110 -452 -81
-1121 17 -392 16 -612 -5 -685 -9 -32 -20 -40 -132 -97 -178 -90 -278 -149
-498 -293 -107 -70 -276 -171 -375 -225 -407 -221 -503 -323 -638 -680 -67
-177 -77 -198 -167 -350 -528 -899 -689 -1990 -445 -3012 348 -1453 1518
-2627 3008 -3018 557 -146 1130 -181 1709 -104 776 103 1497 411 2119 906 165
131 502 466 631 628 689 861 994 1913 868 3000 -89 775 -376 1553 -776 2102
-86 118 -113 180 -148 337 -33 148 -34 167 -3 264 165 513 205 1047 126 1647
-26 195 -41 251 -95 360 -83 169 -133 215 -231 215 -172 -1 -367 -168 -1029
-880 -427 -459 -518 -544 -643 -603 -62 -29 -65 -30 -180 -24 -148 8 -245 26
-511 92 -423 106 -592 130 -846 119 l-149 -7 -58 53 c-76 70 -110 120 -146
220 -72 196 -334 619 -571 922 -83 106 -260 285 -325 329 -101 68 -186 90
-261 68z m154 -209 c73 -49 220 -201 328 -341 213 -274 446 -655 518 -847 54
-147 172 -289 286 -344 43 -21 58 -22 300 -23 288 -1 298 -2 690 -100 353 -88
421 -99 610 -100 159 0 167 1 222 27 32 15 84 44 115 65 81 53 313 282 597
588 510 552 748 775 867 817 36 12 40 8 99 -103 48 -92 62 -151 92 -374 30
-231 33 -709 5 -910 -31 -220 -103 -527 -162 -694 -11 -31 -10 -53 1 -132 34
-231 92 -385 198 -528 369 -498 642 -1211 740 -1936 41 -299 45 -698 11 -985
-124 -1043 -681 -2002 -1541 -2652 -524 -395 -1153 -665 -1799 -772 -276 -45
-354 -51 -705 -51 -291 1 -357 4 -505 24 -884 118 -1639 467 -2282 1051 -687
626 -1124 1476 -1240 2410 -25 203 -25 675 0 880 71 579 242 1087 523 1561 75
127 97 173 165 352 121 320 187 388 583 601 98 53 263 152 365 220 213 141
297 191 494 290 127 64 144 75 169 116 48 77 60 166 60 420 -1 124 -6 311 -11
415 -14 250 -14 657 0 770 23 189 75 325 123 325 13 0 51 -18 84 -40z"/>
<path d="M1773 6340 c-24 -12 -67 -48 -97 -80 -102 -110 -158 -241 -159 -371
-1 -65 4 -85 28 -134 52 -102 201 -214 308 -232 116 -19 278 149 368 381 61
158 48 239 -55 342 -76 76 -144 104 -266 111 -73 4 -91 1 -127 -17z m47 -118
c0 -37 -17 -52 -56 -52 l-32 0 -7 -88 c-12 -149 20 -297 85 -404 17 -28 28
-53 25 -56 -11 -11 -75 31 -116 76 -23 24 -53 69 -67 100 -23 49 -27 70 -27
152 0 84 3 101 28 148 34 66 112 146 133 138 9 -3 12 -1 9 4 -3 6 1 10 9 10
11 0 16 -9 16 -28z"/>
<path d="M4275 5897 c-114 -43 -236 -139 -340 -270 -121 -152 -199 -339 -175
-426 13 -51 31 -64 122 -95 42 -14 116 -48 164 -75 111 -64 185 -88 306 -101
153 -16 265 16 401 114 81 57 249 232 315 325 l52 73 -33 46 c-50 71 -203 227
-276 282 -85 64 -183 116 -257 135 -86 22 -206 19 -279 -8z m200 -181 c20 -13
25 -24 25 -61 0 -26 -6 -50 -16 -59 -19 -19 -35 -12 -108 46 -29 23 -58 38
-70 36 -28 -4 -62 -74 -82 -169 -19 -84 -24 -336 -10 -436 6 -41 5 -63 -1 -63
-10 0 -114 71 -177 121 -43 34 -57 79 -57 177 1 186 84 361 196 414 34 16 57
18 157 15 87 -3 124 -8 143 -21z"/>
<path d="M1455 4749 c-245 -33 -420 -128 -477 -257 -25 -57 -35 -166 -19 -214
12 -38 85 -118 190 -211 l64 -57 -37 0 c-55 0 -96 -43 -96 -103 0 -91 102
-236 211 -299 87 -50 141 -61 268 -55 176 9 326 42 362 78 10 10 19 30 19 44
0 33 -33 98 -76 151 l-34 42 58 -32 c51 -28 66 -31 142 -31 75 0 93 4 152 32
169 80 279 257 266 428 -17 206 -219 380 -536 461 -111 29 -335 40 -457 23z"/>
<path d="M1334 3130 c-114 -17 -200 -61 -257 -132 -23 -29 -31 -51 -35 -91
-12 -144 124 -241 455 -327 88 -23 158 -33 325 -45 117 -8 264 -22 326 -30
278 -37 800 -37 1092 1 247 31 451 99 539 179 45 41 81 101 81 135 0 20 -4 21
-57 15 -282 -31 -579 -77 -907 -141 -176 -34 -180 -34 -240 -19 -34 9 -113 44
-176 79 -148 82 -153 84 -418 166 -147 46 -244 82 -281 105 -143 86 -311 126
-447 105z"/>
</g>
</svg>
