<svg width="69" height="69" viewBox="0 0 69 69" fill="none" xmlns="http://www.w3.org/2000/svg">
<g clip-path="url(#clip0_215_21)">
<path d="M34.5 69C53.5538 69 69 53.5538 69 34.5C69 15.4462 53.5538 0 34.5 0C15.4462 0 0 15.4462 0 34.5C0 53.5538 15.4462 69 34.5 69Z" fill="#35D07F"/>
<path d="M33.0514 52.5784C39.8134 52.5784 45.5404 48.2314 47.6794 42.2284H43.4704C41.6074 46.0924 37.6054 48.7144 33.0514 48.7144C26.6344 48.7144 21.3904 43.4704 21.3904 37.0534C21.3904 32.4994 24.0124 28.4974 27.8764 26.6344V22.4254C21.8734 24.5644 17.5264 30.2914 17.5264 37.0534C17.5264 45.6094 24.4954 52.5784 33.0514 52.5784ZM41.9524 33.6034V27.9454C43.8844 28.4284 45.4024 29.0494 45.4024 30.7054C45.4024 32.2234 44.0914 33.3274 41.9524 33.6034ZM39.3304 38.8474H42.0904V36.7084C46.1614 36.2254 48.7834 33.8794 48.7834 30.7054C48.7834 26.2894 45.2644 25.3234 41.9524 24.7024V18.8374C43.5394 18.9754 45.2644 19.4584 46.8514 20.2174V16.7674C45.3334 16.2154 43.6774 15.8704 42.0904 15.8014V13.7314H39.3304V15.8014C35.1214 16.2844 32.7064 18.6304 32.7064 21.5974C32.7064 26.0824 36.1564 27.1174 39.4684 27.7384V33.6034C37.4674 33.3274 35.3284 32.4994 32.8444 31.1884V34.8454C34.9834 35.8804 37.1914 36.5704 39.3304 36.7084V38.8474ZM39.4684 24.4264C37.5364 24.0124 36.0874 23.3224 36.0874 21.5974C36.0874 20.0104 37.3294 19.0444 39.4684 18.8374V24.4264Z" fill="white"/>
</g>
<defs>
<clipPath id="clip0_215_21">
<rect width="69" height="69" fill="white"/>
</clipPath>
</defs>
</svg>
