<?xml version="1.0" encoding="UTF-8" standalone="no"?>
<svg xmlns="http://www.w3.org/2000/svg" version="1.0" width="995.73413" height="1000.0" id="C:\tom\34-gon-dissection-random.svg">
<!-- X Coordinate transform: fx(x)=(x+5.665652)*87.87463-->
<!-- Y Coordinate transform: fy(y)=(5.6899242-y)*87.87463 -->
<!-- Flac geometry view -->
<g style="opacity:1.0;fill:#5a5aff;fill-opacity:1;stroke:#000000;stroke-width:4;stroke-opacity:0.80;">  <!-- areaindex 0 -->
<polygon points=" 177.06,851.909 117.859,786.969 71.599,712.256 130.8,777.197"/>
<polygon points=" 71.599,712.256 141.724,765.213 200.925,830.153 130.8,777.197"/>
<polygon points=" 818.675,851.909 748.549,904.865 669.887,944.034 740.012,891.078"/>
<polygon points=" 669.887,944.034 729.088,879.094 799.213,826.138 740.012,891.078"/>
<polygon points=" 877.875,786.969 799.213,826.138 714.693,850.186 793.355,811.017"/>
<polygon points=" 325.847,55.966 410.367,31.918 497.867,23.809 413.347,47.858"/>
<polygon points=" 71.599,287.744 117.859,213.031 177.06,148.091 130.8,222.803"/>
<polygon points=" 972.026,456.063 972.026,543.937 955.879,630.316 955.879,542.441"/>
<polygon points=" 500.847,55.966 585.367,80.014 664.029,119.183 579.509,95.135"/>
<polygon points=" 877.875,786.969 909.619,705.028 955.879,630.316 924.135,712.256"/>
<polygon points=" 497.867,976.191 410.367,968.083 325.847,944.034 413.347,952.143"/>
<polygon points=" 325.847,944.034 413.347,935.926 500.847,944.034 413.347,952.143"/>
<polygon points=" 200.925,830.153 169.181,748.212 153.034,661.834 184.778,743.774"/>
<polygon points=" 71.599,287.744 55.452,374.122 23.708,456.063 39.855,369.684"/>
<polygon points=" 288.425,161.739 367.087,200.908 437.212,253.865 358.55,214.695"/>
<polygon points=" 504.292,789.046 488.145,702.667 488.145,614.793 504.292,701.171"/>
<polygon points=" 583.913,326.913 630.173,401.625 661.917,483.566 615.657,408.853"/>
</g>
<g style="opacity:1.0;fill:#5abf5a;fill-opacity:1;stroke:#000000;stroke-width:4;stroke-opacity:0.80;">  <!-- areaindex 1 -->
<polygon points=" 177.06,851.909 130.8,777.197 200.925,830.153 247.185,904.865"/>
<polygon points=" 818.675,851.909 740.012,891.078 799.213,826.138 877.875,786.969"/>
<polygon points=" 325.847,55.966 413.347,47.858 334.685,87.027 247.185,95.135"/>
<polygon points=" 497.867,23.809 585.367,31.918 500.847,55.966 413.347,47.858"/>
<polygon points=" 799.213,826.138 729.088,879.094 644.568,903.142 714.693,850.186"/>
<polygon points=" 177.06,148.091 247.185,95.135 200.925,169.847 130.8,222.803"/>
<polygon points=" 200.925,830.153 141.724,765.213 109.98,683.272 169.181,748.212"/>
<polygon points=" 585.367,968.083 617.111,886.142 676.312,821.202 644.568,903.142"/>
<polygon points=" 664.029,119.183 734.154,172.139 649.634,148.091 579.509,95.135"/>
<polygon points=" 334.685,87.027 422.185,95.135 500.847,134.304 413.347,126.196"/>
<polygon points=" 585.367,968.083 497.867,976.191 413.347,952.143 500.847,944.034"/>
<polygon points=" 445.091,853.986 398.831,779.273 382.684,692.895 428.944,767.607"/>
<polygon points=" 871.359,566.489 855.212,480.111 871.359,393.732 887.506,480.111"/>
<polygon points=" 240.534,653.726 240.534,565.851 272.278,483.91 272.278,571.785"/>
<polygon points=" 304.022,653.726 272.278,571.785 272.278,483.91 304.022,565.851"/>
<polygon points=" 437.212,253.865 496.413,318.805 417.751,279.636 358.55,214.695"/>
<polygon points=" 871.359,393.732 855.212,480.111 808.952,554.823 825.099,468.445"/>
</g>
<g style="opacity:1.0;fill:#5abfbf;fill-opacity:1;stroke:#000000;stroke-width:4;stroke-opacity:0.80;">  <!-- areaindex 2 -->
<polygon points=" 669.887,944.034 585.367,968.083 644.568,903.142 729.088,879.094"/>
<polygon points=" 413.347,47.858 500.847,55.966 422.185,95.135 334.685,87.027"/>
<polygon points=" 585.367,31.918 669.887,55.966 585.367,80.014 500.847,55.966"/>
<polygon points=" 71.599,712.256 39.855,630.316 109.98,683.272 141.724,765.213"/>
<polygon points=" 955.879,630.316 909.619,705.028 909.619,617.154 955.879,542.441"/>
<polygon points=" 130.8,222.803 200.925,169.847 288.425,161.739 218.299,214.695"/>
<polygon points=" 109.98,683.272 93.833,596.894 153.034,661.834 169.181,748.212"/>
<polygon points=" 644.568,903.142 676.312,821.202 746.437,768.245 714.693,850.186"/>
<polygon points=" 734.154,172.139 793.355,237.079 708.835,213.031 649.634,148.091"/>
<polygon points=" 579.509,95.135 533.249,169.847 454.587,209.016 500.847,134.304"/>
<polygon points=" 247.185,904.865 334.685,896.757 413.347,935.926 325.847,944.034"/>
<polygon points=" 413.347,935.926 334.685,896.757 288.425,822.045 367.087,861.214"/>
<polygon points=" 218.299,214.695 202.152,301.074 142.952,366.014 159.099,279.636"/>
<polygon points=" 367.087,200.908 454.587,209.016 524.712,261.973 437.212,253.865"/>
<polygon points=" 288.425,822.045 272.278,735.666 304.022,653.726 320.169,740.104"/>
<polygon points=" 488.145,702.667 441.885,627.955 441.885,540.08 488.145,614.793"/>
<polygon points=" 583.913,326.913 615.657,408.853 599.51,495.232 567.766,413.291"/>
</g>
<g style="opacity:1.0;fill:#bf5a5a;fill-opacity:1;stroke:#000000;stroke-width:4;stroke-opacity:0.80;">  <!-- areaindex 3 -->
<polygon points=" 71.599,287.744 130.8,222.803 218.299,214.695 159.099,279.636"/>
<polygon points=" 39.855,630.316 23.708,543.937 93.833,596.894 109.98,683.272"/>
<polygon points=" 669.887,55.966 748.549,95.135 664.029,119.183 585.367,80.014"/>
<polygon points=" 714.693,850.186 746.437,768.245 825.099,729.076 793.355,811.017"/>
<polygon points=" 288.425,161.739 272.278,248.118 202.152,301.074 218.299,214.695"/>
<polygon points=" 955.879,542.441 909.619,617.154 825.099,641.202 871.359,566.489"/>
<polygon points=" 55.452,374.122 142.952,366.014 213.077,418.97 125.577,427.078"/>
<polygon points=" 272.278,735.666 240.534,653.726 272.278,571.785 304.022,653.726"/>
<polygon points=" 240.534,653.726 181.333,588.786 181.333,500.911 240.534,565.851"/>
<polygon points=" 825.099,641.202 808.952,554.823 855.212,480.111 871.359,566.489"/>
<polygon points=" 524.712,261.973 583.913,326.913 496.413,318.805 437.212,253.865"/>
<polygon points=" 591.792,797.154 504.292,789.046 574.417,736.089 661.917,744.197"/>
<polygon points=" 304.022,653.726 304.022,565.851 363.223,500.911 363.223,588.786"/>
<polygon points=" 662.575,287.744 747.095,311.792 793.355,386.504 708.835,362.456"/>
<polygon points=" 793.355,386.504 714.693,425.673 630.173,401.625 708.835,362.456"/>
<polygon points=" 645.77,569.944 599.51,495.232 615.657,408.853 661.917,483.566"/>
<polygon points=" 512.01,487.124 433.348,447.955 401.604,366.014 480.266,405.183"/>
</g>
<g style="opacity:1.0;fill:#af5aaf;fill-opacity:1;stroke:#000000;stroke-width:4;stroke-opacity:0.80;">  <!-- areaindex 4 -->
<polygon points=" 247.185,95.135 334.685,87.027 288.425,161.739 200.925,169.847"/>
<polygon points=" 877.875,786.969 793.355,811.017 825.099,729.076 909.619,705.028"/>
<polygon points=" 23.708,543.937 23.708,456.063 93.833,509.019 93.833,596.894"/>
<polygon points=" 748.549,95.135 818.675,148.091 734.154,172.139 664.029,119.183"/>
<polygon points=" 500.847,55.966 579.509,95.135 500.847,134.304 422.185,95.135"/>
<polygon points=" 93.833,596.894 181.333,588.786 240.534,653.726 153.034,661.834"/>
<polygon points=" 746.437,768.245 676.312,821.202 591.792,797.154 661.917,744.197"/>
<polygon points=" 532.591,862.094 445.091,853.986 504.292,789.046 591.792,797.154"/>
<polygon points=" 413.347,935.926 367.087,861.214 398.831,779.273 445.091,853.986"/>
<polygon points=" 398.831,779.273 320.169,740.104 304.022,653.726 382.684,692.895"/>
<polygon points=" 839.615,311.792 871.359,393.732 825.099,468.445 793.355,386.504"/>
<polygon points=" 445.091,853.986 428.944,767.607 488.145,702.667 504.292,789.046"/>
<polygon points=" 358.55,214.695 417.751,279.636 401.604,366.014 342.403,301.074"/>
<polygon points=" 504.292,789.046 504.292,701.171 574.417,648.215 574.417,736.089"/>
<polygon points=" 808.952,554.823 730.29,593.992 746.437,507.614 825.099,468.445"/>
<polygon points=" 630.173,401.625 714.693,425.673 746.437,507.614 661.917,483.566"/>
<polygon points=" 558.27,561.836 512.01,487.124 599.51,495.232 645.77,569.944"/>
</g>
<g style="opacity:1.0;fill:#bfbf5a;fill-opacity:1;stroke:#000000;stroke-width:4;stroke-opacity:0.80;">  <!-- areaindex 5 -->
<polygon points=" 247.185,904.865 200.925,830.153 288.425,822.045 334.685,896.757"/>
<polygon points=" 972.026,456.063 955.879,542.441 871.359,566.489 887.506,480.111"/>
<polygon points=" 818.675,148.091 877.875,213.031 793.355,237.079 734.154,172.139"/>
<polygon points=" 825.099,729.076 746.437,768.245 746.437,680.371 825.099,641.202"/>
<polygon points=" 793.355,237.079 839.615,311.792 793.355,386.504 747.095,311.792"/>
<polygon points=" 500.847,134.304 454.587,209.016 367.087,200.908 413.347,126.196"/>
<polygon points=" 676.312,821.202 617.111,886.142 532.591,862.094 591.792,797.154"/>
<polygon points=" 454.587,209.016 533.249,169.847 603.374,222.803 524.712,261.973"/>
<polygon points=" 93.833,509.019 125.577,427.078 213.077,418.97 181.333,500.911"/>
<polygon points=" 181.333,500.911 213.077,418.97 272.278,483.91 240.534,565.851"/>
<polygon points=" 288.425,161.739 358.55,214.695 342.403,301.074 272.278,248.118"/>
<polygon points=" 272.278,483.91 331.479,418.97 363.223,500.911 304.022,565.851"/>
<polygon points=" 746.437,680.371 661.917,656.323 645.77,569.944 730.29,593.992"/>
<polygon points=" 441.885,627.955 363.223,588.786 363.223,500.911 441.885,540.08"/>
<polygon points=" 574.417,648.215 504.292,701.171 488.145,614.793 558.27,561.836"/>
<polygon points=" 441.885,540.08 363.223,500.911 433.348,447.955 512.01,487.124"/>
<polygon points=" 512.01,487.124 480.266,405.183 567.766,413.291 599.51,495.232"/>
</g>
<g style="opacity:1.0;fill:#a6a6ff;fill-opacity:1;stroke:#000000;stroke-width:4;stroke-opacity:0.80;">  <!-- areaindex 6 -->
<polygon points=" 877.875,213.031 924.135,287.744 839.615,311.792 793.355,237.079"/>
<polygon points=" 909.619,705.028 825.099,729.076 825.099,641.202 909.619,617.154"/>
<polygon points=" 23.708,456.063 55.452,374.122 125.577,427.078 93.833,509.019"/>
<polygon points=" 500.847,944.034 413.347,935.926 445.091,853.986 532.591,862.094"/>
<polygon points=" 71.599,287.744 159.099,279.636 142.952,366.014 55.452,374.122"/>
<polygon points=" 153.034,661.834 240.534,653.726 272.278,735.666 184.778,743.774"/>
<polygon points=" 649.634,148.091 708.835,213.031 662.575,287.744 603.374,222.803"/>
<polygon points=" 793.355,237.079 747.095,311.792 662.575,287.744 708.835,213.031"/>
<polygon points=" 603.374,222.803 662.575,287.744 583.913,326.913 524.712,261.973"/>
<polygon points=" 746.437,768.245 661.917,744.197 661.917,656.323 746.437,680.371"/>
<polygon points=" 825.099,641.202 746.437,680.371 730.29,593.992 808.952,554.823"/>
<polygon points=" 202.152,301.074 272.278,248.118 342.403,301.074 272.278,354.03"/>
<polygon points=" 304.022,653.726 363.223,588.786 441.885,627.955 382.684,692.895"/>
<polygon points=" 382.684,692.895 441.885,627.955 488.145,702.667 428.944,767.607"/>
<polygon points=" 496.413,318.805 480.266,405.183 401.604,366.014 417.751,279.636"/>
<polygon points=" 661.917,656.323 574.417,648.215 558.27,561.836 645.77,569.944"/>
<polygon points=" 331.479,418.97 401.604,366.014 433.348,447.955 363.223,500.911"/>
</g>
<g style="opacity:1.0;fill:#a6ffa6;fill-opacity:1;stroke:#000000;stroke-width:4;stroke-opacity:0.80;">  <!-- areaindex 7 -->
<polygon points=" 334.685,87.027 413.347,126.196 367.087,200.908 288.425,161.739"/>
<polygon points=" 93.833,596.894 93.833,509.019 181.333,500.911 181.333,588.786"/>
<polygon points=" 585.367,968.083 500.847,944.034 532.591,862.094 617.111,886.142"/>
<polygon points=" 200.925,830.153 184.778,743.774 272.278,735.666 288.425,822.045"/>
<polygon points=" 579.509,95.135 649.634,148.091 603.374,222.803 533.249,169.847"/>
<polygon points=" 924.135,287.744 955.879,369.684 871.359,393.732 839.615,311.792"/>
<polygon points=" 142.952,366.014 202.152,301.074 272.278,354.03 213.077,418.97"/>
<polygon points=" 288.425,822.045 320.169,740.104 398.831,779.273 367.087,861.214"/>
<polygon points=" 972.026,456.063 887.506,480.111 871.359,393.732 955.879,369.684"/>
<polygon points=" 272.278,483.91 213.077,418.97 272.278,354.03 331.479,418.97"/>
<polygon points=" 661.917,744.197 574.417,736.089 574.417,648.215 661.917,656.323"/>
<polygon points=" 662.575,287.744 708.835,362.456 630.173,401.625 583.913,326.913"/>
<polygon points=" 793.355,386.504 825.099,468.445 746.437,507.614 714.693,425.673"/>
<polygon points=" 583.913,326.913 567.766,413.291 480.266,405.183 496.413,318.805"/>
<polygon points=" 272.278,354.03 342.403,301.074 401.604,366.014 331.479,418.97"/>
<polygon points=" 488.145,614.793 441.885,540.08 512.01,487.124 558.27,561.836"/>
<polygon points=" 746.437,507.614 730.29,593.992 645.77,569.944 661.917,483.566"/>
</g>
<g style="stroke:#000000;stroke-width:4;stroke-opacity:0.50;fill-opacity:0.0">
<!-- Group: <Default>-->
<polyline points=" 71.599,712.256 39.855,630.316 23.708,543.937 23.708,456.063 39.855,369.684 71.599,287.744 117.859,213.031 177.06,148.091 247.185,95.135 325.847,55.966 410.367,31.918 497.867,23.809 585.367,31.918 669.887,55.966 748.549,95.135 818.675,148.091 877.875,213.031 924.135,287.744 955.879,369.684 972.026,456.063 972.026,543.937 955.879,630.316 924.135,712.256 877.875,786.969 818.675,851.909 748.549,904.865 669.887,944.034 585.367,968.083 497.867,976.191 410.367,968.083 325.847,944.034 247.185,904.865 177.06,851.909 130.8,777.197 71.599,712.256 117.859,786.969"/>
<polyline points=" 117.859,786.969 177.06,851.909"/>
<polyline points=" 669.887,944.034 740.012,891.078 818.675,851.909"/>
<polyline points=" 585.367,968.083 644.568,903.142 714.693,850.186 799.213,826.138 877.875,786.969"/>
<polyline points=" 799.213,826.138 740.012,891.078"/>
<polyline points=" 497.867,23.809 413.347,47.858 325.847,55.966"/>
<polyline points=" 799.213,826.138 729.088,879.094 669.887,944.034"/>
<polyline points=" 71.599,287.744 130.8,222.803 177.06,148.091"/>
<polyline points=" 413.347,935.926 445.091,853.986 504.292,789.046 504.292,701.171 574.417,648.215 661.917,656.323 746.437,680.371 825.099,641.202 871.359,566.489 887.506,480.111 871.359,393.732 839.615,311.792 793.355,237.079 734.154,172.139 664.029,119.183 585.367,80.014 500.847,55.966 413.347,47.858"/>
<polyline points=" 247.185,95.135 334.685,87.027 422.185,95.135 500.847,55.966 585.367,31.918"/>
<polyline points=" 23.708,543.937 93.833,596.894 153.034,661.834 169.181,748.212 200.925,830.153 247.185,904.865"/>
<polyline points=" 200.925,830.153 130.8,777.197"/>
<polyline points=" 200.925,830.153 141.724,765.213 71.599,712.256"/>
<polyline points=" 644.568,903.142 729.088,879.094"/>
<polyline points=" 955.879,630.316 955.879,542.441 972.026,456.063"/>
<polyline points=" 247.185,95.135 200.925,169.847 130.8,222.803"/>
<polyline points=" 125.577,427.078 93.833,509.019 93.833,596.894 109.98,683.272 141.724,765.213"/>
<polyline points=" 169.181,748.212 109.98,683.272 39.855,630.316"/>
<polyline points=" 585.367,80.014 669.887,55.966"/>
<polyline points=" 955.879,630.316 909.619,705.028 877.875,786.969"/>
<polyline points=" 413.347,47.858 334.685,87.027"/>
<polyline points=" 500.847,55.966 579.509,95.135 664.029,119.183 748.549,95.135"/>
<polyline points=" 579.509,95.135 649.634,148.091 734.154,172.139 818.675,148.091"/>
<polyline points=" 497.867,976.191 413.347,952.143 325.847,944.034"/>
<polyline points=" 714.693,850.186 793.355,811.017 877.875,786.969"/>
<polyline points=" 708.835,213.031 662.575,287.744 583.913,326.913 496.413,318.805 437.212,253.865 367.087,200.908 288.425,161.739 200.925,169.847"/>
<polyline points=" 142.952,366.014 159.099,279.636 218.299,214.695 288.425,161.739 334.685,87.027"/>
<polyline points=" 649.634,148.091 708.835,213.031 793.355,237.079 877.875,213.031"/>
<polyline points=" 218.299,214.695 130.8,222.803"/>
<polyline points=" 909.619,705.028 825.099,729.076 746.437,768.245 676.312,821.202 617.111,886.142 585.367,968.083"/>
<polyline points=" 955.879,369.684 871.359,393.732 825.099,468.445 808.952,554.823 825.099,641.202 825.099,729.076 793.355,811.017"/>
<polyline points=" 23.708,456.063 93.833,509.019 181.333,500.911 240.534,565.851 240.534,653.726 272.278,735.666 288.425,822.045 334.685,896.757 413.347,935.926 500.847,944.034 585.367,968.083"/>
<polyline points=" 500.847,944.034 413.347,952.143"/>
<polyline points=" 955.879,542.441 909.619,617.154 909.619,705.028"/>
<polyline points=" 579.509,95.135 500.847,134.304 422.185,95.135"/>
<polyline points=" 413.347,935.926 325.847,944.034"/>
<polyline points=" 334.685,896.757 247.185,904.865"/>
<polyline points=" 367.087,200.908 454.587,209.016 524.712,261.973 583.913,326.913 630.173,401.625 714.693,425.673 746.437,507.614 730.29,593.992 746.437,680.371 746.437,768.245 714.693,850.186"/>
<polyline points=" 413.347,935.926 367.087,861.214 288.425,822.045 200.925,830.153"/>
<polyline points=" 159.099,279.636 71.599,287.744"/>
<polyline points=" 714.693,425.673 793.355,386.504 839.615,311.792 924.135,287.744"/>
<polyline points=" 153.034,661.834 184.778,743.774 200.925,830.153"/>
<polyline points=" 676.312,821.202 644.568,903.142"/>
<polyline points=" 500.847,134.304 413.347,126.196 334.685,87.027"/>
<polyline points=" 23.708,456.063 55.452,374.122 71.599,287.744"/>
<polyline points=" 367.087,200.908 413.347,126.196"/>
<polyline points=" 454.587,209.016 500.847,134.304"/>
<polyline points=" 55.452,374.122 142.952,366.014 202.152,301.074 272.278,248.118 288.425,161.739"/>
<polyline points=" 504.292,789.046 591.792,797.154 661.917,744.197 661.917,656.323 645.77,569.944 599.51,495.232 512.01,487.124 441.885,540.08 441.885,627.955 382.684,692.895 398.831,779.273 445.091,853.986 532.591,862.094 617.111,886.142"/>
<polyline points=" 591.792,797.154 532.591,862.094 500.847,944.034"/>
<polyline points=" 825.099,641.202 909.619,617.154"/>
<polyline points=" 454.587,209.016 533.249,169.847 579.509,95.135"/>
<polyline points=" 202.152,301.074 218.299,214.695"/>
<polyline points=" 272.278,735.666 184.778,743.774"/>
<polyline points=" 240.534,653.726 153.034,661.834"/>
<polyline points=" 358.55,214.695 342.403,301.074 272.278,354.03 213.077,418.97 181.333,500.911 181.333,588.786 240.534,653.726"/>
<polyline points=" 181.333,588.786 93.833,596.894"/>
<polyline points=" 871.359,566.489 955.879,542.441"/>
<polyline points=" 398.831,779.273 367.087,861.214"/>
<polyline points=" 213.077,418.97 125.577,427.078 55.452,374.122"/>
<polyline points=" 533.249,169.847 603.374,222.803 662.575,287.744 708.835,362.456 793.355,386.504 825.099,468.445"/>
<polyline points=" 649.634,148.091 603.374,222.803 524.712,261.973 437.212,253.865 358.55,214.695 288.425,161.739"/>
<polyline points=" 591.792,797.154 676.312,821.202"/>
<polyline points=" 887.506,480.111 972.026,456.063"/>
<polyline points=" 398.831,779.273 320.169,740.104 304.022,653.726 272.278,571.785 272.278,483.91 213.077,418.97 142.952,366.014"/>
<polyline points=" 320.169,740.104 288.425,822.045"/>
<polyline points=" 272.278,483.91 304.022,565.851 304.022,653.726 272.278,735.666"/>
<polyline points=" 272.278,571.785 240.534,653.726"/>
<polyline points=" 358.55,214.695 417.751,279.636 401.604,366.014 331.479,418.97 272.278,483.91 240.534,565.851"/>
<polyline points=" 504.292,789.046 574.417,736.089 661.917,744.197 746.437,768.245"/>
<polyline points=" 304.022,653.726 382.684,692.895 428.944,767.607 445.091,853.986"/>
<polyline points=" 662.575,287.744 747.095,311.792 793.355,386.504"/>
<polyline points=" 747.095,311.792 793.355,237.079"/>
<polyline points=" 504.292,789.046 488.145,702.667 488.145,614.793 558.27,561.836 645.77,569.944 730.29,593.992 808.952,554.823 855.212,480.111 871.359,393.732"/>
<polyline points=" 855.212,480.111 871.359,566.489"/>
<polyline points=" 304.022,653.726 363.223,588.786 363.223,500.911 331.479,418.97 272.278,354.03 202.152,301.074"/>
<polyline points=" 488.145,702.667 428.944,767.607"/>
<polyline points=" 512.01,487.124 433.348,447.955 401.604,366.014 342.403,301.074 272.278,248.118"/>
<polyline points=" 496.413,318.805 417.751,279.636"/>
<polyline points=" 630.173,401.625 708.835,362.456"/>
<polyline points=" 441.885,627.955 488.145,702.667"/>
<polyline points=" 574.417,736.089 574.417,648.215 558.27,561.836 512.01,487.124 480.266,405.183 496.413,318.805"/>
<polyline points=" 441.885,627.955 363.223,588.786"/>
<polyline points=" 363.223,500.911 441.885,540.08 488.145,614.793 504.292,701.171"/>
<polyline points=" 825.099,468.445 746.437,507.614 661.917,483.566 615.657,408.853 583.913,326.913"/>
<polyline points=" 645.77,569.944 661.917,483.566 630.173,401.625"/>
<polyline points=" 433.348,447.955 363.223,500.911 304.022,565.851"/>
<polyline points=" 567.766,413.291 480.266,405.183 401.604,366.014"/>
<polyline points=" 599.51,495.232 567.766,413.291 583.913,326.913"/>
<polyline points=" 599.51,495.232 615.657,408.853"/>
</g>
</svg>