<svg id="Layer_1" data-name="Layer 1" xmlns="http://www.w3.org/2000/svg" viewBox="0 0 256 256">
  <defs>
    <style>
      .cls-1 {
        fill: #2433b8;
      }

      .cls-2, .cls-3 {
        fill: #fff;
      }

      .cls-2 {
        fill-rule: evenodd;
      }
    </style>
  </defs>
  <rect class="cls-1" width="256" height="256"/>
  <path class="cls-1" d="M48,63A15,15,0,0,1,63,48H193a15.00016,15.00016,0,0,1,15,15V193a15.00035,15.00035,0,0,1-15,15H63a15.00016,15.00016,0,0,1-15-15Z"/>
  <path class="cls-2" d="M63,43H193a19.9998,19.9998,0,0,1,20,20V193a19.9996,19.9996,0,0,1-20,20H63a19.9998,19.9998,0,0,1-20-20V63A20,20,0,0,1,63,43Zm0,5A15,15,0,0,0,48,63V193a15.00016,15.00016,0,0,0,15,15H193a15.00035,15.00035,0,0,0,15-15V63a15.00016,15.00016,0,0,0-15-15Z"/>
  <path class="cls-3" d="M182.432,178.445c0-6.27-3.176-9.034-9.281-9.034h-5.445v18.975h5.692c5.981,0,9.034-2.681,9.034-8.951Z"/>
  <path class="cls-2" d="M63,154a9.99994,9.99994,0,0,0-10,10v29a9.99994,9.99994,0,0,0,10,10H193a9.99982,9.99982,0,0,0,10-10V164a9.99982,9.99982,0,0,0-10-10Zm80.118,40.326c8.538,0,12.746-3.96,12.705-9.487,0-6.311-4.785-7.92-11.922-8.745-5.61-.619-8.085-1.238-8.085-3.836,0-2.063,1.527-3.63,5.858-3.63,4.661,0,6.971,1.278,7.466,4.785h6.311c-.66-6.477-4.95-9.818-13.653-9.818-8.127,0-12.087,3.836-12.087,8.786,0,6.312,4.703,7.838,11.097,8.622,5.898.66,9.033,1.072,8.992,4.083,0,2.393-2.021,4.002-6.559,4.002-5.115,0-7.755-1.65-8.208-5.734h-6.477C129.299,190.614,133.135,194.326,143.118,194.326ZM91.5689,164.214v5.239H82.0814v24.172h-6.105V169.453h-9.075v-5.239Zm32.0981,15.262c0,10.437-4.785,14.85-13.241,14.85-8.787,0-13.2417-4.413-13.2417-14.85V164.214h6.2697V179.27c0,6.683,2.269,9.24,7.054,9.24s6.848-2.475,6.848-9.24V164.214h6.311Zm64.829.289c0,9.529-5.775,13.86-14.809,13.86H161.724V164.214h11.674c9.116,0,15.098,4.372,15.098,13.984Z"/>
  <path class="cls-3" d="M96,66h22A22.00015,22.00015,0,0,1,96,88Z"/>
  <path class="cls-3" d="M139.875,66A21.87517,21.87517,0,0,0,118,87.875V136h22V88h22V66Z"/>
</svg>
