<svg width="187" height="187" viewBox="0 0 187 187" fill="none" xmlns="http://www.w3.org/2000/svg"><path d="M160.286 0H26.714C11.96 0 0 11.96 0 26.714v133.572C0 175.04 11.96 187 26.714 187h133.572C175.04 187 187 175.04 187 160.286V26.714C187 11.96 175.04 0 160.286 0Z" fill="#003371"/><path d="M141.175 46.266a15.082 15.082 0 0 0-10.661-4.403 15.11 15.11 0 0 0-10.66 4.403L83.141 82.864a15.026 15.026 0 0 0-3.27 4.876 14.987 14.987 0 0 0 3.27 16.379l36.713 36.598a15.1 15.1 0 0 0 10.66 4.403 15.106 15.106 0 0 0 10.661-4.403 15.005 15.005 0 0 0 4.417-10.627 14.996 14.996 0 0 0-4.417-10.627l-22.51-22.423a4.99 4.99 0 0 1-1.478-3.548 4.988 4.988 0 0 1 1.478-3.548l22.51-22.424a15.002 15.002 0 0 0 4.417-10.627 15.002 15.002 0 0 0-4.417-10.627Z" fill="#04795B"/><path d="M119.848 140.713c5.887 5.868 15.431 5.868 21.318 0 5.886-5.868 5.886-15.383 0-21.251l-36.714-36.6c-5.887-5.868-15.431-5.868-21.318 0-5.886 5.869-5.886 15.383 0 21.252l36.714 36.599Z" fill="#0DB50A"/><path d="M104.462 82.864 67.749 46.266a15.077 15.077 0 0 0-4.891-3.259 15.114 15.114 0 0 0-16.43 3.259 14.987 14.987 0 0 0 0 21.255L68.92 89.943a5.007 5.007 0 0 1 1.478 3.548 4.996 4.996 0 0 1-1.478 3.548l-22.494 22.423a15.017 15.017 0 0 0-4.416 10.627 14.99 14.99 0 0 0 4.416 10.627 15.107 15.107 0 0 0 16.43 3.259 15.068 15.068 0 0 0 4.892-3.259l26.044-25.979 10.669-10.619a15.001 15.001 0 0 0 3.269-16.379 15.03 15.03 0 0 0-3.269-4.876Z" fill="#0AE33A"/></svg>