<?xml version="1.0" standalone="no"?>
<!DOCTYPE svg PUBLIC "-//W3C//DTD SVG 20010904//EN"
 "http://www.w3.org/TR/2001/REC-SVG-20010904/DTD/svg10.dtd">
<svg version="1.0" xmlns="http://www.w3.org/2000/svg"
 width="250.000000pt" height="250.000000pt" viewBox="0 0 250.000000 250.000000"
 preserveAspectRatio="xMidYMid meet">

<g transform="translate(0.000000,250.000000) scale(0.100000,-0.100000)"
fill="#000000" stroke="none">
<path d="M181 2484 c0 -11 3 -14 6 -6 3 7 2 16 -1 19 -3 4 -6 -2 -5 -13z"/>
<path d="M200 2485 c0 -8 4 -15 10 -15 5 0 7 7 4 15 -4 8 -8 15 -10 15 -2 0
-4 -7 -4 -15z"/>
<path d="M230 2470 c0 -24 -4 -30 -21 -30 -13 0 -18 4 -13 12 4 7 3 8 -4 4
-17 -10 -15 -26 3 -26 12 0 15 -13 15 -60 0 -41 -4 -60 -12 -60 -9 0 -8 -4 2
-11 12 -9 12 -10 -5 -6 -19 4 -20 -1 -17 -76 3 -59 0 -82 -10 -88 -8 -5 -13
-30 -14 -71 -1 -92 2 -98 47 -98 37 0 39 2 40 33 1 17 1 42 1 54 -1 13 4 22
11 20 8 -1 13 20 15 66 2 51 6 67 17 67 11 0 15 13 15 50 0 28 5 50 10 50 6 0
10 19 10 43 0 27 3 37 9 29 7 -11 10 -10 15 3 3 9 6 25 6 35 0 10 7 20 15 24
11 4 15 -2 15 -22 0 -21 5 -28 19 -28 11 0 22 8 24 18 6 20 -9 25 -16 6 -3 -7
-10 0 -17 17 -19 45 -20 57 -4 51 8 -3 14 1 14 9 0 10 -10 15 -30 15 -20 0
-30 -5 -30 -15 0 -8 -4 -15 -10 -15 -5 0 -10 7 -10 15 0 11 -12 15 -45 15 -43
0 -45 -1 -45 -30z"/>
<path d="M490 2435 c0 -59 -11 -84 -23 -52 -3 6 -4 -30 -3 -80 2 -72 0 -93
-11 -93 -10 0 -13 -20 -13 -81 0 -70 -2 -80 -17 -78 -10 1 -23 1 -29 0 -16 -1
-26 -29 -13 -36 5 -4 13 4 18 17 8 20 10 17 10 -19 1 -45 2 -47 44 -57 22 -5
27 -4 22 6 -4 7 1 4 9 -6 16 -20 16 -20 16 0 0 16 2 17 10 4 8 -13 10 -12 10
3 0 9 -6 17 -12 18 -7 1 -2 5 12 9 24 8 24 8 3 9 -13 1 -23 6 -23 11 0 6 6 9
13 8 8 -2 13 19 15 75 2 59 6 77 17 77 11 0 15 14 15 56 0 56 0 56 26 50 24
-6 25 -6 10 9 -21 22 -22 95 -1 95 8 0 15 -8 15 -17 0 -14 3 -13 16 5 9 13 13
26 10 29 -3 4 -6 1 -6 -5 0 -7 -4 -12 -10 -12 -16 0 -12 47 5 53 8 4 12 15 10
27 -2 13 1 20 11 20 8 0 14 5 14 10 0 6 -35 10 -85 10 l-85 0 0 -65z"/>
<path d="M661 2474 c-22 -22 -22 -24 -5 -24 13 0 15 -3 7 -8 -10 -6 -10 -16
-1 -45 10 -31 15 -36 32 -31 47 14 52 23 19 30 -17 3 -34 12 -37 20 -5 14 14
39 36 47 7 2 10 8 5 12 -4 5 -13 3 -19 -3 -7 -7 -16 -12 -21 -12 -14 0 4 21
27 30 20 8 20 9 1 8 -11 0 -31 -11 -44 -24z"/>
<path d="M750 2456 c0 -26 -5 -46 -12 -49 -10 -4 -10 -6 0 -6 17 -1 15 -28 -3
-35 -12 -4 -15 -25 -15 -96 0 -53 -4 -90 -10 -90 -6 0 -10 -40 -10 -99 0 -70
-4 -101 -12 -104 -10 -4 -10 -6 0 -6 6 -1 12 -9 12 -18 0 -14 2 -15 9 -4 6 9
11 10 15 2 22 -35 116 21 116 68 0 12 6 21 15 21 9 0 15 9 15 24 0 44 16 36
29 -14 7 -27 25 -66 40 -87 15 -22 27 -50 26 -65 -1 -19 2 -25 12 -21 12 5 12
7 1 14 -10 7 -10 9 2 9 13 0 13 1 0 10 -24 15 2 11 30 -5 57 -33 160 -3 224
64 16 17 34 28 39 24 6 -3 7 -1 4 4 -4 6 8 30 25 54 18 24 33 46 33 49 1 19
39 89 46 84 5 -3 7 1 4 8 -3 7 2 33 9 58 l15 45 1 -100 c1 -55 4 -94 7 -87 10
26 23 10 23 -28 0 -26 5 -40 13 -40 7 0 13 -9 14 -19 2 -26 34 -61 55 -61 10
0 18 -4 18 -10 0 -16 87 -12 93 4 3 8 16 12 32 11 19 -3 25 1 21 10 -2 7 4 15
16 18 13 4 17 10 12 18 -5 9 -2 10 9 6 12 -4 17 -1 17 10 0 9 3 14 6 10 4 -3
14 1 23 10 11 12 13 17 3 21 -17 5 -15 22 4 22 23 0 15 64 -8 68 -13 2 -18 -3
-18 -18 0 -11 -16 -38 -36 -58 -23 -23 -32 -29 -25 -15 8 16 8 24 -1 29 -6 4
-8 3 -4 -4 3 -6 2 -13 -4 -17 -5 -3 -10 -15 -10 -26 0 -16 -7 -19 -45 -19 -42
0 -45 2 -45 28 0 21 -2 24 -10 12 -8 -12 -10 -9 -10 13 0 17 -5 27 -15 27 -13
0 -15 22 -15 136 0 125 1 136 18 132 15 -4 17 1 13 44 -2 39 1 52 15 63 17 13
10 14 -61 15 -55 0 -75 -3 -65 -10 8 -5 11 -10 5 -10 -5 0 -3 -5 5 -10 13 -9
13 -12 -2 -24 -13 -9 -18 -27 -18 -59 0 -28 -5 -47 -13 -50 -11 -4 -12 5 -6
41 4 26 8 64 8 85 l1 37 -238 0 -238 0 -16 -37 c-26 -59 -49 -161 -55 -240 -4
-53 -9 -70 -19 -66 -18 7 -50 -12 -35 -21 6 -4 11 -2 11 3 0 6 4 11 8 11 4 0
8 -9 8 -21 0 -14 -5 -19 -17 -16 -11 3 -21 -4 -28 -20 -16 -34 -13 -42 5 -13
l14 25 -2 -25 c-2 -14 -10 -26 -20 -28 -15 -3 -18 4 -17 45 0 26 3 42 6 34 4
-9 10 -3 19 18 7 17 18 30 25 29 6 -2 14 4 16 12 3 9 1 11 -4 5 -23 -28 -33
-14 -33 45 0 33 4 60 10 60 6 0 10 34 10 81 0 74 2 81 18 77 15 -4 18 -1 14
18 -4 22 -9 24 -63 24 l-59 0 0 -44z m565 28 c50 -19 60 -146 20 -257 -33 -95
-80 -170 -143 -228 -107 -98 -206 -71 -246 69 -18 64 -21 188 -6 212 7 11 10
4 10 -26 0 -50 31 -94 66 -94 45 0 100 63 134 155 48 126 110 190 165 169z
m-231 -100 c8 -21 -21 -87 -36 -82 -17 6 -22 52 -8 78 13 24 35 26 44 4z"/>
<path d="M1232 2315 c-16 -34 -15 -50 2 -64 18 -16 46 21 46 61 0 37 -32 38
-48 3z"/>
<path d="M891 2491 c-8 -5 -9 -11 -3 -15 5 -3 12 1 16 9 6 17 6 18 -13 6z"/>
<path d="M920 2492 c0 -6 -7 -17 -15 -26 -9 -8 -12 -22 -8 -32 5 -14 9 -9 20
21 7 21 11 41 8 43 -3 3 -5 0 -5 -6z"/>
<path d="M1837 2493 c-10 -9 -8 -51 2 -57 5 -3 7 -16 5 -29 -4 -20 -4 -21 5
-2 9 19 10 18 11 -5 2 -19 3 -21 7 -6 3 10 0 23 -6 29 -16 16 -13 27 7 27 14
0 15 2 2 10 -9 6 -17 5 -23 -3 -5 -7 -6 -1 -3 16 6 27 5 32 -7 20z"/>
<path d="M1909 2493 c-1 -5 0 -18 1 -30 1 -16 -4 -23 -17 -23 -15 0 -18 -7
-15 -46 3 -33 0 -49 -12 -57 -13 -10 -15 -36 -13 -165 2 -130 0 -150 -12 -135
-9 13 -12 14 -9 3 2 -8 14 -19 26 -25 12 -5 22 -13 22 -17 0 -5 7 -8 15 -8 8
0 15 -5 15 -11 0 -20 29 -39 59 -39 17 0 31 5 31 10 0 6 11 10 25 10 16 0 25
6 25 15 0 8 5 15 11 15 6 0 8 -9 3 -22 -6 -20 -5 -21 9 -6 10 9 14 24 10 38
-4 16 -3 21 5 16 8 -5 12 3 12 23 0 32 16 41 38 19 9 -9 12 -8 12 6 0 9 -4 14
-10 11 -5 -3 -10 -1 -10 4 0 6 5 11 10 11 6 0 10 14 10 31 0 19 4 28 11 24 6
-4 10 -39 9 -83 -2 -126 -3 -122 26 -122 26 0 84 48 84 69 0 6 5 10 12 9 7 -2
14 8 17 22 3 14 13 26 21 28 23 5 40 23 34 34 -4 6 -10 5 -15 -3 -7 -11 -9
-10 -9 4 0 9 5 17 10 17 6 0 10 10 10 21 0 16 5 20 19 16 13 -3 18 -1 14 9 -4
10 -10 10 -31 1 -41 -17 -73 -52 -66 -71 4 -10 1 -16 -9 -16 -9 0 -18 -8 -20
-17 -3 -10 -5 21 -6 70 -1 55 3 87 10 87 5 0 8 -4 5 -9 -3 -5 5 -16 19 -25 31
-20 41 -21 21 -1 -8 8 -21 15 -28 15 -10 0 -9 3 2 10 10 6 11 10 3 10 -10 0
-13 26 -13 96 0 87 2 96 18 92 15 -4 17 1 14 44 l-4 48 -44 0 -44 0 0 -39 c0
-25 -5 -41 -15 -45 -11 -4 -15 -20 -15 -56 0 -34 -4 -50 -13 -50 -9 0 -12 -11
-9 -35 3 -27 1 -35 -12 -35 -11 0 -16 -9 -16 -31 0 -24 -4 -30 -16 -25 -12 5
-14 0 -10 -24 3 -21 0 -30 -10 -30 -8 0 -14 -10 -14 -25 0 -16 -6 -25 -15 -25
-8 0 -15 -8 -15 -17 0 -15 -2 -16 -10 -3 -5 8 -10 10 -10 4 0 -5 -15 -10 -32
-10 -28 1 -33 5 -36 26 -2 20 -1 22 7 10 9 -13 11 -13 11 3 0 10 -8 17 -19 17
-16 0 -20 9 -23 55 -2 38 1 55 9 55 6 0 15 5 19 11 4 8 0 9 -15 4 -12 -4 -21
-2 -21 4 0 6 8 11 18 11 15 0 17 8 14 65 -3 54 -1 65 12 65 12 0 16 10 16 40
0 22 5 40 10 40 6 0 10 9 10 20 0 18 -7 20 -55 20 -30 0 -55 -3 -56 -7z"/>
<path d="M2202 2470 c0 -19 2 -27 5 -17 2 9 2 25 0 35 -3 9 -5 1 -5 -18z"/>
<path d="M2060 2480 c-13 -8 -12 -10 3 -10 9 0 17 5 17 10 0 12 -1 12 -20 0z"/>
<path d="M2160 2480 c0 -5 5 -10 11 -10 5 0 7 5 4 10 -3 6 -8 10 -11 10 -2 0
-4 -4 -4 -10z"/>
<path d="M2018 2443 c7 -3 16 -2 19 1 4 3 -2 6 -13 5 -11 0 -14 -3 -6 -6z"/>
<path d="M2165 2440 c-3 -5 -2 -10 4 -10 5 0 13 5 16 10 3 6 2 10 -4 10 -5 0
-13 -4 -16 -10z"/>
<path d="M2050 2430 c0 -5 7 -10 15 -10 8 0 15 5 15 10 0 6 -7 10 -15 10 -8 0
-15 -4 -15 -10z"/>
<path d="M1570 2416 c0 -17 16 -30 23 -19 3 5 -1 14 -9 21 -12 10 -14 10 -14
-2z"/>
<path d="M361 2384 c0 -11 3 -14 6 -6 3 7 2 16 -1 19 -3 4 -6 -2 -5 -13z"/>
<path d="M430 2390 c0 -5 5 -10 11 -10 5 0 7 5 4 10 -3 6 -8 10 -11 10 -2 0
-4 -4 -4 -10z"/>
<path d="M2165 2390 c3 -5 8 -10 11 -10 2 0 4 5 4 10 0 6 -5 10 -11 10 -5 0
-7 -4 -4 -10z"/>
<path d="M2300 2369 c0 -5 5 -7 10 -4 6 3 10 8 10 11 0 2 -4 4 -10 4 -5 0 -10
-5 -10 -11z"/>
<path d="M399 2363 c-17 -4 -32 -40 -23 -55 10 -16 23 -7 29 22 4 17 11 28 16
24 5 -3 9 0 9 5 0 11 -3 12 -31 4z"/>
<path d="M1841 2354 c0 -11 3 -14 6 -6 3 7 2 16 -1 19 -3 4 -6 -2 -5 -13z"/>
<path d="M1555 2339 c-4 -6 -5 -12 -2 -15 2 -3 7 2 10 11 7 17 1 20 -8 4z"/>
<path d="M164 2328 c12 -7 21 -7 28 0 6 6 0 10 -18 10 -23 0 -24 -2 -10 -10z"/>
<path d="M590 2330 c0 -4 11 -10 25 -12 13 -3 22 -2 20 2 -7 11 -45 20 -45 10z"/>
<path d="M875 2330 c3 -5 8 -10 11 -10 2 0 4 5 4 10 0 6 -5 10 -11 10 -5 0 -7
-4 -4 -10z"/>
<path d="M1810 2334 c0 -3 7 -12 15 -20 13 -13 15 -13 15 -1 0 8 -7 17 -15 21
-8 3 -15 3 -15 0z"/>
<path d="M677 2324 c-11 -11 3 -24 18 -18 8 4 12 10 9 15 -6 11 -18 12 -27 3z"/>
<path d="M2351 2320 c0 -8 4 -22 9 -30 12 -18 12 -2 0 25 -6 13 -9 15 -9 5z"/>
<path d="M2120 2310 c0 -5 5 -10 10 -10 6 0 10 5 10 10 0 6 -4 10 -10 10 -5 0
-10 -4 -10 -10z"/>
<path d="M870 2298 c0 -9 -6 -19 -12 -21 -10 -4 -10 -6 0 -6 14 -1 28 26 18
36 -3 4 -6 -1 -6 -9z"/>
<path d="M615 2290 c3 -5 11 -10 16 -10 6 0 7 5 4 10 -3 6 -11 10 -16 10 -6 0
-7 -4 -4 -10z"/>
<path d="M1552 2230 c-1 -52 2 -70 8 -59 6 10 6 40 1 75 l-9 59 0 -75z"/>
<path d="M140 2270 c0 -5 7 -10 16 -10 8 0 12 5 9 10 -3 6 -10 10 -16 10 -5 0
-9 -4 -9 -10z"/>
<path d="M2107 2244 c6 -15 23 -19 23 -5 0 5 -7 11 -14 14 -10 4 -13 1 -9 -9z"/>
<path d="M2307 2253 c-10 -9 -9 -23 1 -23 5 0 9 7 9 15 0 17 -1 18 -10 8z"/>
<path d="M435 2240 c3 -5 8 -10 11 -10 2 0 4 5 4 10 0 6 -5 10 -11 10 -5 0 -7
-4 -4 -10z"/>
<path d="M1801 2234 c0 -11 3 -14 6 -6 3 7 2 16 -1 19 -3 4 -6 -2 -5 -13z"/>
<path d="M2115 2210 c3 -5 8 -10 11 -10 2 0 4 5 4 10 0 6 -5 10 -11 10 -5 0
-7 -4 -4 -10z"/>
<path d="M393 2203 c3 -3 2 -15 -3 -27 -6 -17 -5 -23 7 -23 9 0 13 7 10 18 -3
11 1 19 12 21 12 3 10 6 -7 10 -13 4 -22 4 -19 1z"/>
<path d="M142 2188 c-14 -14 -16 -42 -3 -34 7 5 23 46 17 46 -1 0 -7 -5 -14
-12z"/>
<path d="M1973 2183 c4 -3 5 -8 2 -13 -3 -4 4 -10 14 -13 12 -3 22 1 25 9 3 8
-1 14 -8 14 -8 0 -20 2 -28 3 -7 2 -10 2 -5 0z"/>
<path d="M1712 2160 c0 -14 2 -19 5 -12 2 6 2 18 0 25 -3 6 -5 1 -5 -13z"/>
<path d="M1805 2171 c-20 -8 -20 -8 1 -15 16 -5 20 -13 17 -34 -4 -21 -2 -24
6 -12 15 21 14 50 -1 50 -9 0 -8 4 2 10 18 11 3 12 -25 1z"/>
<path d="M2045 2170 c3 -5 10 -10 16 -10 5 0 9 5 9 10 0 6 -7 10 -16 10 -8 0
-12 -4 -9 -10z"/>
<path d="M1385 2160 c3 -5 8 -10 11 -10 2 0 4 5 4 10 0 6 -5 10 -11 10 -5 0
-7 -4 -4 -10z"/>
<path d="M2290 2160 c0 -5 5 -10 11 -10 5 0 7 5 4 10 -3 6 -8 10 -11 10 -2 0
-4 -4 -4 -10z"/>
<path d="M630 2133 c0 -12 4 -25 10 -28 6 -4 7 1 3 11 -4 10 0 22 12 30 16 12
16 13 -4 11 -15 -1 -21 -8 -21 -24z"/>
<path d="M1363 2120 c-6 -16 -7 -30 -2 -30 5 0 9 -7 9 -16 0 -8 5 -12 10 -9 6
3 10 15 10 26 0 11 -5 17 -10 14 -7 -4 -9 2 -4 19 9 35 1 33 -13 -4z"/>
<path d="M1650 2130 c0 -5 5 -10 10 -10 6 0 10 5 10 10 0 6 -4 10 -10 10 -5 0
-10 -4 -10 -10z"/>
<path d="M1986 2125 c25 -19 34 -19 34 0 0 10 -10 15 -27 15 -26 0 -26 -1 -7
-15z"/>
<path d="M2367 2126 c-3 -8 -1 -17 6 -19 9 -3 9 -9 0 -25 -7 -12 -9 -23 -4
-26 4 -3 13 10 19 29 7 25 7 33 -1 28 -6 -4 -8 0 -4 10 3 10 2 17 -2 17 -5 0
-11 -6 -14 -14z"/>
<path d="M1577 2123 c-10 -10 -8 -33 3 -33 5 0 6 7 3 17 -4 11 -3 14 5 9 7 -4
12 -2 12 3 0 12 -13 14 -23 4z"/>
<path d="M1801 2114 c0 -11 3 -14 6 -6 3 7 2 16 -1 19 -3 4 -6 -2 -5 -13z"/>
<path d="M2032 2104 c-18 -21 -19 -25 -5 -19 10 4 25 8 33 9 19 4 26 36 8 36
-7 0 -23 -12 -36 -26z"/>
<path d="M2271 2104 c0 -11 3 -14 6 -6 3 7 2 16 -1 19 -3 4 -6 -2 -5 -13z"/>
<path d="M1620 2081 c0 -25 6 -27 13 -6 4 8 2 17 -3 20 -6 4 -10 -3 -10 -14z"/>
<path d="M1648 2065 c-3 -14 -1 -25 3 -25 5 0 9 11 9 25 0 14 -2 25 -4 25 -2
0 -6 -11 -8 -25z"/>
<path d="M1825 2070 c-3 -5 -1 -10 4 -10 6 0 11 5 11 10 0 6 -2 10 -4 10 -3 0
-8 -4 -11 -10z"/>
<path d="M103 2025 c0 -22 2 -30 4 -17 2 12 2 30 0 40 -3 9 -5 -1 -4 -23z"/>
<path d="M1590 2049 c0 -5 9 -9 20 -9 11 0 20 2 20 4 0 2 -9 6 -20 9 -11 3
-20 1 -20 -4z"/>
<path d="M260 2037 c0 -8 9 -22 20 -32 20 -18 20 -17 19 11 0 16 -3 23 -6 17
-2 -7 -9 -13 -14 -13 -4 0 -6 7 -3 15 4 8 1 15 -5 15 -6 0 -11 -6 -11 -13z"/>
<path d="M866 2034 c-11 -8 -16 -14 -10 -14 13 0 39 18 34 24 -3 2 -14 -2 -24
-10z"/>
<path d="M2326 2035 c-3 -8 -1 -15 4 -15 6 0 10 7 10 15 0 8 -2 15 -4 15 -2 0
-6 -7 -10 -15z"/>
<path d="M2391 2034 c0 -11 3 -14 6 -6 3 7 2 16 -1 19 -3 4 -6 -2 -5 -13z"/>
<path d="M536 2023 c-6 -14 -5 -15 5 -6 7 7 10 15 7 18 -3 3 -9 -2 -12 -12z"/>
<path d="M1442 1994 c-2 -19 -1 -34 2 -34 7 0 13 61 6 65 -3 2 -7 -12 -8 -31z"/>
<path d="M555 2010 c-3 -5 0 -10 8 -10 8 0 17 -9 20 -20 7 -26 27 -26 27 0 0
10 -9 24 -19 30 -24 12 -28 13 -36 0z"/>
<path d="M681 2004 c0 -11 3 -14 6 -6 3 7 2 16 -1 19 -3 4 -6 -2 -5 -13z"/>
<path d="M893 1984 c4 -6 5 -20 1 -30 -5 -16 -4 -17 6 -4 9 12 10 10 5 -13 -4
-19 -2 -26 5 -22 16 10 12 41 -7 62 -10 10 -15 14 -10 7z"/>
<path d="M1742 1975 c0 -16 2 -22 5 -12 2 9 2 23 0 30 -3 6 -5 -1 -5 -18z"/>
<path d="M1845 1990 c3 -5 8 -10 11 -10 2 0 4 5 4 10 0 6 -5 10 -11 10 -5 0
-7 -4 -4 -10z"/>
<path d="M1722 1965 c0 -16 2 -22 5 -12 2 9 2 23 0 30 -3 6 -5 -1 -5 -18z"/>
<path d="M380 1967 c0 -8 7 -20 15 -27 11 -9 15 -10 15 -1 0 7 -7 19 -15 27
-13 13 -15 13 -15 1z"/>
<path d="M823 1965 c-17 -19 -16 -22 5 -20 20 1 62 24 45 25 -6 0 -17 2 -25 5
-7 2 -19 -2 -25 -10z"/>
<path d="M1254 1958 c-10 -13 -12 -17 -4 -11 9 9 17 9 26 2 10 -8 12 -5 11 10
-2 27 -9 26 -33 -1z"/>
<path d="M1460 1971 c0 -10 19 -25 25 -20 1 2 -3 10 -11 17 -8 7 -14 8 -14 3z"/>
<path d="M1880 1971 c0 -6 4 -13 10 -16 6 -3 7 1 4 9 -7 18 -14 21 -14 7z"/>
<path d="M538 1963 c7 -3 16 -2 19 1 4 3 -2 6 -13 5 -11 0 -14 -3 -6 -6z"/>
<path d="M1843 1957 c0 -7 9 -14 19 -14 16 -2 17 1 8 13 -15 18 -27 18 -27 1z"/>
<path d="M2289 1952 c-26 -31 -29 -48 -7 -49 15 -2 17 1 9 11 -8 9 -5 18 10
34 11 12 16 22 12 22 -5 0 -15 -8 -24 -18z"/>
<path d="M270 1950 c-11 -7 -7 -10 18 -10 17 0 32 5 32 10 0 13 -30 13 -50 0z"/>
<path d="M2250 1950 c0 -5 7 -7 15 -4 8 4 15 8 15 10 0 2 -7 4 -15 4 -8 0 -15
-4 -15 -10z"/>
<path d="M525 1940 c-3 -6 1 -7 9 -4 18 7 21 14 7 14 -6 0 -13 -4 -16 -10z"/>
<path d="M1678 1943 c6 -2 18 -2 25 0 6 3 1 5 -13 5 -14 0 -19 -2 -12 -5z"/>
<path d="M2020 1938 c0 -4 4 -8 9 -8 6 0 12 4 15 8 3 5 -1 9 -9 9 -8 0 -15 -4
-15 -9z"/>
<path d="M133 1923 c-14 -11 -7 -13 45 -13 34 0 62 4 62 9 0 15 -88 17 -107 4z"/>
<path d="M768 1920 c-15 -4 -29 -5 -32 -2 -3 3 -6 -2 -6 -11 0 -9 4 -17 9 -17
5 0 17 -3 25 -6 12 -5 15 -2 10 10 -6 15 5 21 29 17 5 -1 6 3 2 9 -3 5 -7 10
-8 9 -1 0 -14 -4 -29 -9z"/>
<path d="M1230 1920 c0 -12 8 -12 35 0 18 8 17 9 -7 9 -16 1 -28 -3 -28 -9z"/>
<path d="M1440 1912 c0 -13 25 -22 63 -22 23 1 28 3 17 9 -25 15 -80 23 -80
13z"/>
<path d="M1605 1910 c-8 -13 15 -13 35 0 12 8 11 10 -7 10 -12 0 -25 -4 -28
-10z"/>
<path d="M2090 1910 c0 -5 5 -10 10 -10 6 0 10 5 10 10 0 6 -4 10 -10 10 -5 0
-10 -4 -10 -10z"/>
<path d="M2178 1904 c20 -14 24 -14 44 0 22 16 21 16 -22 16 -43 0 -44 0 -22
-16z"/>
<path d="M1130 1882 c-21 -17 -20 -18 57 -19 57 -2 73 1 60 8 -9 6 -22 7 -28
4 -5 -4 -17 -1 -26 7 -9 7 -14 8 -10 2 4 -7 -5 -11 -26 -12 l-32 -1 25 14 c14
8 20 14 14 15 -7 0 -22 -8 -34 -18z"/>
<path d="M1330 1874 l-35 -13 60 1 c33 0 52 2 43 5 -10 2 -18 9 -18 14 0 11
-5 10 -50 -7z"/>
<path d="M1782 1875 c-11 -12 -10 -15 3 -15 8 0 15 7 15 15 0 18 -2 18 -18 0z"/>
<path d="M2003 1880 c-32 -13 -28 -20 10 -20 23 0 34 5 34 15 0 17 -11 18 -44
5z"/>
<path d="M60 1870 l-65 -7 83 -1 c53 -1 81 2 77 8 -3 6 -12 9 -18 8 -7 -1 -41
-4 -77 -8z"/>
<path d="M210 1870 c-21 -4 27 -8 119 -9 85 0 151 2 148 6 -10 9 -224 12 -267
3z"/>
<path d="M520 1870 c-12 -8 -9 -10 13 -10 16 0 26 4 22 10 -8 12 -16 12 -35 0z"/>
<path d="M660 1870 c0 -5 9 -10 20 -10 11 0 20 5 20 10 0 6 -9 10 -20 10 -11
0 -20 -4 -20 -10z"/>
<path d="M820 1870 c-13 -8 -12 -10 3 -10 9 0 17 5 17 10 0 12 -1 12 -20 0z"/>
<path d="M885 1870 c-3 -5 3 -10 14 -10 12 0 21 5 21 10 0 6 -6 10 -14 10 -8
0 -18 -4 -21 -10z"/>
<path d="M1670 1868 c0 -4 16 -8 35 -8 19 0 35 2 35 4 0 2 -16 6 -35 8 -19 2
-35 0 -35 -4z"/>
<path d="M1900 1870 c0 -5 12 -10 26 -10 14 0 23 4 19 10 -3 6 -15 10 -26 10
-10 0 -19 -4 -19 -10z"/>
<path d="M1065 1860 c-3 -5 1 -10 10 -10 9 0 13 5 10 10 -3 6 -8 10 -10 10 -2
0 -7 -4 -10 -10z"/>
<path d="M1573 1863 c9 -2 23 -2 30 0 6 3 -1 5 -18 5 -16 0 -22 -2 -12 -5z"/>
<path d="M2233 1863 c9 -2 23 -2 30 0 6 3 -1 5 -18 5 -16 0 -22 -2 -12 -5z"/>
<path d="M2413 1863 c15 -2 37 -2 50 0 12 2 0 4 -28 4 -27 0 -38 -2 -22 -4z"/>
<path d="M445 1830 c51 -8 202 -13 194 -6 -2 2 -58 6 -124 8 -75 4 -101 3 -70
-2z"/>
<path d="M197 1823 c24 -2 62 -2 85 0 24 2 5 4 -42 4 -47 0 -66 -2 -43 -4z"/>
<path d="M818 1823 c12 -2 32 -2 45 0 12 2 2 4 -23 4 -25 0 -35 -2 -22 -4z"/>
<path d="M1013 1823 c9 -2 25 -2 35 0 9 3 1 5 -18 5 -19 0 -27 -2 -17 -5z"/>
<path d="M1123 1823 c15 -2 39 -2 55 0 15 2 2 4 -28 4 -30 0 -43 -2 -27 -4z"/>
<path d="M1219 1656 c-100 -36 -177 -118 -246 -264 -73 -153 -101 -337 -68
-447 54 -177 193 -193 336 -37 32 34 73 95 99 147 l45 88 3 -67 c2 -36 7 -66
12 -66 6 0 10 -18 10 -40 0 -29 4 -40 15 -40 9 0 15 -9 15 -22 1 -33 23 -58
54 -58 16 0 26 -5 26 -15 0 -11 11 -15 40 -15 29 0 40 4 40 15 0 9 9 15 21 15
27 0 109 82 109 109 0 12 6 21 16 21 11 0 14 8 12 27 -4 39 -28 42 -28 4 0
-17 -5 -31 -11 -31 -14 0 -69 -55 -69 -70 0 -7 -18 -10 -50 -9 -34 2 -50 7
-50 16 0 7 -7 13 -15 13 -9 0 -15 9 -15 24 0 13 -7 26 -15 30 -12 4 -15 30
-15 141 0 111 3 137 15 141 11 5 15 21 15 60 0 41 4 54 15 54 11 0 15 11 15
40 0 22 5 40 10 40 6 0 10 9 10 20 0 11 7 23 15 26 8 4 15 12 15 20 0 8 5 14
11 14 14 0 39 25 39 39 0 6 21 11 49 11 44 0 49 -2 53 -25 4 -17 1 -25 -8 -25
-21 0 -18 -95 3 -120 21 -24 63 -27 63 -5 0 8 7 15 15 15 12 0 15 14 15 64 0
48 -4 65 -15 70 -8 3 -15 17 -15 31 0 20 -5 25 -25 25 -14 0 -25 5 -25 10 0 6
-25 10 -55 10 -30 0 -55 -4 -55 -10 0 -5 -11 -10 -25 -10 -16 0 -25 -6 -25
-15 0 -8 -4 -15 -10 -15 -16 0 -70 -58 -70 -77 -1 -10 -14 -29 -30 -43 -17
-13 -30 -32 -30 -42 0 -10 -4 -18 -10 -18 -5 0 -11 -19 -11 -42 -1 -24 -5 0
-10 54 -15 181 -98 275 -210 234z m96 -28 c30 -13 30 -16 7 -46 -16 -20 -20
-21 -50 -10 -32 12 -37 23 -26 52 7 19 33 20 69 4z m-92 -18 c-3 -12 -18 -27
-34 -35 -36 -19 -39 -19 -39 5 0 11 12 26 28 34 38 21 51 20 45 -4z m161 -72
c15 -35 15 -37 -8 -51 -22 -15 -24 -14 -40 19 -15 32 -15 36 0 60 19 28 27 24
48 -28z m-285 -24 c-19 -19 -35 -30 -37 -24 -3 7 11 27 29 46 19 19 35 30 37
24 3 -7 -11 -27 -29 -46z m175 33 c14 -10 15 -17 6 -41 -7 -19 -15 -26 -26
-22 -9 3 -18 6 -20 6 -2 0 -4 16 -4 35 0 38 13 44 44 22z m-66 -24 c-4 -34
-33 -43 -43 -14 -8 27 1 41 26 41 16 0 20 -6 17 -27z m-86 -65 c-24 -26 -42
-29 -42 -5 0 6 12 24 27 39 25 26 28 27 34 11 4 -12 -2 -27 -19 -45z m208 3
c0 -9 -7 -25 -15 -35 -13 -17 -15 -17 -21 -2 -3 9 -3 33 1 53 6 35 8 37 21 18
8 -10 14 -26 14 -34z m-310 -50 c-38 -62 -48 -66 -19 -8 24 48 40 69 46 63 2
-2 -10 -27 -27 -55z m194 37 c12 -46 -3 -54 -22 -13 -15 33 -15 35 2 35 7 0
16 -10 20 -22z m191 -9 c12 -55 -8 -118 -37 -119 -13 0 -9 125 4 138 19 19 26
15 33 -19z m-147 -7 c5 -31 -15 -27 -21 3 -3 16 0 24 7 22 6 -2 12 -13 14 -25z
m-87 -3 c9 -17 8 -25 -5 -37 -14 -14 -17 -14 -36 3 -19 17 -19 19 -4 37 22 23
31 23 45 -3z m-98 -5 c9 -9 -36 -84 -50 -84 -18 0 -16 6 9 51 22 39 29 45 41
33z m255 -115 c-18 -12 -24 67 -6 88 11 14 13 9 16 -32 2 -32 -1 -51 -10 -56z
m-211 65 c13 -13 14 -19 3 -40 -15 -27 -22 -29 -51 -13 -19 10 -19 10 1 40 25
34 26 34 47 13z m123 -5 c0 -6 -4 -7 -10 -4 -5 3 -10 11 -10 16 0 6 5 7 10 4
6 -3 10 -11 10 -16z m-29 -11 c27 -34 23 -42 -11 -21 -31 18 -35 25 -23 36 10
10 13 9 34 -15z m-253 -91 c-11 -38 -22 -66 -24 -64 -2 2 5 34 17 71 11 38 22
66 24 64 2 -2 -5 -34 -17 -71z m252 32 c0 -20 -29 -29 -54 -18 -28 13 -33 28
-14 47 8 8 18 7 40 -6 15 -9 28 -19 28 -23z m-195 4 c-3 -10 -11 -37 -18 -60
-6 -24 -17 -43 -24 -43 -9 0 -8 12 4 53 18 61 21 67 35 67 6 0 7 -8 3 -17z
m63 -11 c21 -14 3 -72 -25 -83 -38 -14 -44 -11 -37 19 17 70 30 84 62 64z
m307 -51 c-17 -72 -44 -141 -55 -141 -20 0 -20 24 -2 83 11 34 23 74 26 90 4
18 13 27 25 27 18 0 19 -3 6 -59z m-131 43 c9 -3 16 -14 16 -25 0 -16 -4 -17
-30 -7 -25 8 -28 13 -19 24 13 16 12 16 33 8z m76 -18 c0 -11 -12 -51 -35
-114 -3 -7 -9 -11 -14 -7 -8 5 2 55 24 123 6 16 25 15 25 -2z m-157 -15 c18
-18 -6 -41 -44 -41 l-38 0 11 31 c9 26 14 30 37 24 14 -3 30 -10 34 -14z m87
-32 c10 -6 1 -8 -27 -9 -34 0 -41 3 -37 15 6 16 30 13 64 -6z m-90 -49 c0 -11
-4 -20 -9 -20 -5 0 -23 -3 -40 -6 -28 -6 -31 -4 -31 20 0 24 3 26 40 26 33 0
40 -3 40 -20z m68 8 c-7 -20 -48 -23 -48 -4 0 11 9 16 26 16 16 0 24 -5 22
-12z m-260 -45 c-3 -51 -28 -75 -28 -26 0 39 10 73 22 73 5 0 8 -21 6 -47z
m90 20 c-2 -19 -11 -29 -31 -36 -35 -11 -41 -6 -32 32 6 26 11 31 36 31 27 0
30 -3 27 -27z m-138 -39 c0 -30 -3 -53 -7 -51 -8 5 -5 107 3 107 2 0 4 -25 4
-56z m240 11 c0 -5 -55 -35 -65 -35 -16 0 -1 29 18 33 35 7 47 7 47 2z m100
-15 c0 -30 -54 -109 -58 -86 -4 19 38 106 50 106 5 0 8 -9 8 -20z m-190 -29
c0 -16 -47 -58 -55 -49 -14 17 -14 48 2 57 29 17 53 13 53 -8z m236 -5 c5 -14
-65 -136 -78 -136 -4 0 -9 8 -12 18 -4 12 7 39 31 75 38 59 50 67 59 43z
m-319 -84 c-16 -15 -19 -15 -27 -2 -14 22 -12 68 3 73 6 2 18 -9 26 -25 13
-25 13 -30 -2 -46z m91 31 c-15 -15 -31 -23 -35 -19 -4 4 3 16 17 26 37 29 49
24 18 -7z m42 -8 c-7 -8 -17 -15 -23 -15 -5 0 -2 9 8 20 21 23 35 19 15 -5z
m-184 -24 c10 -38 3 -73 -12 -59 -11 11 -17 98 -7 98 5 0 14 -18 19 -39z m244
5 c0 -15 -10 -30 -26 -41 l-27 -17 7 28 c14 53 46 74 46 30z m-145 -16 c3 -5
-2 -21 -11 -35 -15 -24 -19 -25 -32 -11 -14 14 -14 17 3 36 20 22 31 25 40 10z
m75 -24 c0 -30 -22 -48 -54 -44 l-26 3 20 33 c24 39 60 44 60 8z m95 -23 c5
-13 -4 -27 -31 -50 -45 -39 -54 -41 -54 -9 0 15 12 34 31 50 36 31 45 32 54 9z
m-210 -62 c-8 -28 -21 -27 -41 4 -13 21 -14 28 -4 41 12 13 15 13 33 -4 13
-13 17 -26 12 -41z m105 -10 c0 -24 -5 -30 -30 -34 -51 -11 -70 6 -54 47 4 11
19 16 45 16 36 0 39 -2 39 -29z"/>
<path d="M335 1630 c4 -6 -10 -10 -34 -10 -30 0 -41 -4 -41 -15 0 -10 -10 -15
-31 -15 -36 0 -36 -23 1 -28 13 -2 29 -10 37 -17 15 -16 18 -55 3 -55 -6 0
-10 -33 -10 -80 0 -64 -3 -80 -15 -80 -12 0 -15 -15 -15 -79 0 -61 -3 -80 -15
-85 -11 -4 -15 -23 -15 -81 0 -43 -4 -75 -10 -75 -6 0 -10 -33 -10 -80 l0 -80
40 0 40 0 0 49 c0 34 4 51 15 55 11 4 15 22 15 71 0 37 4 65 10 65 6 0 10 22
10 49 0 34 4 51 15 55 9 3 15 18 15 40 0 21 6 36 15 40 8 3 15 15 15 26 0 11
5 20 10 20 6 0 10 14 10 30 0 20 5 30 15 30 9 0 15 9 15 25 0 14 5 25 10 25 6
0 10 11 10 25 0 16 6 25 15 25 8 0 15 7 15 15 0 8 7 15 15 15 8 0 15 7 15 16
0 10 7 14 23 12 20 -3 22 -10 25 -62 3 -46 0 -61 -12 -68 -12 -7 -16 -26 -16
-82 0 -56 -4 -75 -15 -80 -11 -4 -15 -23 -15 -81 0 -43 -4 -75 -10 -75 -6 0
-10 -33 -10 -80 0 -64 -3 -80 -15 -80 -11 0 -15 -11 -15 -40 l0 -40 40 0 c36
0 40 3 40 25 0 16 6 25 15 25 12 0 15 16 15 80 0 64 3 80 15 80 12 0 15 13 15
56 0 34 4 53 10 49 6 -4 10 15 10 49 0 43 3 56 15 56 9 0 15 9 15 24 0 13 7
26 15 30 8 3 15 17 15 31 0 14 5 25 10 25 6 0 10 11 10 25 0 16 6 25 15 25 8
0 15 9 15 20 0 28 60 87 83 82 14 -3 17 -14 17 -62 0 -42 -4 -59 -15 -64 -11
-4 -15 -23 -15 -81 0 -43 -4 -75 -10 -75 -6 0 -10 -38 -10 -95 0 -78 -3 -95
-15 -95 -12 0 -15 -18 -15 -105 0 -87 3 -105 15 -105 8 0 15 -7 15 -15 0 -9 9
-15 25 -15 16 0 25 6 25 15 0 8 4 15 10 15 19 0 50 35 50 57 0 13 5 23 10 23
6 0 10 11 10 25 0 16 -6 25 -15 25 -9 0 -15 -9 -15 -25 0 -20 -5 -25 -25 -25
-23 0 -25 3 -25 50 0 38 4 50 15 50 12 0 15 15 15 79 0 61 3 80 15 85 11 4 15
23 15 81 0 43 4 75 10 75 6 0 10 50 10 131 0 147 -5 159 -65 159 -36 0 -65
-18 -65 -39 0 -6 -7 -11 -15 -11 -8 0 -15 -9 -15 -20 0 -12 -11 -31 -25 -44
-14 -13 -25 -33 -25 -45 0 -12 -6 -21 -15 -21 -9 0 -15 -9 -15 -25 0 -14 -4
-25 -10 -25 -6 0 -10 42 -10 105 0 87 -3 105 -15 105 -8 0 -15 5 -15 10 0 6
-16 10 -36 10 -41 0 -94 -45 -94 -79 0 -12 -6 -21 -15 -21 -8 0 -15 -6 -15
-14 0 -8 -7 -16 -15 -20 -8 -3 -15 -15 -15 -26 0 -11 -4 -20 -10 -20 -5 0 -10
-11 -10 -24 0 -13 -7 -26 -15 -30 -8 -3 -15 -14 -15 -25 0 -11 -4 -23 -10 -26
-6 -4 -10 10 -10 34 0 31 4 41 16 41 13 0 15 13 13 77 -1 51 2 78 9 81 7 2 12
15 12 28 0 20 -5 24 -31 24 -17 0 -28 -4 -24 -10z"/>
<path d="M2100 1630 c0 -5 -9 -10 -20 -10 -24 0 -120 -92 -120 -114 0 -8 -4
-18 -10 -21 -5 -3 -10 -17 -10 -31 0 -15 -6 -24 -15 -24 -9 0 -15 -9 -15 -25
0 -14 -4 -25 -10 -25 -5 0 -10 -11 -10 -25 0 -16 -6 -25 -15 -25 -12 0 -15
-13 -15 -55 0 -42 -3 -55 -15 -55 -13 0 -15 -24 -15 -160 0 -136 2 -160 15
-160 8 0 15 -7 15 -15 0 -8 6 -15 13 -15 7 0 21 -11 31 -25 21 -28 66 -35 66
-10 0 9 9 15 21 15 24 0 79 51 79 75 0 8 7 18 15 21 8 4 15 12 15 20 0 8 7 14
15 14 9 0 15 9 15 25 0 14 5 25 10 25 6 0 10 -42 10 -105 0 -100 1 -105 21
-105 23 0 112 84 116 109 1 9 7 17 12 19 6 2 11 17 11 33 0 20 5 29 16 29 9 0
14 5 12 12 -6 18 -28 21 -28 4 0 -9 -7 -16 -15 -16 -8 0 -15 -9 -15 -20 0 -20
-28 -60 -42 -60 -5 0 -8 41 -8 90 0 73 3 90 15 90 12 0 15 17 15 95 0 78 3 95
15 95 12 0 15 16 15 80 0 47 4 80 10 80 6 0 10 31 10 74 0 56 4 75 15 80 29
11 15 26 -25 26 -36 0 -40 -2 -40 -25 0 -20 -5 -25 -25 -25 -20 0 -25 5 -25
25 0 24 -3 25 -55 25 -30 0 -55 -4 -55 -10z m75 -30 c-3 -5 1 -10 9 -10 14 0
16 -20 16 -145 0 -90 -4 -145 -10 -145 -5 0 -10 -23 -10 -50 0 -36 -4 -52 -15
-56 -9 -4 -15 -19 -15 -39 0 -20 -6 -35 -15 -39 -8 -3 -15 -17 -15 -31 0 -14
-4 -25 -10 -25 -5 0 -10 -11 -10 -25 0 -16 -6 -25 -15 -25 -8 0 -15 -9 -15
-20 0 -35 -35 -60 -85 -60 -41 0 -45 2 -45 25 0 14 -4 25 -10 25 -6 0 -10 33
-10 80 0 47 4 80 10 80 6 0 10 28 10 65 0 51 3 65 15 65 11 0 15 11 15 39 0
22 5 41 11 43 5 2 11 18 11 37 1 18 7 35 15 38 7 3 13 16 13 29 0 15 6 24 15
24 9 0 15 9 15 25 0 14 5 25 10 25 6 0 10 7 10 15 0 8 7 15 15 15 8 0 15 7 15
15 0 8 7 15 15 15 8 0 15 5 15 10 0 6 12 10 26 10 14 0 23 -4 19 -10z"/>
<path d="M330 555 c0 -11 -11 -15 -40 -15 -22 0 -40 -4 -40 -9 0 -5 -10 -11
-22 -13 -28 -4 -36 -28 -9 -28 12 0 30 -9 41 -20 24 -24 27 -60 5 -60 -12 0
-15 -15 -15 -75 0 -43 -4 -75 -10 -75 -6 0 -10 -33 -10 -80 0 -64 -3 -80 -15
-80 -11 0 -15 -12 -15 -50 l0 -50 35 0 c52 0 75 25 75 82 0 27 5 48 10 48 6 0
10 15 10 34 0 21 6 36 15 40 8 3 15 17 15 31 0 16 6 25 16 25 12 0 15 6 11 21
-3 12 0 22 9 26 8 3 14 16 14 29 0 15 6 24 15 24 9 0 15 9 15 25 0 14 5 25 10
25 6 0 10 7 10 15 0 8 7 15 15 15 8 0 15 5 15 10 0 6 11 10 25 10 24 0 25 -3
25 -60 0 -45 -4 -62 -15 -66 -11 -5 -15 -24 -15 -80 0 -43 -4 -74 -10 -74 -6
0 -10 -32 -10 -75 0 -58 -4 -77 -15 -81 -32 -13 -13 -24 40 -24 l55 0 0 50 c0
28 5 50 10 50 6 0 10 22 10 49 0 34 4 51 15 55 8 3 15 16 15 30 0 13 7 26 15
30 8 3 12 12 9 21 -4 8 1 17 10 21 9 3 16 17 16 30 0 15 6 24 15 24 9 0 15 9
15 25 0 14 5 25 10 25 6 0 10 7 10 15 0 8 7 15 15 15 8 0 15 5 15 10 0 6 11
10 25 10 24 0 25 -3 25 -60 0 -45 -4 -62 -15 -66 -11 -5 -15 -24 -15 -80 0
-43 -4 -74 -10 -74 -6 0 -10 -37 -10 -90 l0 -90 40 0 40 0 0 60 c0 33 4 60 10
60 6 0 10 33 10 80 0 64 3 80 15 80 13 0 15 21 15 125 0 112 -2 127 -20 145
-23 23 -90 28 -90 7 0 -7 -11 -21 -25 -31 -14 -11 -25 -29 -25 -42 0 -13 -5
-24 -11 -24 -17 0 -39 -27 -39 -48 0 -11 -7 -22 -15 -26 -8 -3 -15 -17 -15
-31 0 -15 -4 -24 -10 -20 -6 3 -10 48 -10 101 0 81 -3 97 -20 114 -21 21 -90
28 -90 9 0 -14 -25 -39 -39 -39 -6 0 -11 -13 -11 -30 0 -16 -5 -30 -11 -30
-17 0 -39 -27 -39 -48 0 -11 -7 -22 -15 -26 -8 -3 -15 -12 -15 -21 0 -8 -4
-23 -9 -33 -5 -9 -12 -25 -15 -35 -9 -28 -26 -10 -26 29 0 24 5 34 15 34 12 0
15 15 15 76 0 60 4 79 17 89 9 7 14 19 10 29 -8 21 -57 22 -57 1z"/>
<path d="M1164 556 c-112 -49 -216 -218 -250 -406 -20 -110 -18 -150 5 -150
16 0 20 11 26 78 14 164 104 354 197 418 85 60 169 27 204 -79 13 -39 15 -74
11 -161 -4 -102 -13 -142 -52 -238 -5 -14 -2 -18 14 -18 66 0 110 314 62 441
-41 108 -128 154 -217 115z"/>
<path d="M1660 555 c0 -8 -9 -15 -20 -15 -23 0 -110 -84 -110 -106 0 -18 -24
-44 -39 -44 -6 0 -11 -11 -11 -24 0 -13 -6 -26 -12 -28 -8 -3 -12 -19 -10 -41
3 -28 0 -37 -12 -37 -13 0 -16 -12 -16 -55 0 -42 -3 -55 -15 -55 -12 0 -15
-15 -15 -75 l0 -75 55 0 55 0 0 99 c0 79 3 100 15 105 11 4 15 20 15 56 0 27
5 50 10 50 6 0 10 16 10 35 0 22 6 38 15 41 8 4 15 15 15 26 0 21 22 48 39 48
6 0 11 5 11 10 0 6 9 19 21 31 29 29 103 24 107 -9 2 -13 -3 -25 -12 -28 -22
-9 -23 -104 -1 -104 8 0 15 -7 15 -15 0 -9 9 -15 25 -15 15 0 25 6 25 14 0 8
7 16 15 20 11 4 15 21 15 66 0 47 -3 60 -15 60 -9 0 -15 9 -15 25 0 20 -5 25
-25 25 -16 0 -25 6 -25 15 0 12 -13 15 -55 15 -42 0 -55 -3 -55 -15z"/>
<path d="M2104 555 c-4 -8 -15 -15 -26 -15 -21 0 -48 -22 -48 -39 0 -6 -7 -11
-15 -11 -8 0 -15 -7 -15 -15 0 -8 -7 -15 -15 -15 -9 0 -15 -9 -15 -25 0 -14
-4 -25 -10 -25 -5 0 -10 -11 -10 -25 0 -16 -6 -25 -15 -25 -9 0 -15 -9 -15
-25 0 -14 -4 -25 -10 -25 -5 0 -10 -11 -10 -25 0 -16 -6 -25 -15 -25 -12 0
-15 -13 -15 -55 0 -38 -4 -55 -13 -55 -8 0 -12 -11 -11 -27 1 -16 3 -49 3 -75
1 -48 1 -48 36 -48 35 0 42 11 36 57 -1 7 5 13 14 13 12 0 15 13 15 64 0 48 4
65 15 70 9 3 15 19 15 41 0 19 5 35 10 35 6 0 10 18 10 40 0 29 4 40 15 40 9
0 15 9 15 25 0 14 5 25 10 25 6 0 10 11 10 25 0 16 6 25 15 25 8 0 15 7 15 15
0 8 7 15 15 15 8 0 15 5 15 11 0 16 26 39 44 39 9 0 25 -9 36 -20 18 -18 20
-33 20 -155 0 -113 -2 -135 -15 -135 -11 0 -15 -12 -15 -50 0 -27 -4 -50 -10
-50 -5 0 -10 -18 -10 -40 0 -29 -4 -40 -15 -40 -9 0 -15 -9 -15 -25 0 -24 3
-25 55 -25 52 0 55 1 55 25 0 14 5 25 10 25 6 0 10 37 10 90 0 73 3 90 15 90
12 0 15 15 15 79 0 44 4 81 10 83 5 2 10 36 11 76 1 53 5 72 15 72 8 0 14 7
14 15 0 11 -11 15 -40 15 -36 0 -40 -2 -40 -25 0 -20 -5 -25 -25 -25 -20 0
-25 5 -25 25 0 23 -3 25 -50 25 -36 0 -52 -4 -56 -15z"/>
<path d="M1194 429 c-3 -6 10 -24 29 -40 28 -23 38 -41 47 -85 15 -71 -1 -174
-39 -250 l-28 -54 23 0 c56 0 108 198 84 316 -17 81 -91 154 -116 113z"/>
<path d="M1043 293 c-38 -15 11 -63 64 -63 44 0 52 19 19 47 -26 22 -55 28
-83 16z"/>
<path d="M993 123 c-14 -36 79 -72 105 -40 13 15 5 30 -25 46 -32 16 -73 14
-80 -6z"/>
</g>
</svg>
