<svg width="48" height="48" viewBox="0 0 48 48" fill="none" xmlns="http://www.w3.org/2000/svg">
<path d="M24 48C37.2548 48 48 37.2548 48 24C48 10.7452 37.2548 0 24 0C10.7452 0 0 10.7452 0 24C0 37.2548 10.7452 48 24 48Z" fill="#FFB428"/>
<path d="M36.3162 35.334H37.8552C39.9079 35.334 41.1911 33.1119 40.1638 31.334L30.1563 14H23.9982L36.3143 35.334H36.3162Z" fill="#F0F0F0"/>
<path d="M24.0001 14.0004L27.0801 8.66647L26.3106 7.33251C25.2833 5.55453 22.7188 5.55453 21.6915 7.33251L11.684 24.6665L14.764 30.0004L24.002 14.0004" fill="#F0F0F0"/>
<path d="M33.2381 30.0005L30.1581 35.3344H10.1431C8.09038 35.3344 6.80722 33.1124 7.8345 31.3344L8.60402 30.0005H33.2381Z" fill="#F0F0F0"/>
</svg>
