<svg id="Layer_1" data-name="Layer 1" xmlns="http://www.w3.org/2000/svg" viewBox="0 0 114.66 114.64"
     width="100%"
     height="100%">
  <defs>
  <style>.cls-1{fill:#da00ff;}.cls-2{fill:#ce00ff;}.cls-3{fill:#c100ff;}.cls-4{fill:#b500ff;}.cls-5{fill:#a900ff;}.cls-6{fill:#9c00ff;}.cls-7{fill:#9000ff;}.cls-8{fill:#8400ff;}.cls-9{fill:#70f;}.cls-10{fill:#6b00ff;}.cls-11{fill:#5f00ff;}.cls-12{fill:#5200ff;}.cls-13{fill:#4600ff;}</style>
</defs>
  <path class="cls-1" d="M29,11.91l.6-.56c2-1.85,4-3.79,6.12-5.77l2.49-2.36A57.06,57.06,0,0,0,30,6.87L27.54,9.15l-.6.56c-5.73,5.31-10.8,10-15.67,13.43a57.42,57.42,0,0,0-3.72,5.71C14.46,25.37,21.28,19.05,29,11.91Z"/>
  <path class="cls-2" d="M27.37,19.51c-8.81,7.31-15.8,13.1-22.78,15.25-.49,1.14-.93,2.29-1.34,3.46,8.39-1.76,16.32-8.34,26-16.4,3-2.52,6.11-5.22,9.36-8.08C43.81,9.2,49.22,4.45,55,0c-1.84.07-3.65.24-5.44.48-4.49,3.65-8.77,7.4-12.88,11C33.43,14.33,30.37,17,27.37,19.51Z"/>
  <path class="cls-3" d="M27.21,29.87C17,37.37,9.54,42.45,1.85,42.78q-.39,1.51-.71,3c8.79,0,17-5.59,27.84-13.54,4.12-3,8.33-6.46,12.8-10.11,8.65-7.07,18-14.74,28.58-20.76-1.46-.34-2.95-.64-4.45-.86-9.52,5.81-18.08,12.8-26,19.29C35.45,23.48,31.26,26.9,27.21,29.87Z"/>
  <path class="cls-4" d="M27.06,40.23C15.89,47.33,8.43,51.21.49,49.91q-.19,1.49-.3,3c9.2,1.45,17.5-3.16,28.49-10.15,5.27-3.35,10.71-7.52,16.46-11.93,11.43-8.75,24.23-18.54,39-24.29q-1.78-.94-3.64-1.76c-14,6-26.22,15.29-37.15,23.67C37.61,32.82,32.22,36.95,27.06,40.23Z"/>
  <path class="cls-5" d="M28.35,53.23c6.5-3.51,13.22-8.38,20.34-13.55,11.64-8.44,24.84-18,39.7-23.25,2.35-.83,4.65-1.53,6.94-2.12Q94,13.09,92.5,12c-1.69.48-3.38,1-5.11,1.63C72.12,19,58.73,28.69,46.93,37.25c-7,5.1-13.68,9.92-20,13.34C15.48,56.77,8.11,59.39,0,56.75c0,.18,0,.35,0,.53,0,.88,0,1.76.07,2.63C9.62,62.61,17.9,58.87,28.35,53.23Z"/>
  <path class="cls-6" d="M28,63.69c7.79-3.47,15.85-9.06,24.38-15,11-7.63,22.34-15.52,35.24-20.6a80,80,0,0,1,16.11-4.56c-.67-.91-1.35-1.81-2.07-2.69a83.71,83.71,0,0,0-15.14,4.45c-13.22,5.2-25.24,13.56-35.85,20.92C42.27,52.08,34.33,57.6,26.79,60.95,15.8,65.84,8.7,67.59.38,63.8c.13,1.16.3,2.3.5,3.44C9.47,70.46,17.26,68.48,28,63.69Z"/>
  <path class="cls-7" d="M27.67,74.15c9.16-3.21,18.56-9.55,28.52-16.27,9.68-6.53,19.69-13.29,30.68-18.1a83.9,83.9,0,0,1,22.58-6.51c-.44-1-.91-1.91-1.4-2.84A87,87,0,0,0,85.66,37C74.42,42,64.3,48.79,54.51,55.39s-19,12.85-27.83,15.93c-10.78,3.78-17.57,4-24.93.06.33,1.32.72,2.62,1.14,3.9C10.1,78.35,17.25,77.8,27.67,74.15Z"/>
  <path class="cls-8" d="M27.31,84.6C37.89,81.89,48.63,74.74,60,67.18c8.32-5.54,16.93-11.27,26.11-15.72a86.34,86.34,0,0,1,26.83-8.41q-.38-1.47-.82-2.91A90.6,90.6,0,0,0,84.8,48.76c-9.37,4.54-18.06,10.32-26.46,15.92-11.15,7.42-21.68,14.43-31.77,17C17.49,84,11.31,83.81,4.75,80.14q1,2.21,2.1,4.33C12.88,86.85,19,86.72,27.31,84.6Z"/>
  <path class="cls-9" d="M63.75,76.56c6.94-4.64,14.13-9.43,21.6-13.43C94.94,58,103.42,54.86,112,53.27c.85-.16,1.67-.27,2.49-.39q-.11-1.51-.31-3c-.9.13-1.81.27-2.74.44C102.56,52,93.8,55.2,83.93,60.48c-7.6,4.07-14.85,8.9-21.85,13.58-12.46,8.31-24.22,16.17-35.61,18-6.29,1-11.13.62-15.54-1.14q1.55,2.14,3.3,4.12a34.88,34.88,0,0,0,12.72,0C39,93.09,51,85.06,63.75,76.56Z"/>
  <path class="cls-10" d="M84.59,74.8c9.7-5.71,17.94-9.28,25.93-11.23,1.34-.33,2.65-.59,3.93-.81q.14-1.52.21-3.07c-1.59.24-3.2.56-4.85,1-8.29,2-16.79,5.69-26.74,11.56-6,3.51-11.77,7.46-17.38,11.28-13.68,9.31-26.61,18.1-39.31,19a36.39,36.39,0,0,1-4.23.06q2,1.56,4.15,3h.29c13.51-.94,26.76-10,40.79-19.5C72.95,82.18,78.71,78.26,84.59,74.8Z"/>
  <path class="cls-11" d="M83.83,86.46C93.76,80,101.52,76.15,109,73.87c1.21-.37,2.38-.68,3.54-.95q.45-1.6.82-3.24A53.36,53.36,0,0,0,108.12,71c-7.75,2.36-15.75,6.35-25.93,12.94-4.44,2.87-8.84,6-13.1,9-10.84,7.64-21.24,15-31.52,18.22,1.54.56,3.11,1.05,4.7,1.49,9.42-3.79,18.82-10.39,28.55-17.25C75.06,92.39,79.44,89.3,83.83,86.46Z"/>
  <path class="cls-12" d="M106.44,81.35c-9,3.32-17.75,9.11-25.11,14.33-3,2.12-6,4.35-8.88,6.5-6,4.45-11.87,8.8-17.67,12.4.86,0,1.72.07,2.59.07s2,0,3-.08c4.59-3.07,9.21-6.5,13.91-10,2.89-2.14,5.88-4.36,8.83-6.46,7.2-5.11,15.74-10.76,24.41-14l.67-.23q1-1.83,1.8-3.74Q108.22,80.69,106.44,81.35Z"/>
  <path class="cls-13" d="M75.39,111.4l-.73.57a57,57,0,0,0,11.18-4.92c3.11-2.37,6.21-4.61,9.28-6.63a57.67,57.67,0,0,0,7.2-7.57C93.19,97.35,84.22,104.43,75.39,111.4Z"/>
</svg>
