<svg
 version="1.0"
 xmlns="http://www.w3.org/2000/svg"
 width="100%"
 height="100%"
 viewBox="0 0 318.000000 289.000000"
 preserveAspectRatio="xMidYMid meet"
>
 <g
  transform="translate(0.000000,289.000000) scale(0.100000,-0.100000)"
  fill="#000000"
  stroke="none"
 >
  <path
   d="M1100 2298 c0 -10 132 -250 147 -268 3 -3 158 -7 346 -10 l341 -5
153 -260 c83 -143 159 -272 168 -287 l16 -28 -168 0 -168 0 -84 145 -84 145
-173 0 -173 0 -75 -127 c-41 -71 -79 -134 -83 -142 -7 -10 -55 64 -170 260
-114 194 -166 274 -178 274 -13 0 -64 -79 -177 -274 -150 -255 -159 -275 -148
-300 22 -49 483 -836 494 -843 6 -4 233 -8 504 -8 402 0 494 2 498 13 3 8 -30
73 -73 145 l-77 132 -338 0 -338 0 -24 38 c-17 27 -252 428 -313 535 -2 4 71
7 164 7 l168 0 80 -140 c52 -92 87 -142 100 -146 11 -2 90 -3 175 -2 l155 3
77 129 c43 71 81 133 86 138 5 5 72 -100 157 -244 183 -314 173 -298 188 -298
11 0 337 545 337 564 0 4 -22 44 -49 89 -85 144 -174 296 -316 540 l-138 237
-504 0 c-393 0 -503 -3 -503 -12z"
  />
 </g>
</svg>
