<?xml version="1.0" standalone="no"?>
<!DOCTYPE svg PUBLIC "-//W3C//DTD SVG 20010904//EN"
 "http://www.w3.org/TR/2001/REC-SVG-20010904/DTD/svg10.dtd">
<svg version="1.0" xmlns="http://www.w3.org/2000/svg"
 width="150.000000pt" height="120.000000pt" viewBox="0 0 150.000000 120.000000"
 preserveAspectRatio="xMidYMid meet">
<metadata>
Created by potrace 1.16, written by Peter Selinger 2001-2019
</metadata>
<g transform="translate(0.000000,120.000000) scale(0.100000,-0.100000)"
fill="#000000" stroke="none">
<path d="M632 929 c-21 -6 -40 -21 -50 -40 -14 -24 -36 -37 -114 -67 l-98 -37
0 -202 0 -202 52 -19 c29 -11 113 -43 185 -71 l133 -50 177 67 178 68 0 204 0
204 -95 37 c-76 29 -96 41 -103 62 -12 36 -71 57 -160 56 -39 0 -87 -5 -105
-10z m208 -30 c37 -13 37 -37 0 -56 -55 -28 -240 -7 -240 26 0 14 37 33 80 42
41 9 115 3 160 -12z m-270 -95 c0 -68 65 -99 190 -92 96 6 133 26 138 76 2 18
8 32 14 32 24 0 128 -43 121 -50 -12 -11 -278 -110 -294 -110 -15 0 -311 112
-307 116 5 4 122 52 131 53 4 1 7 -11 7 -25z m500 -231 l0 -178 -153 -57 c-85
-32 -156 -58 -160 -58 -4 0 -7 78 -7 174 l0 174 93 36 c124 48 221 85 225 86
1 0 2 -80 2 -177z"/>
</g>
</svg>
