<svg xmlns="http://www.w3.org/2000/svg" xmlns:xlink="http://www.w3.org/1999/xlink"
     width="100%"
     height="100%" viewBox="0 0 137 137"><defs><style>.cls-1{fill:none;}.cls-2{fill:url(#linear-gradient);}.cls-3{fill:#fff;}.cls-4{fill:#00d3ff;opacity:0.21;isolation:isolate;}.cls-5{clip-path:url(#clip-path);}.cls-6{fill:url(#linear-gradient-2);}</style><linearGradient id="linear-gradient" x1="68.5" y1="137.89" x2="68.5" y2="0.89" gradientTransform="matrix(1, 0, 0, -1, 0, 137.89)" gradientUnits="userSpaceOnUse"><stop offset="0" stop-color="#2551ff"/><stop offset="1" stop-color="#03cbff"/></linearGradient><clipPath id="clip-path"><path class="cls-1" d="M67.66,35.83C57.66,38.06,49.32,40,49.12,40A2.22,2.22,0,0,0,48,41.33c-.08.29-.12,5.6-.12,16.42,0,8.8,0,16-.08,16s-.41-.18-.8-.38a12.42,12.42,0,0,0-9-.56c-4.69,1.61-7.21,5.73-5.86,9.58a7,7,0,0,0,1.77,2.83C38.58,90,47.75,89.1,51.06,83.57a10.43,10.43,0,0,0,.54-1.27l.31-.89L52,68.5,52,55.58l15.8-3.51,16.11-3.58.3-.08V65.67l-.63-.32a11,11,0,0,0-5.83-1.19,10.14,10.14,0,0,0-7.42,3,6.3,6.3,0,0,0-1.47,1.93A6.45,6.45,0,0,0,68.8,75a8.65,8.65,0,0,0,4.41,4.14,12.1,12.1,0,0,0,10.11-.06,8.81,8.81,0,0,0,4.28-4c.76-1.56.72-.24.69-22.19l0-19.81L88,32.65a2,2,0,0,0-1.68-.89C86,31.77,77.65,33.6,67.66,35.83Z"/></clipPath><linearGradient id="linear-gradient-2" x1="53.64" y1="104.22" x2="53.64" y2="47.77" gradientTransform="matrix(1, 0, 0, -1, 0, 137.89)" gradientUnits="userSpaceOnUse"><stop offset="0" stop-color="#1b77ff"/><stop offset="1" stop-color="#148eff"/></linearGradient></defs><title>dbeats-logo</title><g id="Layer_2" data-name="Layer 2"><g id="Layer_1-2" data-name="Layer 1"><path id="Layer" class="cls-2" d="M68.5,137A68.5,68.5,0,1,1,137,68.5,68.44,68.44,0,0,1,68.5,137Z"/><path class="cls-3" d="M110,56.38a14,14,0,0,1,0,24.24L58.25,110.5a14,14,0,0,1-21-12.12V38.62a14,14,0,0,1,21-12.12Z"/><path class="cls-4" d="M69.55,70.81C57.08,52.3,43.75,69,37,74V38c16,8.17,37.44,5.63,47,11.5,24.37,14.95,20,31,17.43,36.16L68.5,104.28C75.52,100.13,82,89.33,69.55,70.81Z"/><path class="cls-3" d="M67.55,35.73C57.55,38,49.21,39.85,49,39.92a2.26,2.26,0,0,0-1.11,1.31c-.08.29-.12,5.6-.12,16.42,0,8.8,0,16-.08,16l-.81-.39a12.44,12.44,0,0,0-9-.55c-4.7,1.6-7.22,5.72-5.87,9.58a7.2,7.2,0,0,0,1.78,2.83C38.47,89.86,47.64,89,51,83.47a12.68,12.68,0,0,0,.54-1.28l.31-.88,0-12.91.06-12.92L67.72,52l16.11-3.58.3-.08V65.57l-.63-.32a11.16,11.16,0,0,0-5.84-1.2,10.12,10.12,0,0,0-7.41,3A6.18,6.18,0,0,0,68.78,69a6.37,6.37,0,0,0-.08,5.91,8.63,8.63,0,0,0,4.41,4.15A12.14,12.14,0,0,0,83.22,79a8.76,8.76,0,0,0,4.27-4c.77-1.55.72-.23.7-22.18l0-19.81-.31-.48a2,2,0,0,0-1.68-.88C85.92,31.67,77.55,33.49,67.55,35.73Z"/><g class="cls-5"><g id="Clip-Path-2" data-name="Clip-Path"><path class="cls-6" d="M19.36,33.67H71.78l16.13,6.6V90.12H19.36Z"/></g></g><path class="cls-3" d="M37.16,73.08c-5.23,1.25-10,11.26,0,14.3Z"/></g></g></svg>
