<svg width="48" height="48" viewBox="0 0 48 48" fill="none" xmlns="http://www.w3.org/2000/svg" data-v-46ebb08c=""><path d="M41.775 38.5373L45.0002 36.6715V14.1488L41.775 16.0146V38.5373Z" fill="url(#paint0_linear_6441_1517)" data-v-46ebb08c=""></path> <path d="M30.9947 44.8007L34.1757 42.9349V20.4122L30.9947 22.278V44.8007Z" fill="url(#paint1_linear_6441_1517)" data-v-46ebb08c=""></path> <path d="M25.6046 47.9554L28.7856 46.0896V23.5669L25.6046 25.3883V47.9554Z" fill="url(#paint2_linear_6441_1517)" data-v-46ebb08c=""></path> <path d="M36.3846 41.6916L39.5657 39.8258V17.2587L36.3846 19.1245V41.6916Z" fill="url(#paint3_linear_6441_1517)" data-v-46ebb08c=""></path> <path d="M4 32.9406V36.6278L23.3513 48.0002L23.3955 44.313L4 32.9406Z" fill="url(#paint4_linear_6441_1517)" data-v-46ebb08c=""></path> <path d="M4.08825 20.3689L4.04407 24.1004L23.4395 35.4728V31.7413L4.08825 20.3689Z" fill="url(#paint5_linear_6441_1517)" data-v-46ebb08c=""></path> <path d="M4.08844 14.1055V17.837L23.4397 29.2094L23.4839 25.4779L4.08844 14.1055Z" fill="url(#paint6_linear_6441_1517)" data-v-46ebb08c=""></path> <path d="M4.04407 26.6771V30.3642L23.3954 41.7366L23.4395 38.005L4.04407 26.6771Z" fill="url(#paint7_linear_6441_1517)" data-v-46ebb08c=""></path> <path d="M27.681 2.86578L24.4999 1L5.06027 12.2391L8.28549 14.1049L27.681 2.86578Z" fill="url(#paint8_linear_6441_1517)" data-v-46ebb08c=""></path> <path d="M38.5052 9.12956L35.28 7.3082L15.8403 18.5473L19.0655 20.4131L38.5052 9.12956Z" fill="url(#paint9_linear_6441_1517)" data-v-46ebb08c=""></path> <path d="M43.8954 12.2839L40.7144 10.4181L21.2747 21.6572L24.4558 23.523L43.8954 12.2839Z" fill="url(#paint10_linear_6441_1517)" data-v-46ebb08c=""></path> <path d="M33.071 6.01926L29.89 4.15347L10.4503 15.3926L13.6756 17.2584L33.071 6.01926Z" fill="url(#paint11_linear_6441_1517)" data-v-46ebb08c=""></path> <defs data-v-46ebb08c=""><linearGradient id="paint0_linear_6441_1517" x1="41.0813" y1="16.2958" x2="46.3027" y2="38.7816" gradientUnits="userSpaceOnUse" data-v-46ebb08c=""><stop stop-color="#FF6647" data-v-46ebb08c=""></stop> <stop offset="1" stop-color="#FF6647" stop-opacity="0" data-v-46ebb08c=""></stop></linearGradient> <linearGradient id="paint1_linear_6441_1517" x1="30.2774" y1="22.5627" x2="35.4988" y2="45.0485" gradientUnits="userSpaceOnUse" data-v-46ebb08c=""><stop stop-color="#FF6647" data-v-46ebb08c=""></stop> <stop offset="1" stop-color="#FF6647" stop-opacity="0" data-v-46ebb08c=""></stop></linearGradient> <linearGradient id="paint2_linear_6441_1517" x1="24.877" y1="25.7057" x2="30.0983" y2="48.1915" gradientUnits="userSpaceOnUse" data-v-46ebb08c=""><stop stop-color="#FF6647" data-v-46ebb08c=""></stop> <stop offset="1" stop-color="#FF6647" stop-opacity="0" data-v-46ebb08c=""></stop></linearGradient> <linearGradient id="paint3_linear_6441_1517" x1="35.6764" y1="19.4232" x2="40.8978" y2="41.9089" gradientUnits="userSpaceOnUse" data-v-46ebb08c=""><stop stop-color="#FF6647" data-v-46ebb08c=""></stop> <stop offset="1" stop-color="#FF6647" stop-opacity="0" data-v-46ebb08c=""></stop></linearGradient> <linearGradient id="paint4_linear_6441_1517" x1="23.4267" y1="43.665" x2="1.47675" y2="36.8766" gradientUnits="userSpaceOnUse" data-v-46ebb08c=""><stop stop-color="#FF6647" data-v-46ebb08c=""></stop> <stop offset="1" stop-color="#FF6647" stop-opacity="0" data-v-46ebb08c=""></stop></linearGradient> <linearGradient id="paint5_linear_6441_1517" x1="23.491" y1="31.1238" x2="1.54104" y2="24.3353" gradientUnits="userSpaceOnUse" data-v-46ebb08c=""><stop stop-color="#FF6647" data-v-46ebb08c=""></stop> <stop offset="1" stop-color="#FF6647" stop-opacity="0" data-v-46ebb08c=""></stop></linearGradient> <linearGradient id="paint6_linear_6441_1517" x1="23.5154" y1="24.8503" x2="1.56539" y2="18.0619" gradientUnits="userSpaceOnUse" data-v-46ebb08c=""><stop stop-color="#FF6647" data-v-46ebb08c=""></stop> <stop offset="1" stop-color="#FF6647" stop-opacity="0" data-v-46ebb08c=""></stop></linearGradient> <linearGradient id="paint7_linear_6441_1517" x1="23.4659" y1="37.3954" x2="1.51591" y2="30.607" gradientUnits="userSpaceOnUse" data-v-46ebb08c=""><stop stop-color="#FF6647" data-v-46ebb08c=""></stop> <stop offset="1" stop-color="#FF6647" stop-opacity="0" data-v-46ebb08c=""></stop></linearGradient> <linearGradient id="paint8_linear_6441_1517" x1="8.92175" y1="14.6874" x2="25.8197" y2="-0.947327" gradientUnits="userSpaceOnUse" data-v-46ebb08c=""><stop stop-color="#FF6647" data-v-46ebb08c=""></stop> <stop offset="1" stop-color="#FF6647" stop-opacity="0" data-v-46ebb08c=""></stop></linearGradient> <linearGradient id="paint9_linear_6441_1517" x1="19.7132" y1="20.9748" x2="36.6111" y2="5.33986" gradientUnits="userSpaceOnUse" data-v-46ebb08c=""><stop stop-color="#FF6647" data-v-46ebb08c=""></stop> <stop offset="1" stop-color="#FF6647" stop-opacity="0" data-v-46ebb08c=""></stop></linearGradient> <linearGradient id="paint10_linear_6441_1517" x1="25.1159" y1="24.1132" x2="42.0138" y2="8.47822" gradientUnits="userSpaceOnUse" data-v-46ebb08c=""><stop stop-color="#FF6647" data-v-46ebb08c=""></stop> <stop offset="1" stop-color="#FF6647" stop-opacity="0" data-v-46ebb08c=""></stop></linearGradient> <linearGradient id="paint11_linear_6441_1517" x1="14.3134" y1="17.8363" x2="31.2112" y2="2.20133" gradientUnits="userSpaceOnUse" data-v-46ebb08c=""><stop stop-color="#FF6647" data-v-46ebb08c=""></stop> <stop offset="1" stop-color="#FF6647" stop-opacity="0" data-v-46ebb08c=""></stop></linearGradient></defs></svg>