<svg width="79" height="79" viewBox="0 0 79 79" fill="none" xmlns="http://www.w3.org/2000/svg">
<path d="M67.2188 11.5688C51.8188 -3.83123 26.8788 -3.86123 11.5088 11.5088C-3.86123 26.8788 -3.83123 51.8188 11.5688 67.2188C26.9688 82.6188 51.9088 82.6488 67.2788 67.2788C82.6488 51.9088 82.6188 26.9688 67.2188 11.5688ZM23.4488 25.2888C23.7088 20.6488 25.8588 16.4888 29.5288 13.5588C35.3588 8.90878 43.8088 8.89878 49.6388 13.5588C56.3188 18.8988 57.7088 28.5188 52.7988 35.4588C52.2888 36.1788 51.4888 36.6288 50.6088 36.7088C49.6888 36.7888 48.7888 36.4588 48.1388 35.8088C47.0788 34.7488 46.9388 33.0888 47.7988 31.8488C50.5488 27.8888 50.0688 22.5488 46.6488 19.1388C44.6988 17.1988 42.0888 16.1388 39.3388 16.2188C36.5788 16.2888 34.0388 17.4488 32.1788 19.4888C28.5888 23.4288 28.8288 29.5588 32.7288 33.4388L43.9388 44.6188C44.5988 45.2688 44.9188 46.1788 44.8288 47.0988C44.7388 48.0188 44.2288 48.8488 43.4488 49.3688C42.9588 49.6888 42.3888 49.8588 41.7988 49.8588C40.9688 49.8588 40.1488 49.5188 39.5488 48.9188L28.1688 37.5688C24.9288 34.3288 23.2088 29.8588 23.4588 25.2788L23.4488 25.2888ZM55.7188 52.3888C55.4588 57.0288 53.2988 61.1988 49.6388 64.1188C46.8188 66.3688 43.2488 67.6088 39.5888 67.6088C35.9288 67.6088 32.3588 66.3688 29.5388 64.1188C22.8588 58.7788 21.4688 49.1588 26.3788 42.2188C26.8888 41.4988 27.6888 41.0488 28.5688 40.9688C29.4888 40.8888 30.3888 41.2188 31.0388 41.8688C32.0988 42.9188 32.2388 44.5888 31.3788 45.8288C28.6288 49.7888 29.1188 55.1288 32.5288 58.5388C34.4688 60.4688 37.0788 61.5088 39.8388 61.4588C42.5988 61.3988 45.1388 60.2388 46.9988 58.1888C50.5888 54.2488 50.3488 48.1188 46.4488 44.2388L35.2388 33.0588C34.5788 32.4088 34.2588 31.4988 34.3488 30.5788C34.4388 29.6588 34.9488 28.8288 35.7288 28.3088C36.9388 27.5088 38.5788 27.6988 39.6388 28.7588L51.0188 40.1088C54.2588 43.3488 55.9788 47.8188 55.7288 52.3988L55.7188 52.3888Z" fill="url(#paint0_radial_219_582)"/>
<defs>
<radialGradient id="paint0_radial_219_582" cx="0" cy="0" r="1" gradientUnits="userSpaceOnUse" gradientTransform="translate(5.14878 -2.08123) scale(83.16)">
<stop stop-color="#01F2B8"/>
<stop offset="1" stop-color="#0078FF"/>
</radialGradient>
</defs>
</svg>
