<?xml version="1.0" encoding="UTF-8" standalone="no"?>
<svg
   version="1.1"
   width="1024"
   height="1024"
   style="clip-rule:evenodd;fill-rule:evenodd;image-rendering:optimizeQuality;shape-rendering:geometricPrecision;text-rendering:geometricPrecision"
   id="svg6"
   xmlns:xlink="http://www.w3.org/1999/xlink"
   xmlns="http://www.w3.org/2000/svg"
   xmlns:svg="http://www.w3.org/2000/svg">
  <defs
     id="defs8">
    <linearGradient
       id="linearGradient828">
      <stop
         style="stop-color:#008ed4;stop-opacity:1;"
         offset="0" />
      <stop
         style="stop-color:#008ed4;stop-opacity:1;"
         offset="0.25" />
      <stop
         style="stop-color:#3a57a6;stop-opacity:1;"
         offset="0.75" />
      <stop
         style="stop-color:#3a57a6;stop-opacity:1;"
         offset="1" />
    </linearGradient>
    <linearGradient
       xlink:href="#linearGradient828"
       id="linearGradient830"
       x1="-0.21697998"
       y1="512.37921"
       x2="1023.783"
       y2="512.37921"
       gradientUnits="userSpaceOnUse" />
  </defs>
  <circle
     style="opacity:1;fill:url(#linearGradient830);fill-opacity:1"
     id="path30"
     cx="511.78302"
     cy="512.37921"
     r="512" />
  <g
     id="g4"
     transform="matrix(0.0660066,0,0,0.0662,122.033,181.0331)">
    <path
       style="opacity:1"
       fill="#ffffff"
       d="m 1773.5,-0.5 c 2490.33,0 4980.67,0 7471,0 581.99,1175.32 1164,2350.65 1746,3526 -1277.24,1919.25 -2554.91,3838.25 -3833,5757 -833,1.33 -1666,1.33 -2499,0 C 3381.33,7364.83 2104.17,5447.17 827,3529.5 c -1.301,-1.86 -1.635,-3.86 -1,-6 13.272,-26.21 26.272,-52.54 39,-79 451,-909.33 902,-1818.67 1353,-2728 2192.1,-1.333 4384.26,-1.333 6576.5,0 456.5,918.33 913,1836.67 1369.5,2755 0.7,1.33 0.7,2.67 0,4 C 9033.83,5172.33 7903.67,6869.17 6773.5,8566 c -577,0.67 -1154,0.67 -1731,0 C 3937.33,6906.83 2832.17,5247.67 1727,3588.5 c -24.75,-37.84 -49.75,-75.51 -75,-113 -0.67,-1.67 -0.67,-3.33 0,-5 336.83,-679 673.67,-1358 1010.5,-2037 1899,-1.33 3798,-1.33 5697,0 322.83,655 645.67,1310 968.5,1965 3.06,7.12 6.39,14.12 10,21 0.67,1 0.67,2 0,3 -982.91,1475.49 -1965.58,2951.16 -2948,4427 -321.1,1.17 -642.26,1.33 -963.5,0.5 -983.33,-1476.33 -1966.67,-2952.67 -2950,-4429 210.6,-423.88 420.94,-847.88 631,-1272 1599.57,-0.83 3199.07,-0.67 4798.5,0.5 202,405.33 404,810.67 606,1216 0.67,1.33 0.67,2.67 0,4 C 7644.33,4673.51 6776.16,5977.18 5907.5,7280.5 5038.23,5969.4 4169.56,4657.9 3301.5,3346 c 84.4,-160.14 169.07,-320.14 254,-480 1306.9,-0.83 2613.74,-0.67 3920.5,0.5 85.83,165.67 171.67,331.33 257.5,497 -0.5,1 -1,2 -1.5,3 -609,872.67 -1218,1745.33 -1827,2618 C 5372.17,5184.33 4839.33,4384.17 4306.5,3584 c 747.33,-0.5 1494.67,-0.67 2242,-0.5 0,123.67 0,247.33 0,371 -516.33,-0.17 -1032.67,0 -1549,0.5 304.47,456.45 608.8,912.95 913,1369.5 462.15,-662.3 924.32,-1324.63 1386.5,-1987 0.37,-0.92 0.87,-1.75 1.5,-2.5 -17.26,-32.51 -34.26,-65.18 -51,-98 -1157,-0.83 -2314,-0.67 -3471,0.5 -15.08,29.16 -30.41,58.16 -46,87 725.17,1095 1450.33,2190 2175.5,3285 725.58,-1088.83 1450.91,-2177.83 2176,-3267 0.67,-1 0.67,-2 0,-3 -135.73,-273.12 -271.73,-546.12 -408,-819 -1446.1,-1.33 -2892.26,-1.33 -4338.5,0 -143.83,290.33 -287.67,580.67 -431.5,871 -0.67,1.33 -0.67,2.67 0,4 19.39,28.4 38.39,57.06 57,86 887.36,1331.86 1774.53,2663.86 2661.5,3996 189,1.33 378,1.33 567,0 C 7097.97,6115.86 8004.64,4754.36 8911.5,3393 8650.21,2863.58 8389.04,2334.08 8128,1804.5 c -1744.76,-1.17 -3489.6,-1.33 -5234.5,-0.5 -271.4,547.46 -543.06,1094.79 -815,1642 1054.33,1583 2108.67,3166 3163,4749 444.57,0.83 889.07,0.67 1333.5,-0.5 1053.67,-1582.33 2107.33,-3164.67 3161,-4747 0.67,-1 0.67,-2 0,-3 -14.61,-28.88 -28.94,-57.88 -43,-87 -376.44,-756.54 -752.6,-1513.21 -1128.5,-2270 -2038.67,-1.33 -4077.33,-1.33 -6116,0 -398.17,803 -796.33,1606 -1194.5,2409 -0.67,1.33 -0.67,2.67 0,4 7.92,11.5 15.58,23.16 23,35 1193.71,1792.25 2387.54,3584.42 3581.5,5376.5 700,0.83 1400,0.67 2100,-0.5 1201.17,-1803.67 2402.33,-3607.33 3603.5,-5411 0.7,-1.33 0.7,-2.67 0,-4 -15.3,-30.21 -30.3,-60.54 -45,-91 -501,-1011.33 -1002,-2022.67 -1503,-3034 -2336.76,-1.333 -4673.6,-1.333 -7010.5,0 -525.2,1059.9 -1050.531,2119.73 -1576,3179.5 1348.06,2025.9 2696.73,4051.4 4046,6076.5 956.33,1.33 1912.67,1.33 2869,0 C 8691.3,7602.07 10040,5576.57 11388.5,3551 10838.1,2439.98 10287.2,1329.15 9736,218.5 c -7.67,-15.659 -15,-31.326 -22,-47 109.63,-54.9 219.47,-109.3996 329.5,-163.5 1.1,-0.74939 2.1,-0.58272 3,0.5 590,1189.43 1180,2378.76 1770,3568 0,1.33 0,2.67 0,4 -1425.4,2139.37 -2850.36,4279.04 -4275,6419 -1089,0 -2178,0 -3267,0 -1424.64,-2139.96 -2849.64,-4279.63 -4275,-6419 0,-1.33 0,-2.67 0,-4 591.572,-1192.14 1182.91,-2384.48 1774,-3577 z"
       id="path2" />
  </g>
</svg>
